<svg width="402" height="349" viewBox="0 0 402 349" fill="none" xmlns="http://www.w3.org/2000/svg">
<path d="M64.1279 0.312988H236.97C328.002 0.312988 401.799 74.1095 401.799 165.142V183.31C401.799 274.343 328.002 348.139 236.97 348.139H228.957C137.924 348.139 64.1279 274.343 64.1279 183.31V0.312988Z" fill="#9BB2F4"/>
<path d="M53.3165 53.6284C23.8706 53.6284 -1.04342e-06 29.7578 -2.33054e-06 0.311951L53.3165 0.311948L53.3165 53.6284Z" fill="#9BB2F3"/>
<path d="M52.167 339.36L52.167 334.283C52.167 318.157 65.239 305.085 81.3641 305.085C97.4892 305.085 110.561 318.157 110.561 334.283L110.561 339.36L52.167 339.36Z" fill="#F7F0C7"/>
</svg>
