<svg width="589" height="361" viewBox="0 0 589 361" fill="none" xmlns="http://www.w3.org/2000/svg">
<path d="M0 255C11.9163 254.606 26.264 248.937 29.3462 235.683C31.8491 225.835 35.0093 215.621 41.014 207.774C42.5438 205.92 44.4376 204.309 46.3642 204.056C48.2409 203.756 50.1985 204.983 51.7511 206.701C54.9 210.252 56.9529 214.966 58.7881 219.672C58.9686 220.145 59.1496 220.629 59.3311 221.126C62.206 228.952 65.2019 236.679 68.9207 244.17C70.8485 247.95 72.8157 251.643 75.7862 255.053C77.3075 256.704 79.1343 258.473 81.9946 259.029C84.9266 259.555 87.441 258.117 89.2095 256.936C89.3536 256.84 89.4965 256.742 89.6384 256.644C93.3045 254.125 94.5289 249.995 96.0114 247.239C97.4626 244.309 99.4768 243.443 102.715 243.833C103.015 243.868 103.327 243.913 103.657 243.97C104.441 244.118 105.186 243.775 105.555 243.462C105.948 243.14 106.155 242.831 106.34 242.527C106.45 242.339 106.464 242.306 106.502 242.233C106.537 242.166 106.57 242.097 106.603 242.028C106.668 241.89 106.729 241.749 106.789 241.602C106.908 241.309 107.02 240.995 107.13 240.654C107.185 240.484 107.239 240.307 107.293 240.123C107.353 239.918 107.369 239.859 107.407 239.723C107.67 238.783 107.969 237.47 108.196 236.349C108.597 234.399 109.034 231.825 109.348 229.821C110.066 225.226 110.638 220.875 111.175 216.612C117.026 167.54 123.893 118.603 129.105 69.7258C130.084 60.563 131.108 51.3322 132.268 42.2646C132.851 37.7533 133.451 33.325 134.21 28.712C134.544 26.6852 135.012 24.118 135.429 22.3213C135.721 21.0711 135.917 20.3281 136.199 19.5552C136.262 19.3881 136.307 19.3027 136.284 19.3465C136.271 19.3687 136.241 19.4241 136.173 19.5225C136.098 19.5967 135.804 20.1885 134.66 20.782C134.091 21.0696 133.233 21.3016 132.35 21.2382C131.493 21.2038 130.573 20.7926 130.235 20.5621C129.59 20.1533 129.275 19.7619 129.086 19.5104C128.728 18.9973 128.772 18.9264 128.807 19.0639C143.568 129.914 149.19 246.22 151.314 359.995L157.674 360.282C162.615 320.896 163.018 271.003 185.5 244.471C191.344 244.405 196.956 245.262 202.961 246.312C205.863 246.675 209.755 247.636 213.422 245.05C216.71 242.422 217.621 239.189 218.692 236.23C221.989 224.432 222.368 212.929 226.57 202.486C230.122 191.689 240.517 185.383 251.555 188.535C275.25 193.936 273.781 223.653 286.541 244.01C288.739 246.853 292.593 249.122 296.5 249.003C317.278 249.474 321.292 222.821 336.5 222.614C344.945 222.76 348.855 234.189 354.623 242.063C359.989 250.571 370.145 257.857 381 257.428C428.088 252.847 472.358 233.914 508.586 203.172C546.077 168.424 588.06 125.697 588.119 68.4521C588.913 35.7321 561.881 6.45664 530.046 1.30207C497.655 -5.21526 464.834 14.5422 448.737 40.993L461.391 41.1997C431.511 1.73178 362.5 -10.0995 333.454 36.4013C332.558 37.6766 331.705 38.9609 330.896 40.2537C307.675 75.3405 323.163 120.073 344.831 148.182C365.168 175.475 391.18 197.429 419.5 214.5C394.197 193.322 371.544 168.878 354.5 141.649C336.087 112.693 326.15 76.1167 344.456 48.7454C345.114 47.6949 345.81 46.6459 346.546 45.5982C368.219 8.4493 425.069 19.8103 448.609 48.7997L454.866 59.1598L461.263 49.0064C475.262 25.6352 501.272 9.76779 527.828 14.3682C554.083 18.0948 576.872 41.4638 576.881 68.5473C578.363 119.937 540.366 162.24 503.414 197.828C470.295 227.536 425.352 247.809 381 252.572C371.643 252.938 363.622 247.442 358.302 239.478C355.513 235.576 353.146 231.267 350.144 227.07C347.291 223.035 342.724 218.239 336.5 218.386C315.793 221.038 313.806 246.28 296.5 244.996C293.761 245.032 291.447 243.718 289.632 241.471C278.103 224.272 280.082 191.468 252.445 184.464C246.5 183.131 239.756 183.067 234.009 186.355C228.272 189.601 224.788 195.298 222.525 200.85C217.956 212.071 217.387 224.268 214.308 234.769C212.34 248.878 197.442 238.03 185.5 239.528C177.331 240.622 175.418 247.214 172.869 251.7C170.559 256.608 168.846 261.667 167.314 266.734C164.289 276.877 162.048 287.178 160.073 297.472C156.181 318.099 153.361 338.874 151.326 359.717L157.686 360.004C156.849 245.078 153.525 131.702 138.193 15.9355C137.951 15.2407 137.709 14.5593 137.06 13.6489C136.724 13.1987 136.262 12.662 135.467 12.1601C134.463 11.3413 131.622 11.0572 130.286 11.9013C128.9 12.5937 128.248 13.5938 128.032 13.8875C127.849 14.1514 127.703 14.3971 127.574 14.6341C127.319 15.1072 127.128 15.5492 126.952 16.0036C126.865 16.2306 126.782 16.4599 126.703 16.6943C126.624 16.9293 126.598 17.0088 126.547 17.1692C126.455 17.4606 126.366 17.7609 126.279 18.0724C126.104 18.6951 125.935 19.3626 125.767 20.082C125.266 22.217 124.766 24.9424 124.408 27.0717C123.598 31.9035 122.979 36.4022 122.378 40.9848C121.183 50.1817 120.145 59.4606 119.161 68.6654C113.932 117.716 113.04 167.189 107.206 216.114C106.673 220.352 106.103 224.678 105.396 229.2C105.088 231.172 104.659 233.692 104.277 235.549C104.06 236.618 103.779 237.845 103.552 238.655C103.519 238.772 103.505 238.823 103.455 238.995C103.41 239.149 103.366 239.293 103.323 239.427C103.237 239.694 103.155 239.92 103.083 240.097C103.008 240.28 102.961 240.381 102.901 240.485C102.872 240.54 102.869 240.496 103.055 240.339C103.218 240.192 103.758 239.916 104.343 240.029C103.941 239.959 103.554 239.903 103.172 239.859C101.215 239.643 99.017 239.66 96.8896 240.693C94.7441 241.722 93.3642 243.681 92.4847 245.352C90.7526 248.761 89.6961 251.814 87.3616 253.355C87.2345 253.443 87.1089 253.529 86.9847 253.612C81.0126 259.108 75.9306 248.919 72.3921 242.412C68.7324 235.205 65.6528 227.582 62.6689 219.874C62.4728 219.364 62.2768 218.866 62.0808 218.379C60.0587 213.514 57.9314 208.666 54.09 204.497C52.2372 202.531 49.2458 200.481 45.9049 201.071C42.6363 201.673 40.5148 203.909 38.8263 206.018C32.4739 214.91 29.8414 225.164 27.6538 235.317C25.4383 247.545 11.9395 253.994 0 255Z" fill="#BC1718"/>
</svg>
