<svg width="500" height="500" viewBox="0 0 500 500" fill="none" xmlns="http://www.w3.org/2000/svg">
<path d="M192.795 386.437C183.939 389.542 174.417 391.23 164.5 391.23C117.704 391.23 79.6881 353.635 79.0092 307C34.5594 315.626 1 354.759 1 401.73C1 455.026 44.2045 498.23 97.5 498.23C150.795 498.23 194 455.026 194 401.73C194 396.526 193.588 391.418 192.795 386.437Z" fill="#ABB7C8"/>
<path d="M500 382.4H0V382.65H500V382.4Z" fill="#EBEBEB"/>
<path d="M443.89 396.81H384V397.06H443.89V396.81Z" fill="#EBEBEB"/>
<path d="M338.9 391.4H286.33V391.65H338.9V391.4Z" fill="#EBEBEB"/>
<path d="M378.59 396.69H362.24V396.94H378.59V396.69Z" fill="#EBEBEB"/>
<path d="M104.78 391.28H56.1099V391.53H104.78V391.28Z" fill="#EBEBEB"/>
<path d="M119.65 391.28H109.22V391.53H119.65V391.28Z" fill="#EBEBEB"/>
<path d="M202.33 393.43H168.68V393.68H202.33V393.43Z" fill="#EBEBEB"/>
<path d="M237 337.8H43.91C42.3973 337.797 40.9475 337.195 39.8788 336.124C38.8102 335.053 38.21 333.603 38.21 332.09V60.66C38.2231 59.156 38.8292 57.718 39.8964 56.6582C40.9637 55.5985 42.4059 55.0026 43.91 55H237C238.514 55 239.967 55.6016 241.038 56.6724C242.108 57.7433 242.71 59.1956 242.71 60.71V332.09C242.71 333.604 242.108 335.057 241.038 336.128C239.967 337.198 238.514 337.8 237 337.8ZM43.91 55.2C42.4636 55.2026 41.0774 55.7791 40.0556 56.8027C39.0338 57.8264 38.46 59.2136 38.46 60.66V332.09C38.46 333.536 39.0338 334.924 40.0556 335.947C41.0774 336.971 42.4636 337.547 43.91 337.55H237C238.447 337.547 239.834 336.971 240.858 335.948C241.881 334.924 242.457 333.537 242.46 332.09V60.66C242.457 59.2127 241.881 57.8255 240.858 56.8021C239.834 55.7787 238.447 55.2026 237 55.2H43.91Z" fill="#EBEBEB"/>
<path d="M453.31 337.8H260.21C258.696 337.797 257.246 337.195 256.175 336.125C255.105 335.054 254.503 333.604 254.5 332.09V60.66C254.516 59.1551 255.124 57.7171 256.193 56.6576C257.262 55.5981 258.705 55.0025 260.21 55H453.31C454.812 55.0052 456.252 55.6022 457.317 56.6617C458.382 57.7212 458.987 59.1578 459 60.66V332.09C459 333.601 458.401 335.05 457.335 336.121C456.268 337.191 454.821 337.795 453.31 337.8ZM260.21 55.2C258.763 55.2026 257.375 55.7787 256.352 56.8021C255.329 57.8255 254.753 59.2127 254.75 60.66V332.09C254.753 333.537 255.329 334.924 256.352 335.948C257.375 336.971 258.763 337.547 260.21 337.55H453.31C454.757 337.547 456.145 336.971 457.168 335.948C458.191 334.924 458.767 333.537 458.77 332.09V60.66C458.767 59.2127 458.191 57.8255 457.168 56.8021C456.145 55.7787 454.757 55.2026 453.31 55.2H260.21Z" fill="#EBEBEB"/>
<path d="M453.11 282.3H46.8901V289.32H453.11V282.3Z" fill="#EBEBEB"/>
<path d="M112.68 246.63L387.31 246.63V80.9499L112.68 80.9499V246.63Z" fill="#F0F0F0"/>
<path d="M379.89 239.21V88.3701L120.1 88.3701V239.21L379.89 239.21Z" fill="#FAFAFA"/>
<path d="M337.82 239.21L290.48 88.3701H243.6L290.94 239.21H337.82Z" fill="white"/>
<path d="M276.41 239.21L229.07 88.3701H210.79L258.13 239.21H276.41Z" fill="white"/>
<path d="M121.05 239.21L121.05 88.3701H120.11L120.11 239.21H121.05Z" fill="#E6E6E6"/>
<path d="M449.66 289.32H50.3301V382.4H449.66V289.32Z" fill="#F5F5F5"/>
<path d="M285.82 289.32H258.93L214.18 382.4H241.07L285.82 289.32Z" fill="#FAFAFA"/>
<path d="M409.08 289.32H382.19L337.44 382.4H364.33L409.08 289.32Z" fill="#FAFAFA"/>
<path d="M248.83 289.32H221.94L177.2 382.4H204.09L248.83 289.32Z" fill="#FAFAFA"/>
<path d="M87.4198 276L78.9998 266.25V248.65C79.1634 248.645 79.3186 248.576 79.4324 248.458C79.5463 248.341 79.6099 248.184 79.6098 248.02C79.6098 247.85 79.5424 247.687 79.4224 247.567C79.3024 247.447 79.1396 247.38 78.9698 247.38H69.9998C69.8301 247.38 69.6673 247.447 69.5473 247.567C69.4273 247.687 69.3598 247.85 69.3598 248.02C69.3597 248.184 69.4234 248.341 69.5372 248.458C69.6511 248.576 69.8062 248.645 69.9698 248.65V266.25L61.5798 276C61.1038 276.55 60.7961 277.226 60.6936 277.946C60.5911 278.666 60.698 279.401 61.0017 280.062C61.3054 280.723 61.7929 281.283 62.4061 281.674C63.0194 282.066 63.7323 282.273 64.4598 282.27H84.5398C85.2674 282.273 85.9803 282.066 86.5935 281.674C87.2067 281.283 87.6943 280.723 87.998 280.062C88.3016 279.401 88.4086 278.666 88.3061 277.946C88.2036 277.226 87.8959 276.55 87.4198 276Z" fill="#F5F5F5"/>
<path d="M301.86 276L293.44 266.22V229.22C293.61 229.22 293.773 229.153 293.893 229.032C294.013 228.912 294.08 228.75 294.08 228.58C294.08 228.41 294.013 228.247 293.893 228.127C293.773 228.007 293.61 227.94 293.44 227.94H284.51C284.341 227.94 284.178 228.007 284.058 228.127C283.938 228.247 283.87 228.41 283.87 228.58C283.87 228.75 283.938 228.912 284.058 229.032C284.178 229.153 284.341 229.22 284.51 229.22V266.22L276 276C275.524 276.55 275.217 277.226 275.114 277.946C275.011 278.666 275.118 279.401 275.422 280.062C275.726 280.723 276.213 281.283 276.827 281.674C277.44 282.066 278.153 282.273 278.88 282.27H299C299.726 282.269 300.436 282.059 301.047 281.666C301.657 281.273 302.141 280.713 302.443 280.053C302.744 279.392 302.849 278.659 302.746 277.941C302.643 277.223 302.335 276.549 301.86 276Z" fill="#F5F5F5"/>
<path d="M213.01 282.25H143.33L148.83 212.56H213.01V282.25Z" fill="#E0E0E0"/>
<path d="M243.68 263.56H174L167.68 212.56H237.36L243.68 263.56Z" fill="#F0F0F0"/>
<path d="M243.68 263.56H174L195.76 282.3H265.44L243.68 263.56Z" fill="#F0F0F0"/>
<path d="M177.08 256.16L172.6 220C172.53 219.571 172.557 219.133 172.677 218.715C172.797 218.298 173.008 217.912 173.295 217.586C173.581 217.26 173.937 217.002 174.336 216.83C174.734 216.657 175.166 216.576 175.6 216.59H230.47C231.407 216.62 232.303 216.977 233.003 217.601C233.703 218.224 234.162 219.073 234.3 220L238.78 256.19C238.848 256.618 238.821 257.056 238.7 257.472C238.579 257.888 238.368 258.272 238.081 258.597C237.794 258.922 237.439 259.179 237.042 259.351C236.644 259.523 236.213 259.604 235.78 259.59H180.91C179.97 259.56 179.071 259.199 178.371 258.572C177.671 257.945 177.214 257.091 177.08 256.16Z" fill="#E0E0E0"/>
<path d="M360.84 282.25H418.41L413.87 224.69H360.84V282.25Z" fill="#E0E0E0"/>
<path d="M335.51 266.82H393.07L398.3 224.69H340.73L335.51 266.82Z" fill="#F0F0F0"/>
<path d="M335.51 266.82H393.07L375.1 282.3H317.53L335.51 266.82Z" fill="#F0F0F0"/>
<path d="M390.53 260.71L394.24 230.8C394.296 230.447 394.274 230.086 394.174 229.743C394.075 229.4 393.901 229.083 393.665 228.814C393.429 228.546 393.137 228.333 392.81 228.191C392.482 228.048 392.127 227.979 391.77 227.99H346.44C345.666 228.01 344.925 228.303 344.347 228.818C343.768 229.332 343.391 230.034 343.28 230.8L339.57 260.71C339.514 261.062 339.536 261.422 339.635 261.764C339.734 262.107 339.907 262.423 340.142 262.691C340.376 262.959 340.667 263.173 340.994 263.316C341.32 263.459 341.674 263.529 342.03 263.52H387.37C388.144 263.499 388.885 263.206 389.463 262.692C390.042 262.178 390.419 261.476 390.53 260.71Z" fill="#E0E0E0"/>
<path d="M250 427.56C357.082 427.56 443.89 422.492 443.89 416.24C443.89 409.988 357.082 404.92 250 404.92C142.917 404.92 56.1099 409.988 56.1099 416.24C56.1099 422.492 142.917 427.56 250 427.56Z" fill="#F5F5F5"/>
<path opacity="0.2" d="M87 125.32L140.66 330.32C142.31 336.553 146.359 341.88 151.925 345.137C157.49 348.394 164.118 349.315 170.36 347.7C176.593 346.05 181.92 342.001 185.177 336.435C188.434 330.87 189.355 324.242 187.74 318L134.08 113L87 125.32Z" fill="#407BFF"/>
<path d="M168.84 341.9C164.137 343.125 159.14 342.435 154.945 339.981C150.749 337.527 147.698 333.51 146.46 328.81L106 174.11C106 174.11 114.19 168.52 123.74 169.47C129.944 169.914 136.167 168.915 141.92 166.55L181.92 319.55C183.139 324.248 182.446 329.237 179.995 333.426C177.544 337.615 173.533 340.662 168.84 341.9Z" fill="#407BFF"/>
<path opacity="0.2" d="M143.52 262.12C143.52 262.969 143.269 263.798 142.797 264.503C142.326 265.209 141.656 265.759 140.872 266.084C140.088 266.408 139.226 266.493 138.393 266.328C137.561 266.162 136.797 265.754 136.197 265.154C135.597 264.554 135.188 263.789 135.023 262.957C134.857 262.125 134.942 261.262 135.267 260.478C135.592 259.694 136.142 259.024 136.847 258.553C137.553 258.082 138.382 257.83 139.23 257.83C140.367 257.833 141.457 258.286 142.261 259.09C143.065 259.893 143.518 260.983 143.52 262.12Z" fill="black"/>
<path d="M141.15 262.12C141.152 262.501 141.041 262.873 140.831 263.19C140.622 263.507 140.322 263.755 139.972 263.901C139.621 264.048 139.235 264.088 138.862 264.015C138.489 263.942 138.145 263.76 137.876 263.492C137.606 263.224 137.423 262.881 137.348 262.509C137.273 262.136 137.31 261.749 137.455 261.398C137.6 261.047 137.846 260.746 138.162 260.535C138.478 260.323 138.85 260.21 139.23 260.21C139.738 260.21 140.224 260.411 140.584 260.769C140.944 261.127 141.147 261.613 141.15 262.12Z" fill="#407BFF"/>
<path opacity="0.2" d="M144.64 216.33C144.642 216.835 144.494 217.33 144.214 217.751C143.935 218.171 143.537 218.5 143.07 218.694C142.604 218.888 142.091 218.94 141.595 218.842C141.099 218.743 140.644 218.5 140.287 218.143C139.93 217.786 139.687 217.331 139.589 216.835C139.49 216.339 139.542 215.826 139.736 215.36C139.93 214.893 140.259 214.495 140.68 214.216C141.1 213.936 141.595 213.788 142.1 213.79C142.773 213.793 143.417 214.061 143.893 214.537C144.369 215.013 144.637 215.657 144.64 216.33Z" fill="black"/>
<path d="M143.23 216.33C143.232 216.557 143.167 216.778 143.042 216.967C142.918 217.156 142.74 217.304 142.531 217.392C142.322 217.479 142.092 217.502 141.87 217.459C141.648 217.415 141.444 217.306 141.284 217.146C141.124 216.986 141.015 216.782 140.972 216.56C140.928 216.338 140.951 216.108 141.039 215.899C141.126 215.691 141.274 215.513 141.463 215.388C141.652 215.264 141.874 215.198 142.1 215.2C142.399 215.203 142.685 215.323 142.896 215.534C143.108 215.745 143.228 216.031 143.23 216.33Z" fill="#407BFF"/>
<path opacity="0.2" d="M154.75 315.17C157.788 315.17 160.25 312.708 160.25 309.67C160.25 306.633 157.788 304.17 154.75 304.17C151.712 304.17 149.25 306.633 149.25 309.67C149.25 312.708 151.712 315.17 154.75 315.17Z" fill="black"/>
<path d="M154.75 312.13C156.109 312.13 157.21 311.029 157.21 309.67C157.21 308.312 156.109 307.21 154.75 307.21C153.391 307.21 152.29 308.312 152.29 309.67C152.29 311.029 153.391 312.13 154.75 312.13Z" fill="#407BFF"/>
<path opacity="0.2" d="M160.15 288.38C161.879 288.38 163.28 286.979 163.28 285.25C163.28 283.521 161.879 282.12 160.15 282.12C158.421 282.12 157.02 283.521 157.02 285.25C157.02 286.979 158.421 288.38 160.15 288.38Z" fill="black"/>
<path d="M161.54 285.25C161.54 285.527 161.458 285.799 161.304 286.029C161.149 286.259 160.93 286.439 160.674 286.544C160.417 286.65 160.135 286.677 159.863 286.622C159.592 286.568 159.342 286.433 159.147 286.236C158.951 286.04 158.819 285.789 158.766 285.517C158.713 285.245 158.742 284.963 158.85 284.707C158.957 284.452 159.138 284.234 159.37 284.081C159.601 283.929 159.873 283.848 160.15 283.85C160.52 283.853 160.873 284.001 161.134 284.264C161.394 284.526 161.54 284.881 161.54 285.25Z" fill="#407BFF"/>
<path opacity="0.2" d="M169.49 328.68C171.517 328.68 173.16 327.037 173.16 325.01C173.16 322.983 171.517 321.34 169.49 321.34C167.463 321.34 165.82 322.983 165.82 325.01C165.82 327.037 167.463 328.68 169.49 328.68Z" fill="black"/>
<path d="M171.13 325C171.13 325.325 171.034 325.642 170.854 325.911C170.673 326.181 170.417 326.391 170.118 326.516C169.818 326.64 169.488 326.672 169.17 326.609C168.852 326.546 168.56 326.389 168.33 326.16C168.101 325.931 167.945 325.638 167.882 325.32C167.818 325.002 167.851 324.672 167.975 324.373C168.099 324.073 168.309 323.817 168.579 323.637C168.849 323.457 169.166 323.36 169.49 323.36C169.925 323.36 170.342 323.533 170.65 323.841C170.957 324.148 171.13 324.565 171.13 325Z" fill="#407BFF"/>
<path opacity="0.2" d="M145.9 237.87C145.9 238.719 145.649 239.548 145.177 240.253C144.706 240.959 144.036 241.509 143.252 241.834C142.468 242.158 141.606 242.243 140.773 242.078C139.941 241.912 139.177 241.504 138.577 240.904C137.977 240.304 137.568 239.539 137.403 238.707C137.237 237.875 137.322 237.012 137.647 236.228C137.972 235.444 138.521 234.774 139.227 234.303C139.932 233.832 140.762 233.58 141.61 233.58C142.748 233.58 143.839 234.032 144.644 234.837C145.448 235.641 145.9 236.732 145.9 237.87Z" fill="black"/>
<path d="M144.64 237.87C144.64 238.463 144.464 239.043 144.135 239.537C143.805 240.03 143.336 240.415 142.788 240.642C142.24 240.869 141.637 240.928 141.055 240.812C140.473 240.697 139.938 240.411 139.519 239.991C139.099 239.572 138.814 239.037 138.698 238.455C138.582 237.873 138.641 237.27 138.868 236.722C139.096 236.174 139.48 235.705 139.973 235.376C140.467 235.046 141.047 234.87 141.64 234.87C142.436 234.87 143.199 235.186 143.761 235.749C144.324 236.311 144.64 237.074 144.64 237.87Z" fill="#407BFF"/>
<path opacity="0.2" d="M155.64 255.11C155.64 255.704 155.464 256.284 155.135 256.777C154.805 257.27 154.336 257.655 153.788 257.882C153.24 258.109 152.637 258.168 152.055 258.053C151.473 257.937 150.938 257.651 150.519 257.232C150.099 256.812 149.814 256.278 149.698 255.696C149.582 255.114 149.641 254.51 149.868 253.962C150.096 253.414 150.48 252.946 150.973 252.616C151.467 252.286 152.047 252.11 152.64 252.11C153.436 252.11 154.199 252.426 154.761 252.989C155.324 253.552 155.64 254.315 155.64 255.11Z" fill="black"/>
<path d="M154.75 255.11C154.758 255.537 154.639 255.956 154.408 256.315C154.176 256.674 153.843 256.956 153.451 257.125C153.059 257.294 152.626 257.342 152.206 257.263C151.786 257.185 151.399 256.984 151.095 256.684C150.79 256.385 150.581 256.002 150.495 255.584C150.409 255.166 150.449 254.732 150.61 254.337C150.772 253.942 151.047 253.603 151.402 253.365C151.756 253.127 152.173 253 152.6 253C153.164 253 153.705 253.221 154.107 253.616C154.509 254.01 154.74 254.547 154.75 255.11Z" fill="#407BFF"/>
<path d="M124.973 137.438L106.912 142.166L123.12 204.08L141.182 199.351L124.973 137.438Z" fill="white"/>
<path d="M131.559 79.0109L130.592 79.2642L132.511 86.5971L133.479 86.3438L131.559 79.0109Z" fill="#407BFF"/>
<path d="M129.36 74.5402L125.3 59.0502C125.035 58.0345 124.441 57.1352 123.61 56.4929C122.78 55.8506 121.76 55.5016 120.71 55.5002C120.301 55.4986 119.894 55.5524 119.5 55.6602L110.37 58.0502L110.12 57.0502L119.25 54.6602C119.726 54.5326 120.217 54.4687 120.71 54.4702C121.982 54.4712 123.218 54.8937 124.224 55.6718C125.23 56.4499 125.949 57.5395 126.27 58.7702L130.27 74.2602L129.36 74.5402Z" fill="#407BFF"/>
<path d="M72.2497 70.6069L120.136 58.0709C120.71 57.9287 121.317 58.0184 121.826 58.3206C122.335 58.6227 122.704 59.113 122.853 59.6853L135.959 109.748L83.7196 123.424L70.6138 73.3609C70.5383 73.0726 70.5208 72.7722 70.5624 72.4771C70.604 72.182 70.7037 71.8981 70.8559 71.6419C71.0081 71.3857 71.2097 71.1622 71.449 70.9845C71.6882 70.8069 71.9604 70.6785 72.2497 70.6069Z" fill="#407BFF"/>
<path opacity="0.2" d="M97.4892 63.9898L94.9062 64.666L108.582 116.906L111.165 116.229L97.4892 63.9898Z" fill="black"/>
<path opacity="0.2" d="M107.261 61.9922L104.671 62.6597L118.171 115.04L120.761 114.372L107.261 61.9922Z" fill="black"/>
<path opacity="0.2" d="M116.827 58.9366L114.244 59.6128L127.92 111.852L130.503 111.176L116.827 58.9366Z" fill="black"/>
<path opacity="0.2" d="M87.8056 66.5284L85.2227 67.2046L98.8982 119.444L101.481 118.768L87.8056 66.5284Z" fill="black"/>
<path opacity="0.2" d="M78.144 69.0645L75.561 69.7407L89.2366 121.98L91.8196 121.304L78.144 69.0645Z" fill="black"/>
<path d="M135.07 106.19L82.8211 119.868C81.0419 120.334 79.9772 122.154 80.4429 123.933L82.2587 130.869C82.7245 132.648 84.5444 133.713 86.3235 133.247L138.573 119.569C140.352 119.103 141.417 117.284 140.951 115.504L139.135 108.568C138.669 106.789 136.85 105.724 135.07 106.19Z" fill="#407BFF"/>
<path d="M440.901 183.361L440.355 190.119L441.352 190.199L441.898 183.441L440.901 183.361Z" fill="#407BFF"/>
<path d="M443.161 155.931L441.54 175.996L442.537 176.077L444.158 156.012L443.161 155.931Z" fill="#407BFF"/>
<path d="M280.15 73.52L262.46 292.31L393.94 302.93L431.32 271.15L446.21 86.94L280.15 73.52Z" fill="white"/>
<path d="M393.94 303.85H393.86L262.39 293.22C262.269 293.211 262.15 293.178 262.042 293.123C261.933 293.068 261.837 292.991 261.759 292.898C261.68 292.805 261.621 292.697 261.586 292.58C261.55 292.464 261.538 292.341 261.55 292.22L279.23 73.4502C279.24 73.3292 279.274 73.2114 279.33 73.1036C279.386 72.9958 279.462 72.9001 279.555 72.822C279.648 72.7439 279.756 72.685 279.871 72.6486C279.987 72.6123 280.109 72.5992 280.23 72.6102L446.28 86.0002C446.402 86.009 446.52 86.042 446.629 86.0974C446.737 86.1527 446.833 86.2293 446.912 86.3226C446.99 86.4158 447.049 86.5238 447.085 86.6402C447.12 86.7566 447.132 86.8791 447.12 87.0002L432.23 271.2C432.222 271.32 432.189 271.437 432.134 271.543C432.079 271.65 432.003 271.744 431.91 271.82L394.53 303.61C394.369 303.759 394.159 303.845 393.94 303.85ZM263.45 291.47L393.63 302L430.44 270.7L445.22 87.7802L281 74.5102L263.45 291.47Z" fill="#407BFF"/>
<path opacity="0.2" d="M390.22 270.42L393.94 302.93L431.32 271.15L390.22 270.42Z" fill="#407BFF"/>
<path d="M396.73 268.35L393.94 302.93L431.32 271.15L396.73 268.35Z" fill="white"/>
<path d="M393.94 303.85C393.794 303.851 393.65 303.817 393.52 303.75C393.358 303.668 393.224 303.539 393.135 303.381C393.047 303.222 393.006 303.041 393.02 302.86L395.82 268.28C395.828 268.159 395.861 268.041 395.916 267.932C395.971 267.824 396.047 267.728 396.14 267.65C396.232 267.572 396.339 267.512 396.454 267.476C396.569 267.44 396.69 267.428 396.81 267.44L431.39 270.23C431.571 270.245 431.743 270.312 431.885 270.424C432.028 270.536 432.134 270.688 432.19 270.86C432.248 271.036 432.253 271.225 432.203 271.403C432.153 271.581 432.051 271.74 431.91 271.86L394.53 303.65C394.365 303.787 394.155 303.859 393.94 303.85ZM397.57 269.34L395 300.8L429 271.88L397.57 269.34Z" fill="#407BFF"/>
<path d="M360.94 111.48H360.65C359.803 111.411 359.018 111.009 358.467 110.363C357.916 109.716 357.644 108.877 357.71 108.03L358.39 99.6402C358.424 99.22 358.539 98.8105 358.731 98.435C358.923 98.0596 359.187 97.7256 359.508 97.4521C359.828 97.1787 360.2 96.9711 360.601 96.8412C361.002 96.7113 361.425 96.6617 361.845 96.6952C362.265 96.7287 362.675 96.8446 363.05 97.0364C363.426 97.2281 363.76 97.4919 364.033 97.8128C364.307 98.1336 364.514 98.5052 364.644 98.9062C364.774 99.3073 364.824 99.73 364.79 100.15L364.11 108.54C364.043 109.337 363.681 110.08 363.094 110.624C362.508 111.168 361.74 111.473 360.94 111.48Z" fill="#407BFF"/>
<path d="M365.81 103.43H365.53L357.14 102.75C356.704 102.739 356.274 102.64 355.878 102.457C355.481 102.275 355.126 102.014 354.834 101.689C354.542 101.365 354.319 100.985 354.179 100.571C354.039 100.158 353.985 99.7207 354.019 99.2857C354.054 98.8507 354.177 98.4273 354.381 98.0415C354.585 97.6556 354.865 97.3154 355.205 97.0416C355.545 96.7678 355.937 96.5661 356.357 96.4489C356.778 96.3318 357.217 96.3015 357.65 96.3601L366 97.0001C366.808 97.0862 367.553 97.4754 368.085 98.0891C368.617 98.7028 368.897 99.4955 368.867 100.307C368.838 101.119 368.502 101.89 367.928 102.464C367.353 103.037 366.582 103.372 365.77 103.4L365.81 103.43Z" fill="#407BFF"/>
<path d="M353.66 201.48H353.38C352.96 201.448 352.551 201.332 352.176 201.141C351.801 200.95 351.467 200.686 351.194 200.366C350.921 200.045 350.714 199.674 350.584 199.273C350.455 198.872 350.406 198.45 350.44 198.03L351.12 189.64C351.131 189.204 351.231 188.775 351.413 188.378C351.595 187.982 351.857 187.627 352.181 187.335C352.505 187.043 352.886 186.82 353.299 186.68C353.712 186.54 354.15 186.485 354.585 186.52C355.02 186.555 355.443 186.678 355.829 186.882C356.215 187.085 356.555 187.366 356.829 187.706C357.103 188.045 357.304 188.437 357.421 188.858C357.539 189.278 357.569 189.718 357.51 190.15L356.83 198.54C356.765 199.338 356.404 200.082 355.817 200.627C355.23 201.171 354.461 201.476 353.66 201.48Z" fill="#407BFF"/>
<path d="M357.86 201.82H357.57L349.18 201.14C348.745 201.128 348.316 201.027 347.921 200.843C347.526 200.66 347.172 200.398 346.881 200.074C346.59 199.749 346.369 199.369 346.23 198.956C346.091 198.543 346.037 198.106 346.073 197.671C346.108 197.237 346.231 196.814 346.435 196.429C346.639 196.044 346.919 195.705 347.259 195.431C347.598 195.158 347.99 194.957 348.409 194.84C348.829 194.723 349.268 194.692 349.7 194.75L358.09 195.43C358.898 195.517 359.643 195.906 360.175 196.519C360.707 197.133 360.987 197.926 360.958 198.738C360.929 199.549 360.593 200.32 360.018 200.894C359.443 201.468 358.672 201.802 357.86 201.83V201.82Z" fill="#407BFF"/>
<path d="M406.83 156.27H406.55L398.16 155.59C397.311 155.521 396.525 155.118 395.973 154.469C395.422 153.82 395.151 152.979 395.22 152.13C395.289 151.282 395.692 150.495 396.341 149.944C396.99 149.392 397.831 149.121 398.68 149.19L407.07 149.87C407.896 149.935 408.664 150.317 409.215 150.936C409.766 151.555 410.056 152.363 410.025 153.19C409.994 154.018 409.644 154.802 409.049 155.378C408.453 155.954 407.658 156.277 406.83 156.28V156.27Z" fill="#407BFF"/>
<path d="M406.5 160.46H406.21C405.79 160.426 405.381 160.31 405.005 160.117C404.63 159.925 404.297 159.661 404.024 159.339C403.751 159.018 403.544 158.646 403.414 158.245C403.285 157.844 403.236 157.421 403.27 157L403.95 148.61C404.06 147.796 404.478 147.054 405.118 146.538C405.759 146.023 406.573 145.773 407.392 145.839C408.211 145.906 408.974 146.284 409.523 146.897C410.071 147.509 410.364 148.309 410.34 149.13L409.67 157.52C409.603 158.317 409.241 159.06 408.655 159.604C408.068 160.148 407.3 160.453 406.5 160.46Z" fill="#407BFF"/>
<path d="M316.83 149H316.55L308.16 148.32C307.725 148.308 307.296 148.207 306.901 148.023C306.506 147.84 306.152 147.578 305.861 147.253C305.57 146.929 305.349 146.548 305.21 146.135C305.071 145.722 305.017 145.285 305.053 144.851C305.088 144.417 305.211 143.994 305.415 143.609C305.619 143.224 305.899 142.884 306.239 142.611C306.578 142.338 306.97 142.137 307.389 142.019C307.809 141.902 308.248 141.872 308.68 141.93L317.07 142.61C317.878 142.697 318.623 143.087 319.155 143.702C319.687 144.316 319.966 145.11 319.935 145.922C319.905 146.734 319.567 147.505 318.991 148.078C318.415 148.651 317.642 148.984 316.83 149.01V149Z" fill="#407BFF"/>
<path d="M308.11 152.51H307.82C307.4 152.476 306.991 152.36 306.615 152.167C306.24 151.975 305.906 151.711 305.633 151.389C305.36 151.068 305.153 150.696 305.024 150.295C304.895 149.893 304.846 149.47 304.88 149.05L305.56 140.66C305.573 140.225 305.674 139.796 305.857 139.401C306.041 139.006 306.303 138.652 306.627 138.361C306.952 138.07 307.332 137.849 307.745 137.71C308.158 137.571 308.595 137.517 309.029 137.553C309.464 137.588 309.886 137.711 310.271 137.915C310.656 138.119 310.996 138.399 311.269 138.739C311.542 139.078 311.744 139.47 311.861 139.889C311.978 140.309 312.008 140.748 311.95 141.18L311.28 149.57C311.213 150.367 310.851 151.11 310.264 151.654C309.678 152.198 308.91 152.503 308.11 152.51Z" fill="#407BFF"/>
<path d="M331.12 121.1C330.65 121.107 330.185 121.009 329.757 120.814C329.33 120.619 328.952 120.33 328.65 119.97L323.19 113.56C322.638 112.912 322.367 112.071 322.435 111.222C322.504 110.373 322.906 109.587 323.555 109.035C324.203 108.483 325.044 108.212 325.893 108.28C326.742 108.349 327.528 108.752 328.08 109.4L333.54 115.82C334.089 116.469 334.359 117.309 334.29 118.157C334.22 119.004 333.818 119.789 333.17 120.34C332.599 120.829 331.872 121.099 331.12 121.1Z" fill="#407BFF"/>
<path d="M322.46 117.42C321.802 117.425 321.158 117.228 320.615 116.854C320.073 116.481 319.659 115.95 319.428 115.333C319.198 114.717 319.163 114.044 319.328 113.407C319.493 112.769 319.849 112.198 320.35 111.77L326.77 106.31C327.088 106.015 327.462 105.788 327.87 105.641C328.278 105.495 328.712 105.433 329.144 105.458C329.577 105.484 330 105.597 330.388 105.791C330.776 105.985 331.121 106.255 331.401 106.586C331.682 106.916 331.893 107.3 332.021 107.714C332.149 108.129 332.192 108.565 332.147 108.996C332.102 109.427 331.97 109.845 331.759 110.224C331.548 110.602 331.263 110.935 330.92 111.2L324.51 116.65C323.937 117.138 323.212 117.41 322.46 117.42Z" fill="#407BFF"/>
<path d="M389.61 189.89C389.141 189.892 388.678 189.792 388.251 189.596C387.825 189.401 387.446 189.116 387.14 188.76L381.69 182.35C381.417 182.029 381.21 181.657 381.08 181.256C380.951 180.855 380.902 180.432 380.936 180.012C380.97 179.592 381.086 179.182 381.278 178.807C381.47 178.432 381.734 178.098 382.055 177.825C382.376 177.552 382.748 177.345 383.149 177.215C383.551 177.086 383.973 177.037 384.393 177.07C384.814 177.104 385.223 177.221 385.598 177.413C385.973 177.605 386.307 177.869 386.58 178.19L392 184.6C392.392 185.067 392.643 185.635 392.725 186.238C392.807 186.842 392.716 187.456 392.462 188.01C392.209 188.564 391.804 189.034 391.294 189.367C390.783 189.7 390.189 189.881 389.58 189.89H389.61Z" fill="#407BFF"/>
<path d="M386.41 192.61C385.94 192.617 385.475 192.52 385.048 192.324C384.62 192.129 384.242 191.84 383.94 191.48C383.666 191.16 383.458 190.789 383.328 190.388C383.198 189.988 383.148 189.565 383.181 189.145C383.215 188.725 383.331 188.316 383.523 187.941C383.715 187.566 383.979 187.233 384.3 186.96L390.71 181.51C391.359 180.959 392.2 180.687 393.048 180.756C393.897 180.824 394.684 181.227 395.235 181.875C395.787 182.524 396.058 183.365 395.99 184.213C395.921 185.062 395.519 185.849 394.87 186.4L388.46 191.85C387.889 192.339 387.162 192.609 386.41 192.61Z" fill="#407BFF"/>
<path d="M388.82 125.77C388.162 125.773 387.52 125.574 386.979 125.2C386.439 124.826 386.026 124.295 385.797 123.678C385.568 123.062 385.533 122.39 385.699 121.754C385.864 121.118 386.22 120.547 386.72 120.12L393.13 114.66C393.778 114.108 394.619 113.837 395.468 113.905C396.317 113.974 397.103 114.377 397.655 115.025C398.207 115.674 398.478 116.515 398.41 117.363C398.341 118.212 397.938 118.998 397.29 119.55L390.88 125C390.304 125.49 389.576 125.762 388.82 125.77Z" fill="#407BFF"/>
<path d="M398 123.52C397.532 123.524 397.069 123.425 396.644 123.23C396.218 123.035 395.842 122.748 395.54 122.39L390 116C389.727 115.679 389.52 115.307 389.39 114.906C389.261 114.505 389.211 114.082 389.245 113.662C389.279 113.242 389.395 112.832 389.588 112.457C389.78 112.082 390.044 111.748 390.365 111.475C390.686 111.202 391.058 110.995 391.459 110.865C391.86 110.736 392.283 110.686 392.703 110.72C393.123 110.754 393.533 110.871 393.908 111.063C394.283 111.255 394.617 111.519 394.89 111.84L400.34 118.25C400.74 118.714 400.999 119.283 401.085 119.889C401.171 120.496 401.082 121.114 400.827 121.671C400.572 122.228 400.163 122.7 399.647 123.032C399.132 123.363 398.532 123.539 397.92 123.54L398 123.52Z" fill="#407BFF"/>
<path d="M320 184.26C319.53 184.267 319.065 184.17 318.638 183.974C318.21 183.779 317.832 183.49 317.53 183.13C317.257 182.81 317.05 182.438 316.92 182.037C316.791 181.636 316.742 181.213 316.776 180.793C316.811 180.373 316.928 179.964 317.121 179.59C317.313 179.215 317.578 178.882 317.9 178.61L324.31 173.16C324.628 172.865 325.002 172.638 325.41 172.491C325.818 172.345 326.252 172.283 326.685 172.308C327.118 172.334 327.541 172.447 327.929 172.641C328.317 172.835 328.661 173.105 328.942 173.436C329.222 173.766 329.433 174.15 329.561 174.564C329.689 174.979 329.732 175.415 329.687 175.846C329.642 176.277 329.51 176.695 329.299 177.074C329.088 177.452 328.803 177.785 328.46 178.05L322.05 183.5C321.481 183.993 320.753 184.262 320 184.26Z" fill="#407BFF"/>
<path d="M322.77 187.47C322.301 187.475 321.836 187.376 321.409 187.18C320.983 186.985 320.604 186.698 320.3 186.34L314.84 179.93C314.289 179.282 314.017 178.441 314.086 177.592C314.154 176.743 314.557 175.957 315.205 175.405C315.854 174.854 316.695 174.582 317.543 174.651C318.392 174.719 319.179 175.122 319.73 175.77L325.18 182.18C325.454 182.501 325.663 182.873 325.793 183.274C325.923 183.676 325.973 184.099 325.94 184.52C325.906 184.941 325.79 185.351 325.598 185.727C325.406 186.102 325.142 186.437 324.82 186.71C324.244 187.191 323.521 187.46 322.77 187.47Z" fill="#407BFF"/>
<path d="M358 191.85C356.73 191.85 355.46 191.85 354.18 191.71C345.748 191.03 337.707 187.864 331.074 182.614C324.441 177.363 319.514 170.263 316.916 162.212C314.318 154.162 314.166 145.521 316.48 137.384C318.793 129.247 323.467 121.978 329.911 116.498C336.356 111.017 344.28 107.571 352.684 106.594C361.087 105.618 369.59 107.156 377.12 111.013C384.649 114.87 390.865 120.873 394.982 128.263C399.1 135.653 400.933 144.098 400.25 152.53C399.389 163.176 394.576 173.114 386.757 180.391C378.939 187.667 368.68 191.755 358 191.85ZM357.31 110C347.117 110.097 337.366 114.181 330.147 121.378C322.927 128.575 318.813 138.313 318.684 148.506C318.555 158.699 322.422 168.537 329.458 175.914C336.493 183.291 346.137 187.62 356.325 187.975C366.513 188.329 376.434 184.68 383.965 177.81C391.496 170.94 396.038 161.394 396.618 151.216C397.197 141.039 393.769 131.039 387.067 123.358C380.365 115.677 370.922 110.925 360.76 110.12C359.587 110.04 358.437 110 357.31 110Z" fill="#407BFF"/>
<path opacity="0.2" d="M372.34 154.64C371.94 154.64 371.54 154.64 371.15 154.64C367.618 154.356 364.342 152.681 362.045 149.982C359.748 147.283 358.617 143.783 358.9 140.25C359.184 136.717 360.86 133.442 363.558 131.145C366.257 128.847 369.758 127.716 373.29 128C376.723 128.266 379.92 129.851 382.211 132.422C384.502 134.992 385.709 138.35 385.58 141.79C385.45 145.231 383.995 148.489 381.517 150.88C379.04 153.272 375.734 154.612 372.29 154.62L372.34 154.64ZM372.15 132.93C370.522 132.942 368.933 133.429 367.576 134.33C366.22 135.231 365.156 136.507 364.513 138.003C363.871 139.5 363.678 141.151 363.959 142.754C364.24 144.358 364.981 145.846 366.094 147.035C367.206 148.224 368.641 149.063 370.223 149.45C371.804 149.837 373.465 149.754 375 149.213C376.536 148.671 377.88 147.694 378.87 146.401C379.859 145.107 380.45 143.554 380.57 141.93C380.744 139.718 380.033 137.528 378.593 135.84C377.153 134.153 375.102 133.106 372.89 132.93C372.65 132.94 372.4 132.93 372.15 132.93Z" fill="#407BFF"/>
<path opacity="0.4" d="M342.15 145.85C342.038 147.323 341.492 148.729 340.58 149.891C339.669 151.053 338.433 151.918 337.029 152.377C335.625 152.836 334.116 152.868 332.695 152.468C331.273 152.069 330.001 151.257 329.041 150.134C328.082 149.012 327.477 147.629 327.303 146.163C327.13 144.696 327.395 143.211 328.067 141.895C328.738 140.58 329.785 139.493 331.074 138.773C332.364 138.053 333.838 137.732 335.31 137.85C337.276 138.009 339.1 138.939 340.382 140.438C341.663 141.938 342.299 143.883 342.15 145.85Z" fill="#407BFF"/>
<path opacity="0.2" d="M362.29 169.81C362.206 170.849 361.815 171.839 361.168 172.656C360.521 173.473 359.646 174.079 358.654 174.399C357.662 174.719 356.598 174.737 355.596 174.452C354.593 174.167 353.698 173.591 353.023 172.797C352.348 172.003 351.923 171.027 351.803 169.992C351.682 168.957 351.872 167.909 352.347 166.982C352.822 166.054 353.561 165.288 354.471 164.78C355.381 164.273 356.421 164.047 357.46 164.13C358.853 164.245 360.144 164.907 361.049 165.972C361.955 167.037 362.401 168.417 362.29 169.81Z" fill="#407BFF"/>
<path opacity="0.2" d="M314.31 239H314.15L291.51 237.17C291.268 237.151 291.031 237.085 290.815 236.973C290.599 236.862 290.407 236.709 290.251 236.523C290.094 236.337 289.976 236.121 289.904 235.889C289.832 235.657 289.807 235.412 289.83 235.17L291.66 212.53C291.68 212.288 291.748 212.053 291.86 211.837C291.971 211.621 292.125 211.43 292.31 211.274C292.496 211.118 292.711 211 292.943 210.927C293.175 210.854 293.418 210.828 293.66 210.85L316.29 212.68C316.532 212.7 316.768 212.768 316.983 212.88C317.199 212.991 317.39 213.145 317.547 213.331C317.703 213.516 317.821 213.731 317.893 213.963C317.966 214.195 317.992 214.438 317.97 214.68L316.14 237.31C316.122 237.551 316.055 237.785 315.946 238C315.836 238.214 315.684 238.405 315.5 238.56C315.167 238.842 314.746 238.998 314.31 239ZM293.63 233.65L312.63 235.19L314.16 216.19L295.16 214.65L293.63 233.65Z" fill="#263238"/>
<path d="M400.75 230H400.59L326.65 224C326.166 223.961 325.717 223.73 325.403 223.36C325.089 222.989 324.935 222.509 324.975 222.025C325.015 221.541 325.245 221.093 325.616 220.779C325.986 220.465 326.466 220.311 326.95 220.35L400.88 226.35C401.12 226.359 401.356 226.415 401.575 226.515C401.794 226.614 401.991 226.756 402.155 226.932C402.319 227.108 402.446 227.315 402.53 227.54C402.615 227.765 402.653 228.005 402.645 228.245C402.636 228.486 402.581 228.722 402.481 228.941C402.381 229.16 402.239 229.356 402.063 229.52C401.887 229.684 401.68 229.812 401.455 229.896C401.23 229.98 400.99 230.019 400.75 230.01V230Z" fill="#E0E0E0"/>
<path d="M349.77 235.1H349.61L325.91 233.19C325.659 233.186 325.411 233.13 325.181 233.026C324.952 232.922 324.747 232.772 324.578 232.586C324.409 232.399 324.28 232.18 324.199 231.941C324.118 231.703 324.087 231.451 324.108 231.2C324.128 230.949 324.2 230.705 324.319 230.483C324.437 230.261 324.6 230.066 324.797 229.909C324.994 229.753 325.221 229.638 325.464 229.573C325.707 229.508 325.961 229.493 326.21 229.53L349.91 231.45C350.396 231.469 350.854 231.679 351.184 232.035C351.514 232.392 351.689 232.865 351.67 233.35C351.652 233.835 351.441 234.293 351.085 234.623C350.729 234.954 350.256 235.129 349.77 235.11V235.1Z" fill="#E0E0E0"/>
<path d="M384.66 237.92H384.5L364 236.26C363.516 236.22 363.068 235.99 362.753 235.62C362.439 235.249 362.285 234.769 362.325 234.285C362.365 233.801 362.595 233.353 362.966 233.039C363.336 232.725 363.816 232.57 364.3 232.61L384.75 234.26C385.235 234.277 385.694 234.487 386.025 234.842C386.356 235.197 386.532 235.67 386.515 236.155C386.498 236.641 386.288 237.099 385.933 237.43C385.578 237.761 385.105 237.937 384.62 237.92H384.66Z" fill="#E0E0E0"/>
<path opacity="0.2" d="M311.06 279.24H310.9L288.26 277.41C288.018 277.391 287.781 277.325 287.565 277.213C287.349 277.102 287.157 276.949 287.001 276.763C286.844 276.577 286.726 276.361 286.654 276.129C286.582 275.897 286.557 275.652 286.58 275.41L288.41 252.78C288.43 252.538 288.498 252.303 288.61 252.087C288.721 251.871 288.875 251.68 289.06 251.524C289.246 251.368 289.461 251.25 289.693 251.177C289.925 251.104 290.168 251.078 290.41 251.1L313 253C313.243 253.019 313.479 253.086 313.695 253.197C313.912 253.308 314.103 253.462 314.26 253.648C314.416 253.834 314.534 254.049 314.606 254.282C314.678 254.514 314.704 254.758 314.68 255L312.85 277.64C312.808 278.125 312.579 278.573 312.21 278.89C311.878 279.135 311.472 279.259 311.06 279.24ZM290.38 273.9L309.38 275.44L310.91 256.44L291.91 254.9L290.38 273.9Z" fill="#263238"/>
<path d="M384.23 269.17H384.07L323.4 264.26C322.916 264.22 322.467 263.99 322.153 263.62C321.839 263.249 321.685 262.769 321.725 262.285C321.765 261.801 321.995 261.353 322.366 261.039C322.736 260.725 323.216 260.57 323.7 260.61L384.37 265.51C384.855 265.529 385.313 265.739 385.643 266.096C385.973 266.452 386.148 266.925 386.13 267.41C386.111 267.896 385.901 268.354 385.544 268.684C385.188 269.014 384.715 269.189 384.23 269.17Z" fill="#E0E0E0"/>
<path d="M359.92 276.4H359.76L322.66 273.4C322.409 273.396 322.161 273.34 321.931 273.236C321.702 273.132 321.497 272.983 321.328 272.796C321.159 272.609 321.03 272.39 320.949 272.152C320.868 271.914 320.837 271.661 320.858 271.41C320.878 271.16 320.95 270.916 321.069 270.694C321.187 270.472 321.35 270.276 321.547 270.12C321.744 269.963 321.971 269.849 322.214 269.784C322.457 269.718 322.711 269.704 322.96 269.74L360.05 272.74C360.536 272.758 360.994 272.967 361.325 273.322C361.656 273.678 361.833 274.15 361.815 274.635C361.798 275.121 361.589 275.579 361.233 275.91C360.878 276.241 360.406 276.418 359.92 276.4Z" fill="#E0E0E0"/>
<path opacity="0.3" d="M179.456 223.11C187.226 200.219 171.568 174.209 144.484 165.015C117.399 155.821 89.1429 166.924 81.3726 189.815C73.6023 212.706 89.2598 238.715 116.345 247.91C143.43 257.104 171.685 246 179.456 223.11Z" fill="#407BFF"/>
<path opacity="0.3" d="M159.593 175.11L148.727 163.862L86.6729 223.808L97.5393 235.056L159.593 175.11Z" fill="white"/>
<path opacity="0.3" d="M173.762 186.657L165.278 177.875L101.786 239.211L110.269 247.992L173.762 186.657Z" fill="white"/>
<path d="M135.65 254.68C128.698 254.657 121.798 253.498 115.22 251.25C101.34 246.53 89.8298 237.5 82.7998 225.82C75.6498 213.95 73.9698 200.82 78.0698 188.71C82.1698 176.6 91.5198 167.21 104.42 162.14C117.11 157.14 131.74 157 145.62 161.72C159.5 166.44 171.02 175.46 178.05 187.14C185.19 199.01 186.87 212.19 182.78 224.26C178.69 236.33 169.32 245.76 156.43 250.82C149.806 253.398 142.757 254.707 135.65 254.68ZM125.19 165.29C118.97 165.265 112.8 166.405 107 168.65C95.9998 173 88.1198 180.88 84.6998 191C81.2798 201.12 82.6998 212.18 88.7898 222.25C94.9698 232.52 105.16 240.48 117.47 244.66C129.78 248.84 142.72 248.73 153.87 244.35C164.81 240.05 172.73 232.13 176.15 222.05C179.57 211.97 178.15 200.87 172.05 190.79C165.87 180.52 155.69 172.57 143.37 168.39C137.52 166.371 131.378 165.323 125.19 165.29Z" fill="#263238"/>
<path d="M183.21 218.41C190.031 219.198 196.806 220.336 203.51 221.82C210.17 223.24 216.77 224.88 223.3 226.68C229.83 228.48 236.3 230.45 242.76 232.55C245.95 233.68 249.28 234.43 252.24 236.22C253.788 237.136 255.216 238.241 256.49 239.51C257.189 240.2 257.834 240.942 258.42 241.73C259.087 242.606 259.663 243.548 260.14 244.54C261.065 246.45 261.201 248.647 260.52 250.656C259.839 252.666 258.395 254.327 256.5 255.28C255.512 255.776 254.477 256.171 253.41 256.46C252.469 256.725 251.51 256.919 250.54 257.04C248.754 257.27 246.946 257.27 245.16 257.04C241.72 256.66 238.63 255.23 235.41 254.19C229.02 251.94 222.68 249.56 216.41 246.99C210.14 244.42 203.9 241.73 197.74 238.8C191.522 235.893 185.457 232.669 179.57 229.14C178.444 228.45 177.587 227.398 177.138 226.156C176.689 224.915 176.676 223.557 177.101 222.307C177.525 221.057 178.362 219.988 179.474 219.277C180.586 218.565 181.907 218.252 183.22 218.39L183.21 218.41Z" fill="#263238"/>
<path opacity="0.1" d="M244 147.57C244.72 151.66 243.05 154.71 240.27 154.38C237.49 154.05 234.66 150.48 233.95 146.38C233.24 142.28 234.95 139.24 237.68 139.57C240.41 139.9 243.26 143.48 244 147.57Z" fill="#407BFF"/>
<path d="M259 412C267.27 411.36 271.47 406.06 270.82 400.1C270.46 396.81 280.99 395.74 280.99 395.74C279.44 406.13 281.71 407.8 282.1 410.47C282.49 413.14 282.27 416.04 280.1 416.09C277.48 416.16 276.3 415.66 273.04 415.79C269.23 415.93 266.66 416.08 259.9 416.09C257.21 416.11 255.35 412.3 259 412Z" fill="#263238"/>
<path d="M333.22 406C338.11 397.63 334.09 392.13 330.56 387.58C328.47 384.89 338.5 381.48 338.5 381.48C341 387.77 343.5 387.69 346 389.08C348.5 390.47 349.93 392.78 348.56 394.47C346.91 396.47 345.45 396.32 343.51 398.9C341.24 401.9 338.82 405.81 335.64 409.05C333.75 411 331.38 409.12 333.22 406Z" fill="#263238"/>
<path d="M237.14 236.73C237.14 236.73 238.53 278.73 248.79 313.73C253.26 343.99 270.71 401.17 270.71 401.17C274.33 402.035 278.106 402 281.71 401.07C281.71 401.07 287.3 356.93 275.56 309.07C283.19 258.02 278 231.96 278 231.96L237.14 236.73Z" fill="#407BFF"/>
<path d="M253.27 234.8C253.27 234.8 270.8 292.57 284.27 319.29C298.43 347.35 328.94 387.29 330.35 389.06C334.23 387.21 337.62 385.11 339.65 382.28C339.65 382.28 327.99 337.98 310.76 307.8C297.21 241.3 288.18 230.64 288.18 230.64L253.27 234.8Z" fill="#407BFF"/>
<path d="M263.5 151.23C262.76 157.16 262.5 166.71 265.35 171.44C265.35 171.44 257.79 172.73 247.96 182.7C241.96 175.79 246.8 173.7 246.8 173.7C251.19 172.1 251.25 166.53 250.73 162.24L263.5 151.23Z" fill="#FFC3BD"/>
<path d="M231.75 190.32C230.62 183.41 234.7 177.78 243.27 174.82C251.17 172.1 262.51 170.11 270.34 171.23C278.17 172.35 281.04 176.23 280.52 182.13C278.28 207.73 288.07 222.81 288.2 230.64C269.78 235.34 241.67 239.29 237.14 236.73C233.83 233.24 234.47 211.47 235.5 208.15C227.33 203.86 232.38 194.17 231.75 190.32Z" fill="#407BFF"/>
<path d="M239.53 147.4C239.65 148.17 239.34 148.87 238.83 148.95C238.32 149.03 237.83 148.47 237.68 147.69C237.53 146.91 237.87 146.21 238.38 146.13C238.89 146.05 239.4 146.62 239.53 147.4Z" fill="#263238"/>
<path d="M238.61 146.14L236.61 145.9C236.61 145.9 237.85 147.21 238.61 146.14Z" fill="#263238"/>
<path d="M239.5 149C239.082 150.886 238.409 152.706 237.5 154.41C237.94 154.631 238.424 154.753 238.916 154.767C239.409 154.781 239.898 154.686 240.35 154.49L239.5 149Z" fill="#ED847E"/>
<path d="M237.05 143.27C236.972 143.223 236.91 143.153 236.872 143.071C236.833 142.988 236.82 142.896 236.834 142.807C236.848 142.717 236.888 142.633 236.95 142.566C237.011 142.499 237.091 142.452 237.18 142.43C237.887 142.23 238.633 142.202 239.353 142.35C240.074 142.498 240.748 142.817 241.32 143.28C241.406 143.366 241.454 143.483 241.454 143.605C241.454 143.727 241.406 143.844 241.32 143.93C241.278 143.974 241.227 144.009 241.171 144.033C241.116 144.056 241.055 144.069 240.995 144.069C240.934 144.069 240.874 144.056 240.818 144.033C240.762 144.009 240.712 143.974 240.67 143.93C240.212 143.573 239.676 143.329 239.106 143.217C238.536 143.106 237.948 143.131 237.39 143.29C237.278 143.328 237.156 143.321 237.05 143.27Z" fill="#263238"/>
<path d="M264.84 142.06C265.78 151.71 266.38 155.78 262.42 161.44C256.47 169.95 244.63 168.94 240.88 159.75C237.51 151.48 236.54 137.09 245.11 131.83C253.68 126.57 263.9 132.41 264.84 142.06Z" fill="#FFC3BD"/>
<path d="M245 148.11C241.49 148.62 240 143.26 241.2 140.9C237.06 140.77 236.34 137.03 237.68 134.28C239.02 131.53 242.37 125.43 254.43 127.28C266.49 129.13 270.43 139.62 269.38 144.03C268.33 148.44 270.49 160.84 259.22 162.88C247.95 164.92 241.09 153.75 245 148.11Z" fill="#263238"/>
<path d="M285.55 172C279.39 166 256.08 169 239.12 174.4C222.16 179.8 226.39 196.82 227.86 208.68C229.33 220.54 238.2 304.24 248.38 334.68C273.1 334.99 310.85 326.68 321.33 321.27C317.22 310.37 295.17 225.58 291.55 203.27C289.79 192.39 292.05 178.3 285.55 172Z" fill="#407BFF"/>
<path opacity="0.6" d="M285.55 172C279.39 166 256.08 169 239.12 174.4C222.16 179.8 226.39 196.82 227.86 208.68C229.33 220.54 238.2 304.24 248.38 334.68C273.1 334.99 310.85 326.68 321.33 321.27C317.22 310.37 295.17 225.58 291.55 203.27C289.79 192.39 292.05 178.3 285.55 172Z" fill="white"/>
<path opacity="0.5" d="M229.34 221.27C232.74 216.87 235.67 212.61 236.59 209.98C239.87 200.57 235.44 226.26 231.54 239.62C230.67 232.64 229.93 226.38 229.34 221.27Z" fill="#407BFF"/>
<path d="M201.19 226.85L204.75 230.45C206.66 235.71 199.18 238.61 199.18 238.61L195.82 241.45C195.317 241.922 194.654 242.184 193.965 242.184C193.275 242.184 192.612 241.922 192.11 241.45L189.61 238.95C189.054 238.352 188.745 237.566 188.745 236.75C188.745 235.934 189.054 235.148 189.61 234.55L192.21 231.67C192.94 230.845 193.836 230.184 194.84 229.73L201.19 226.85Z" fill="#407BFF"/>
<path d="M202.63 226.47C198.63 224.72 194.97 227.81 191.63 229.4C191.06 229.67 190.87 231.31 191.87 231.49C192.514 231.644 193.183 231.669 193.837 231.563C194.491 231.456 195.118 231.221 195.68 230.87C196.52 231.95 200.01 233.78 203.49 230.62C203.76 229.177 203.451 227.687 202.63 226.47Z" fill="#407BFF"/>
<path d="M249.94 190.06L249.45 192.38L248.92 194.57C248.56 196.02 248.18 197.46 247.8 198.89C247 201.76 246.13 204.62 245.16 207.46C244.19 210.3 243.16 213.13 241.97 215.96C241.4 217.38 240.76 218.8 240.12 220.21L239.12 222.33L238.51 223.56C238.24 224.11 237.94 224.63 237.63 225.15C235.098 229.328 231.331 232.616 226.85 234.56L226.43 234.74L226.12 234.86L225.52 235.08L224.31 235.51L221.95 236.25L219.65 236.89L217.38 237.44C214.38 238.12 211.38 238.64 208.44 239.05C206.96 239.25 205.49 239.42 204.01 239.58C202.53 239.74 201.09 239.86 199.49 239.95L197 225.36L200.8 224.16C202.09 223.75 203.37 223.31 204.64 222.87C207.18 222.01 209.64 221.11 212.07 220.15L213.83 219.42L215.53 218.68L217.13 217.9L217.86 217.5L218.24 217.31L218.41 217.22L218.47 217.17C219.111 216.651 219.587 215.956 219.84 215.17C219.84 215.07 219.9 214.98 219.92 214.88V214.81L219.99 214.61L220.14 214.17L220.76 212.39C221.15 211.17 221.56 209.98 221.93 208.73C222.68 206.26 223.37 203.73 224.03 201.15C224.69 198.57 225.31 196 225.89 193.39C226.19 192.09 226.48 190.79 226.75 189.49L227.52 185.72L249.94 190.06Z" fill="#407BFF"/>
<g opacity="0.6">
<path d="M249.94 190.06L249.45 192.38L248.92 194.57C248.56 196.02 248.18 197.46 247.8 198.89C247 201.76 246.13 204.62 245.16 207.46C244.19 210.3 243.16 213.13 241.97 215.96C241.4 217.38 240.76 218.8 240.12 220.21L239.12 222.33L238.51 223.56C238.24 224.11 237.94 224.63 237.63 225.15C235.098 229.328 231.331 232.616 226.85 234.56L226.43 234.74L226.12 234.86L225.52 235.08L224.31 235.51L221.95 236.25L219.65 236.89L217.38 237.44C214.38 238.12 211.38 238.64 208.44 239.05C206.96 239.25 205.49 239.42 204.01 239.58C202.53 239.74 201.09 239.86 199.49 239.95L197 225.36L200.8 224.16C202.09 223.75 203.37 223.31 204.64 222.87C207.18 222.01 209.64 221.11 212.07 220.15L213.83 219.42L215.53 218.68L217.13 217.9L217.86 217.5L218.24 217.31L218.41 217.22L218.47 217.17C219.111 216.651 219.587 215.956 219.84 215.17C219.84 215.07 219.9 214.98 219.92 214.88V214.81L219.99 214.61L220.14 214.17L220.76 212.39C221.15 211.17 221.56 209.98 221.93 208.73C222.68 206.26 223.37 203.73 224.03 201.15C224.69 198.57 225.31 196 225.89 193.39C226.19 192.09 226.48 190.79 226.75 189.49L227.52 185.72L249.94 190.06Z" fill="white"/>
</g>
<path opacity="0.5" d="M266.17 230.73C266.17 230.73 282.63 228.42 287.47 225.25C281.61 230.38 273.68 231.47 266.17 230.73Z" fill="#407BFF"/>
<path opacity="0.5" d="M268 232.58C268 232.58 280.09 232.67 283.9 230.87C279.15 234 273.32 233.94 268 232.58Z" fill="#407BFF"/>
<path d="M238.61 150.41C237.44 153.55 236.15 156.99 237.02 160.8C237.89 164.61 241.76 166.61 247.74 166.56C247.1 164.07 244.39 162.56 242.24 158.73C240.09 154.9 242.24 146.22 242.24 146.22L241.49 145.57C240.604 147.752 239.898 150.003 239.38 152.3C238.38 150.8 238.61 150.41 238.61 150.41Z" fill="#407BFF"/>
<path opacity="0.3" d="M238.61 150.41C237.44 153.55 236.15 156.99 237.02 160.8C237.89 164.61 241.76 166.61 247.74 166.56C247.1 164.07 244.39 162.56 242.24 158.73C240.09 154.9 242.24 146.22 242.24 146.22L241.49 145.57C240.604 147.752 239.898 150.003 239.38 152.3C238.38 150.8 238.61 150.41 238.61 150.41Z" fill="white"/>
<path d="M247.66 150.67C247.538 151.592 247.214 152.475 246.711 153.256C246.208 154.038 245.538 154.698 244.75 155.19C242.75 156.26 241.14 153.83 241.15 151.05C241.15 148.54 242.15 144.97 244.43 145.05C246.71 145.13 248.12 148.13 247.66 150.67Z" fill="#FFC3BD"/>
<path d="M237.17 135.59C237.86 140.11 242.93 152.96 250.65 158.07C257.65 162.73 264.94 163.29 267.3 158.24C267.3 158.24 275.94 161.17 278 144.58C279.77 130.4 269.49 120.33 258.33 118.58C248.18 117 228.23 121.65 237.17 135.59Z" fill="#407BFF"/>
<path opacity="0.2" d="M238.06 136C238.06 136 245.89 150.61 266.44 157.56C254.44 156.5 244.78 147.28 238.06 136Z" fill="black"/>
</svg>
