<svg width="723" height="522" viewBox="0 0 723 522" fill="none" xmlns="http://www.w3.org/2000/svg">
<path opacity="0.6" d="M420.078 91.9272C373.727 90.3153 329.547 75.3421 287.423 58.9635C245.3 42.5848 203.549 24.4345 158.284 15.7556C129.18 10.1673 95.897 9.3813 72.4522 24.994C49.886 40.0138 42.5969 65.9439 38.6761 90.0023C35.7272 108.106 34.0164 127.156 42.0777 144.107C47.6893 155.87 57.6477 165.761 64.5373 177.031C88.5014 216.242 71.5602 264.599 45.5857 302.918C33.404 320.902 19.2718 338.013 9.87258 357.136C0.473327 376.259 -3.88015 398.166 4.34753 417.668C12.502 436.984 31.9262 451.518 52.9747 461.729C95.724 482.45 146.095 488.378 195.215 491.775C303.945 499.215 413.262 495.991 522.278 492.767C562.624 491.568 603.15 490.363 642.838 484.108C664.878 480.638 687.637 475.137 703.64 461.855C723.949 444.99 728.988 416.443 715.376 395.295C692.543 359.833 629.418 351.021 613.455 312.962C604.675 292.014 613.695 268.675 626.462 249.246C653.841 207.57 699.746 171.003 702.162 123.359C703.826 90.635 681.759 57.8711 647.637 42.385C611.877 26.1396 562.285 28.1911 535.904 55.0403C508.738 82.7021 460.997 93.3459 420.078 91.9272Z" fill="#587EEC"/>
<path d="M161.259 482.917C161.259 482.917 124.648 455.221 117.731 419.993C114.926 405.197 107.403 391.71 96.29 381.554C90.9737 376.777 85.2316 372.496 79.1357 368.766" stroke="#9AB1F3" stroke-width="2" stroke-miterlimit="10"/>
<path d="M74.6562 346.572C77.8647 350.915 79.3159 369.319 79.3159 369.319C79.3159 369.319 62.1616 362.558 58.9464 358.222C57.4025 356.137 56.7494 353.524 57.1308 350.958C57.5122 348.392 58.8968 346.082 60.98 344.537C63.0633 342.993 65.6745 342.339 68.2393 342.721C70.8041 343.102 73.1123 344.488 74.6562 346.572Z" fill="#587EEC"/>
<path d="M105.423 361.012C105.756 366.401 96.989 382.639 96.989 382.639C96.989 382.639 86.2517 367.626 85.9122 362.238C85.7831 359.669 86.6708 357.153 88.383 355.234C90.0952 353.315 92.4939 352.149 95.0595 351.988C97.625 351.827 100.151 352.684 102.089 354.373C104.028 356.062 105.223 358.447 105.416 361.012H105.423Z" fill="#587EEC"/>
<path d="M135.244 402.523C132.821 407.345 117.052 416.936 117.052 416.936C117.052 416.936 115.367 398.553 117.791 393.73C118.983 391.463 121.018 389.754 123.457 388.972C125.896 388.191 128.545 388.398 130.832 389.551C133.12 390.703 134.864 392.708 135.689 395.134C136.514 397.56 136.355 400.213 135.244 402.523Z" fill="#587EEC"/>
<path d="M150.749 438.997C149.171 444.159 135.252 456.274 135.252 456.274C135.252 456.274 130.479 438.444 132.057 433.275C132.815 430.795 134.527 428.718 136.816 427.5C139.105 426.283 141.783 426.026 144.262 426.784C146.74 427.543 148.816 429.256 150.033 431.546C151.249 433.836 151.507 436.516 150.749 438.997Z" fill="#587EEC"/>
<path d="M81.1191 395.695C86.4445 396.414 103.279 388.808 103.279 388.808C103.279 388.808 89.0739 377.032 83.7219 376.312C81.1532 375.967 78.5525 376.657 76.4921 378.23C74.4316 379.803 73.0802 382.131 72.735 384.701C72.3899 387.272 73.0793 389.874 74.6516 391.936C76.2239 393.997 78.5504 395.349 81.1191 395.695Z" fill="#587EEC"/>
<path d="M99.7905 438.13C105.116 437.218 118.875 424.929 118.875 424.929C118.875 424.929 101.794 417.949 96.4755 418.861C95.202 419.07 93.9826 419.529 92.8875 420.212C91.7923 420.895 90.8433 421.788 90.095 422.84C89.3467 423.892 88.814 425.082 88.5277 426.341C88.2414 427.6 88.2072 428.903 88.4269 430.175C88.6467 431.448 89.1161 432.664 89.8081 433.754C90.5001 434.844 91.401 435.785 92.4587 436.525C93.5165 437.265 94.7101 437.787 95.9708 438.063C97.2315 438.338 98.5342 438.361 99.8038 438.13H99.7905Z" fill="#587EEC"/>
<path d="M123.589 476.889C128.988 476.889 144.631 467.104 144.631 467.104C144.631 467.104 128.981 457.333 123.583 457.333C120.991 457.333 118.505 458.363 116.673 460.197C114.84 462.031 113.811 464.518 113.811 467.111C113.811 469.704 114.84 472.191 116.673 474.025C118.505 475.859 120.991 476.889 123.583 476.889H123.589Z" fill="#587EEC"/>
<path d="M516.926 243.379C516.926 243.379 539.492 203.381 573.508 191.858C587.792 187.112 600.152 177.859 608.735 165.488C612.761 159.574 616.235 153.302 619.113 146.752" stroke="#9AB1F3" stroke-width="2" stroke-miterlimit="10"/>
<path d="M640.468 139.425C636.594 143.182 618.561 147.072 618.561 147.072C618.561 147.072 622.987 129.154 626.861 125.391C628.731 123.639 631.214 122.692 633.775 122.754C636.336 122.815 638.77 123.881 640.554 125.721C642.338 127.56 643.328 130.027 643.312 132.591C643.296 135.154 642.275 137.608 640.468 139.425Z" fill="#587EEC"/>
<path d="M630.269 171.816C624.944 172.868 607.723 166.327 607.723 166.327C607.723 166.327 621.17 153.672 626.462 152.64C627.732 152.358 629.047 152.332 630.327 152.565C631.608 152.798 632.829 153.285 633.919 153.997C635.009 154.708 635.946 155.631 636.675 156.71C637.404 157.789 637.91 159.003 638.164 160.28C638.417 161.557 638.413 162.873 638.152 164.148C637.891 165.424 637.377 166.635 636.642 167.71C635.906 168.784 634.964 169.701 633.87 170.406C632.775 171.111 631.551 171.591 630.269 171.816Z" fill="#587EEC"/>
<path d="M593.152 206.904C588.053 205.139 576.464 190.779 576.464 190.779C576.464 190.779 594.437 186.662 599.549 188.427C600.778 188.835 601.913 189.483 602.889 190.333C603.865 191.183 604.662 192.219 605.235 193.38C605.808 194.541 606.145 195.805 606.225 197.097C606.306 198.39 606.13 199.685 605.706 200.909C605.283 202.132 604.62 203.26 603.758 204.225C602.895 205.19 601.85 205.975 600.682 206.532C599.514 207.09 598.247 207.41 596.954 207.474C595.662 207.538 594.369 207.344 593.152 206.904Z" fill="#587EEC"/>
<path d="M559.043 227.126C553.717 226.247 539.898 214.024 539.898 214.024C539.898 214.024 556.932 206.924 562.251 207.803C564.811 208.225 567.099 209.646 568.611 211.755C570.124 213.865 570.737 216.489 570.316 219.05C569.895 221.611 568.474 223.901 566.366 225.414C564.258 226.927 561.636 227.541 559.076 227.119L559.043 227.126Z" fill="#587EEC"/>
<path d="M592.687 152.32C592.68 157.722 602.472 173.394 602.472 173.394C602.472 173.394 612.251 157.742 612.251 152.347C612.285 151.041 612.057 149.743 611.582 148.527C611.106 147.311 610.392 146.203 609.481 145.268C608.571 144.333 607.482 143.59 606.28 143.082C605.078 142.575 603.787 142.313 602.482 142.313C601.177 142.313 599.886 142.575 598.683 143.082C597.481 143.59 596.393 144.333 595.482 145.268C594.572 146.203 593.858 147.311 593.382 148.527C592.907 149.743 592.679 151.041 592.713 152.347L592.687 152.32Z" fill="#587EEC"/>
<path d="M553.125 176.471C554.736 181.627 568.742 193.649 568.742 193.649C568.742 193.649 573.401 175.785 571.777 170.63C570.935 168.242 569.199 166.273 566.936 165.14C564.672 164.006 562.057 163.796 559.641 164.553C557.226 165.31 555.198 166.975 553.985 169.198C552.772 171.422 552.469 174.029 553.139 176.471H553.125Z" fill="#587EEC"/>
<path d="M517.932 205.226C518.65 210.555 530.42 224.788 530.42 224.788C530.42 224.788 538.015 207.97 537.296 202.622C537.153 201.326 536.753 200.071 536.119 198.933C535.485 197.794 534.629 196.793 533.603 195.99C532.577 195.187 531.4 194.597 530.143 194.256C528.885 193.914 527.572 193.828 526.281 194.001C524.989 194.175 523.746 194.605 522.623 195.267C521.5 195.929 520.521 196.808 519.743 197.854C518.966 198.9 518.404 200.091 518.093 201.357C517.782 202.623 517.727 203.938 517.932 205.226Z" fill="#587EEC"/>
<path opacity="0.25" d="M640.468 139.425C636.594 143.182 618.561 147.072 618.561 147.072C618.561 147.072 622.987 129.154 626.861 125.391C628.731 123.639 631.214 122.692 633.775 122.754C636.336 122.815 638.77 123.881 640.554 125.721C642.338 127.56 643.328 130.027 643.312 132.591C643.296 135.154 642.275 137.608 640.468 139.425Z" fill="black"/>
<path opacity="0.25" d="M630.269 171.816C624.944 172.868 607.723 166.327 607.723 166.327C607.723 166.327 621.17 153.672 626.462 152.64C627.732 152.358 629.047 152.332 630.327 152.565C631.608 152.798 632.829 153.285 633.919 153.997C635.009 154.708 635.946 155.631 636.675 156.71C637.404 157.789 637.91 159.003 638.164 160.28C638.417 161.557 638.413 162.873 638.152 164.148C637.891 165.424 637.377 166.635 636.642 167.71C635.906 168.784 634.964 169.701 633.87 170.406C632.775 171.111 631.551 171.591 630.269 171.816Z" fill="black"/>
<path opacity="0.25" d="M593.152 206.904C588.053 205.139 576.464 190.779 576.464 190.779C576.464 190.779 594.437 186.662 599.549 188.427C600.778 188.835 601.913 189.483 602.889 190.333C603.865 191.183 604.662 192.219 605.235 193.38C605.808 194.541 606.145 195.805 606.225 197.097C606.306 198.39 606.13 199.685 605.706 200.909C605.283 202.132 604.62 203.26 603.758 204.225C602.895 205.19 601.85 205.975 600.682 206.532C599.514 207.09 598.247 207.41 596.954 207.474C595.662 207.538 594.369 207.344 593.152 206.904Z" fill="black"/>
<path opacity="0.25" d="M559.043 227.126C553.717 226.247 539.898 214.024 539.898 214.024C539.898 214.024 556.932 206.924 562.251 207.803C564.811 208.225 567.099 209.646 568.611 211.755C570.124 213.865 570.737 216.489 570.316 219.05C569.895 221.611 568.474 223.901 566.366 225.414C564.258 226.927 561.636 227.541 559.076 227.119L559.043 227.126Z" fill="black"/>
<path opacity="0.25" d="M592.687 152.32C592.68 157.722 602.472 173.394 602.472 173.394C602.472 173.394 612.251 157.742 612.251 152.347C612.285 151.041 612.057 149.743 611.582 148.527C611.106 147.311 610.392 146.203 609.481 145.268C608.571 144.333 607.482 143.59 606.28 143.082C605.078 142.575 603.787 142.313 602.482 142.313C601.177 142.313 599.886 142.575 598.683 143.082C597.481 143.59 596.393 144.333 595.482 145.268C594.572 146.203 593.858 147.311 593.382 148.527C592.907 149.743 592.679 151.041 592.713 152.347L592.687 152.32Z" fill="black"/>
<path opacity="0.25" d="M553.125 176.471C554.736 181.627 568.742 193.649 568.742 193.649C568.742 193.649 573.401 175.785 571.777 170.63C570.935 168.242 569.199 166.273 566.936 165.14C564.672 164.006 562.057 163.796 559.641 164.553C557.226 165.31 555.198 166.975 553.985 169.198C552.772 171.422 552.469 174.029 553.139 176.471H553.125Z" fill="black"/>
<path opacity="0.25" d="M517.932 205.226C518.65 210.555 530.42 224.788 530.42 224.788C530.42 224.788 538.015 207.97 537.296 202.622C537.153 201.326 536.753 200.071 536.119 198.933C535.485 197.794 534.629 196.793 533.603 195.99C532.577 195.187 531.4 194.597 530.143 194.256C528.885 193.914 527.572 193.828 526.281 194.001C524.989 194.175 523.746 194.605 522.623 195.267C521.5 195.929 520.521 196.808 519.743 197.854C518.966 198.9 518.404 200.091 518.093 201.357C517.782 202.623 517.727 203.938 517.932 205.226Z" fill="black"/>
<path d="M518.224 242.586C518.224 242.586 522.657 196.867 549.058 172.555C560.193 162.423 567.746 148.953 570.586 134.163C571.878 127.132 572.522 119.998 572.509 112.849" stroke="#9AB1F3" stroke-width="2" stroke-miterlimit="10"/>
<path d="M589.058 97.4225C587.061 102.431 572.124 113.302 572.124 113.302C572.124 113.302 568.915 95.1245 570.932 90.1157C571.903 87.7106 573.789 85.7899 576.175 84.7762C578.562 83.7626 581.253 83.7389 583.656 84.7105C586.06 85.6821 587.979 87.5693 588.992 89.957C590.006 92.3447 590.029 95.0373 589.058 97.4424V97.4225Z" fill="#587EEC"/>
<path d="M592.859 131.205C588.446 134.309 570.027 135.328 570.027 135.328C570.027 135.328 577.203 118.317 581.616 115.213C582.663 114.429 583.856 113.864 585.125 113.549C586.394 113.235 587.713 113.179 589.005 113.385C590.296 113.59 591.533 114.052 592.642 114.744C593.751 115.436 594.711 116.344 595.463 117.414C596.215 118.484 596.746 119.694 597.022 120.972C597.299 122.251 597.316 123.572 597.074 124.857C596.831 126.142 596.333 127.366 595.609 128.455C594.885 129.545 593.95 130.478 592.859 131.199V131.205Z" fill="#587EEC"/>
<path d="M573.115 178.35C567.737 178.803 551.321 170.357 551.321 170.357C551.321 170.357 566.099 159.3 571.478 158.847C574.061 158.63 576.624 159.448 578.604 161.122C580.584 162.796 581.818 165.188 582.035 167.773C582.252 170.357 581.435 172.922 579.762 174.903C578.089 176.884 575.698 178.119 573.115 178.337V178.35Z" fill="#587EEC"/>
<path d="M550.143 210.648C544.918 211.98 527.317 206.472 527.317 206.472C527.317 206.472 540.012 193.077 545.237 191.718C547.746 191.067 550.41 191.44 552.644 192.755C554.878 194.069 556.499 196.218 557.149 198.728C557.8 201.239 557.427 203.905 556.113 206.14C554.799 208.375 552.652 209.997 550.143 210.648Z" fill="#587EEC"/>
<path d="M550.609 128.621C552.793 133.557 568.063 143.941 568.063 143.941C568.063 143.941 570.659 125.664 568.476 120.728C567.388 118.419 565.44 116.627 563.05 115.736C560.659 114.844 558.015 114.924 555.682 115.957C553.349 116.99 551.512 118.895 550.564 121.266C549.616 123.636 549.632 126.283 550.609 128.641V128.621Z" fill="#587EEC"/>
<path d="M524.222 166.734C527.783 170.79 545.45 176.105 545.45 176.105C545.45 176.105 542.468 157.888 538.907 153.832C538.066 152.847 537.038 152.038 535.883 151.454C534.727 150.869 533.467 150.52 532.176 150.427C530.884 150.334 529.587 150.499 528.36 150.912C527.132 151.325 525.999 151.978 525.027 152.833C524.054 153.687 523.26 154.727 522.692 155.891C522.124 157.056 521.793 158.321 521.718 159.615C521.644 160.908 521.826 162.204 522.256 163.426C522.686 164.648 523.354 165.772 524.222 166.734Z" fill="#587EEC"/>
<path d="M503.659 207.311C506.482 211.906 522.997 220.132 522.997 220.132C522.997 220.132 523.137 201.676 520.334 197.073C518.939 194.948 516.772 193.45 514.291 192.897C511.811 192.344 509.213 192.78 507.049 194.112C504.884 195.443 503.323 197.566 502.696 200.03C502.07 202.494 502.427 205.106 503.692 207.311H503.659Z" fill="#587EEC"/>
<path d="M484.275 63.5397C485.38 59.4833 486.711 55.407 487.643 51.2974C486.525 55.407 485.187 59.4967 484.275 63.5397Z" fill="url(#paint0_linear_726_281)"/>
<path d="M479.323 102.611C479.229 102.452 479.163 102.292 479.09 102.145C479.09 102.079 479.023 102.025 478.996 101.959C478.851 102.027 478.702 102.087 478.55 102.138C478.258 102.252 477.958 102.358 477.652 102.445C477.346 102.531 477.219 102.578 476.986 102.631C476.793 102.698 476.595 102.749 476.394 102.785L476.447 102.904C476.693 102.851 476.933 102.805 477.179 102.738L477.246 103.564C477.525 103.564 477.785 103.524 478.038 103.524C478.158 103.517 478.278 103.517 478.397 103.524C478.917 103.524 479.369 103.524 479.729 103.524C479.589 103.224 479.442 102.911 479.323 102.611ZM614.454 317.838C611.325 313.622 605.081 268.369 605.081 268.369C605.081 268.369 592.799 236.191 596.148 223.35C599.496 210.508 587.001 177.651 587.001 177.651C587.001 177.651 578.747 174.061 578.301 168.732C578.301 168.732 544.598 158.075 543.021 150.082C541.742 143.528 520.84 138.826 513.332 137.34C511.042 128.095 508.739 119.47 507.041 114.76C506.582 113.295 506.149 112.03 505.75 111.03C502.881 103.704 494.014 103.038 487.584 103.624C487.305 102.375 486.787 101.192 486.059 100.14C485.953 99.7786 485.742 99.4565 485.453 99.2144C485.315 99.0967 485.169 98.9898 485.014 98.8947C484.898 98.6788 484.745 98.485 484.561 98.3219C484.379 98.1573 484.178 98.0142 483.962 97.8956C483.808 97.8119 483.647 97.7384 483.483 97.6758C483.097 97.5288 482.698 97.4195 482.292 97.3494C481.818 97.2519 481.337 97.1895 480.854 97.1629C482.029 96.6487 483.076 95.8824 483.922 94.9183C484.498 94.2414 484.927 93.452 485.181 92.6004C485.391 91.8921 485.486 91.1542 485.46 90.4157C485.287 90.72 485.087 91.0077 484.861 91.2749C485.141 88.3242 483.583 85.3269 482.691 82.3895C481.61 78.5655 481.41 74.5461 482.105 70.6334C482.997 64.732 485.207 58.7641 486.705 52.7561C486.709 52.7229 486.709 52.6894 486.705 52.6562C487.49 49.6726 487.976 46.6179 488.156 43.5377C488.416 37.3233 486.825 31.1222 484.269 25.4606C481.999 20.4451 478.65 15.5096 473.525 13.4714C469.717 11.9328 465.45 12.1792 461.35 11.9261C452.15 11.3533 443.376 8.11621 434.63 5.17219C425.883 2.22817 416.883 -0.44943 407.677 0.0634428C398.47 0.576316 388.998 5.01899 384.798 13.1717C383.466 15.7161 382.701 18.5468 381.11 20.938C378.128 25.4473 372.789 27.7053 368.336 30.8158C363.882 33.9264 359.961 38.3424 358.351 43.611C357.471 46.4495 357.347 49.4687 357.991 52.3698C358.136 53.025 358.323 53.6702 358.55 54.3014C359.182 56.0613 360.167 57.6731 361.446 59.0372C362.41 60.0453 363.518 60.905 364.734 61.5882C366.261 62.4352 367.896 63.0715 369.594 63.4798C369.534 63.6797 369.474 63.8928 369.407 64.0993C369.301 64.439 369.208 64.7654 369.108 65.1317C368.888 65.951 368.682 66.7835 368.509 67.6228C368.502 67.6825 368.502 67.7429 368.509 67.8026C367.691 71.5912 367.28 75.4564 367.284 79.3323C367.282 81.1653 367.376 82.9973 367.563 84.8207C370.226 111.85 392.526 133.171 420.078 134.556C421.023 134.603 421.975 134.629 422.94 134.629C423.38 134.629 423.812 134.629 424.272 134.629C424.704 135.202 425.13 135.788 425.537 136.361C425.943 136.934 426.315 137.52 426.668 138.093L425.703 137.094L424.738 136.208C424.476 136.567 424.184 136.904 423.866 137.214C423.236 136.992 422.594 136.81 421.942 136.667C419.179 136.055 414.972 135.828 409.434 137.5C404.342 139.025 398.118 142.163 390.835 148.124L355.348 169.438L336.15 181.121L329.234 198.039C329.234 198.039 324.035 218.141 318.251 241.174C318.024 241.24 317.805 241.307 317.585 241.387C317.116 241.333 316.645 241.307 316.174 241.307C312.817 241.299 309.589 242.593 307.166 244.917C304.743 247.241 303.314 250.413 303.18 253.769C291.677 267.756 291.025 281.744 293.727 288.165C293.972 288.766 294.28 289.34 294.646 289.877C296.417 292.434 299.725 299.028 303.08 306.055C302.993 306.635 302.94 307.121 302.914 307.487C302.908 307.607 302.908 307.727 302.914 307.847C302.914 307.847 304.911 338.027 298.254 346.679C296.796 348.564 297.016 351.042 298.254 353.786C302.714 363.657 320.347 376.839 320.347 376.839C320.347 376.839 341.496 376.725 353.278 375.44C353.245 376.625 353.218 377.804 353.192 378.957C352.925 390.599 352.925 400.357 352.925 400.357L352.486 412.566C352.486 412.566 348.492 438.297 346.495 445.39C345.237 449.84 346.688 491.036 347.953 521.322H556.321C558.77 503.405 555.315 448.967 555.315 448.967C555.315 448.967 552.034 434.893 551.914 422.624C551.907 422.611 551.904 422.596 551.904 422.581C551.904 422.566 551.907 422.551 551.914 422.537C551.914 421.465 551.914 420.419 551.954 419.394L553.465 419.34L556.181 419.247H556.427C556.427 419.247 556.494 418.994 556.647 418.581C557.006 417.552 557.496 416.574 558.105 415.67C559.263 413.959 561.074 412.28 563.796 412.167C565.301 412.107 567.63 410.888 570.26 409.09C570.277 409.094 570.295 409.094 570.313 409.09C577.389 404.301 586.742 395.462 589.012 394.01C592.134 392.012 607.085 378.69 607.085 378.69C607.085 378.69 609.315 375.866 611.691 372.462L611.778 372.343C614.733 368.08 617.875 362.984 617.103 361.379C615.772 358.502 617.995 351.621 617.995 351.621C624.938 338.906 617.582 322.054 614.454 317.838ZM485.733 112.969C485.797 113.168 485.837 113.373 485.853 113.582C485.686 113.362 485.52 113.129 485.354 112.915L485.194 112.702L485.081 112.542L485.334 112.196C485.334 112.196 485.334 112.196 485.334 112.243C485.509 112.459 485.645 112.705 485.733 112.969ZM483.496 107.067C482.771 107.214 482.198 107.347 481.826 107.447C481.353 106.608 480.9 105.769 480.494 104.916C481.561 105.535 482.567 106.256 483.496 107.067ZM482.245 108.12C482.243 108.107 482.243 108.093 482.245 108.08L482.298 108.12C482.571 108.3 482.837 108.473 483.084 108.653C483.303 108.812 483.503 108.966 483.703 109.126C483.57 109.359 483.423 109.598 483.277 109.792C483.044 109.425 482.824 109.072 482.611 108.706C482.478 108.559 482.358 108.36 482.245 108.12ZM478.251 99.9005C479.537 99.7735 480.832 99.7735 482.118 99.9005C482.298 99.9005 482.458 99.9338 482.618 99.9604C482.979 100.016 483.333 100.108 483.676 100.234C484.463 101.335 484.947 102.623 485.081 103.97L484.721 104.023L484.368 104.09C483.703 104.203 483.037 104.317 482.518 104.423L481.852 104.563C480.967 104.756 480.454 104.903 480.434 104.909C480.348 104.729 480.261 104.563 480.168 104.39C480.022 104.103 479.868 103.81 479.735 103.524C479.602 103.237 479.429 102.911 479.289 102.611C479.196 102.452 479.13 102.292 479.056 102.145C479.056 102.079 478.99 102.025 478.963 101.959C478.924 101.888 478.891 101.814 478.863 101.739C478.457 100.913 478.084 100.087 477.725 99.2744C477.685 99.1945 477.652 99.1079 477.619 99.0279L478.124 98.9946V99.1678L478.251 99.9005ZM319.429 513.09C319.376 503.172 318.657 492.441 316.66 482.37C315.808 478.088 314.929 473.805 314.037 469.595C313.811 468.543 313.591 467.504 313.371 466.465L311.321 466.738H311.135C305.543 440.355 299.698 417.109 299.698 417.109C299.698 417.109 288.089 372.756 289.434 369.219C289.607 368.759 289.387 367.52 288.895 365.702C286.085 355.618 274.356 327.829 270.256 318.331C270.256 318.291 270.223 318.244 270.209 318.211C269.544 316.619 269.064 315.547 268.918 315.234L269.883 301.06L269.936 300.207L270.063 298.396L270.01 298.349L270.063 297.51C270.063 297.51 259.931 289.197 242.77 283.196C242.105 282.956 241.399 282.723 240.7 282.497C241.559 276.762 242.697 270.288 244.182 263.98C244.321 263.347 244.474 262.734 244.634 262.115C244.774 261.495 244.934 260.896 245.094 260.29C245.347 259.304 245.619 258.332 245.899 257.372C246.824 257.079 247.736 256.753 248.635 256.407L248.981 256.273C260.052 251.963 269.187 243.785 274.694 233.253C280.201 222.721 281.709 210.55 278.936 198.992C277.355 192.436 274.436 186.279 270.362 180.908C270.056 180.495 269.73 180.082 269.404 179.676C269.078 179.269 268.685 178.816 268.319 178.403C270.243 174.027 272.512 169.864 272.699 165.608C272.732 165.069 272.732 164.529 272.699 163.99V163.923C272.453 161.185 271.241 158.415 268.419 155.504C264.298 151.234 258.434 149.07 252.569 148.031C246.704 146.992 240.727 146.965 234.829 146.266C225.05 145.093 215.525 142.076 205.746 141.15C193.701 140.034 181.575 142.101 170.579 147.145C163.303 150.475 155.934 156.297 155.494 164.283C155.135 170.883 159.728 177.211 158.57 183.732C157.418 190.139 150.895 195.182 151.467 201.662C151.687 204.194 152.985 206.458 154.609 208.476C155.168 209.142 155.761 209.808 156.373 210.475C158.743 212.986 161.352 215.397 162.677 218.561C162.73 218.694 162.784 218.827 162.83 218.96C163.955 222.084 163.449 226.034 160.667 227.826C160.682 227.838 160.694 227.854 160.7 227.872C160.74 227.926 160.78 227.966 160.813 228.019C160.817 228.008 160.817 227.996 160.813 227.985C161.8 229.156 163.13 229.985 164.614 230.357L165.18 230.53C164.721 231.029 164.288 231.549 163.849 232.095L163.562 232.475C162.829 233.462 162.162 234.496 161.565 235.572C161.226 236.171 160.9 236.771 160.627 237.37C159.714 239.198 159.054 241.14 158.663 243.145C157.951 247.555 158.956 252.15 157.878 256.467C156.546 261.795 152.333 265.885 149.956 270.834C145.456 280.159 148.006 291.102 148.911 301.4C150.142 315.387 148.145 329.434 146.155 343.329C145.099 350.718 144.043 358.113 142.987 365.515C140.324 384.094 137.661 402.673 134.998 421.252C134.027 428.059 132.875 435.239 128.342 440.495H128.388C128.388 440.495 128.388 440.535 128.342 440.548C129.703 441.143 131.15 441.516 132.629 441.654C138.547 442.246 144.817 439.382 150.142 436.252C154.36 433.813 158.354 431.007 162.078 427.866C161.532 429.864 160.946 432.042 160.321 434.387C160.323 434.409 160.323 434.431 160.321 434.453C152.805 463.094 140.717 515.601 140.717 515.601C140.717 515.601 139.618 517.885 138.194 521.289H325.912C323.716 518.625 321.672 516.074 320.075 514.015L319.429 513.09ZM180.437 248.261C180.484 248.181 180.517 248.107 180.564 248.034C180.564 248.247 180.564 248.454 180.564 248.654C180.564 248.853 180.564 249.033 180.564 249.22C180.564 249.406 180.564 249.386 180.564 249.48C180.564 249.48 180.564 249.573 180.564 249.48C180.564 249.753 180.504 250.026 180.457 250.299C180.457 250.299 180.457 250.332 180.457 250.359L181.123 250.605L181.895 250.925C186.457 252.728 191.077 254.36 195.754 255.82C196.233 255.974 196.719 256.12 197.205 256.26L197.305 257.086C197.425 257.932 197.538 258.791 197.645 259.65C197.645 259.65 197.645 259.69 197.645 259.717C197.944 262.095 198.237 264.466 198.497 266.784C198.497 266.784 186.275 262.121 186.428 269.202C186.421 269.328 186.421 269.455 186.428 269.581C186.415 269.75 186.415 269.919 186.428 270.088C186.541 275.603 188.265 278.873 188.611 280.552C188.591 280.621 188.554 280.685 188.505 280.738C188.21 281.381 188.108 282.096 188.212 282.796C188.2 283.988 188.294 285.178 188.492 286.353C188.132 286.573 187.779 286.793 187.427 287.019C187.16 287.186 186.907 287.372 186.648 287.559C185.015 281.891 182.878 276.38 180.264 271.093C178.433 267.323 176.376 263.394 176.396 259.257C176.396 258.991 176.396 258.718 176.43 258.445C176.504 257.246 176.732 256.062 177.109 254.921C177.262 254.488 177.428 254.062 177.615 253.642C178.05 252.645 178.536 251.672 179.072 250.725C179.419 250.099 179.785 249.48 180.138 248.853C180.251 248.667 180.357 248.474 180.464 248.287L180.437 248.261ZM479.323 102.611C479.229 102.452 479.163 102.292 479.09 102.145C479.09 102.079 479.023 102.025 478.996 101.959C478.851 102.027 478.702 102.087 478.55 102.138C478.258 102.252 477.958 102.358 477.652 102.445C477.346 102.531 477.219 102.578 476.986 102.631L476.394 102.785L476.447 102.904C476.693 102.851 476.933 102.805 477.179 102.738L477.246 103.564C477.525 103.564 477.785 103.524 478.038 103.524H478.397C478.917 103.524 479.369 103.524 479.729 103.524C479.589 103.224 479.442 102.911 479.323 102.611Z" fill="url(#paint1_linear_726_281)"/>
<path d="M333.874 200.443L329.88 202.208C329.88 202.208 303.845 303.411 303.845 311.59C303.845 319.769 359.049 365.282 359.049 365.282L367.663 307.108C367.663 307.108 355.295 173.701 333.874 200.443Z" fill="#FDFEFF"/>
<path d="M454.966 168.252L431.901 156.21C430.609 150.699 428.316 145.472 425.137 140.79C421.762 135.915 417.276 131.126 411.684 128.628C397.552 122.287 471.461 89.0034 471.461 89.0034C472.626 93.0017 473.996 96.9368 475.568 100.793C479.376 110.198 485.693 122.36 493.834 125.824C507.674 131.718 454.966 168.252 454.966 168.252Z" fill="#FFB0B1"/>
<path opacity="0.1" d="M475.568 100.793C472.41 111.906 465.843 121.746 456.794 128.923C447.745 136.1 436.672 140.251 425.137 140.79C421.762 135.915 417.276 131.126 411.684 128.628C397.552 122.287 471.461 89.0034 471.461 89.0034C472.625 93.0017 473.996 96.9368 475.568 100.793Z" fill="black"/>
<path d="M477.645 83.9879C477.648 94.8872 474.42 105.543 468.37 114.606C462.32 123.67 453.72 130.735 443.657 134.907C433.594 139.08 422.52 140.173 411.836 138.047C401.152 135.922 391.339 130.674 383.636 122.968C375.933 115.261 370.687 105.442 368.562 94.7522C366.437 84.0623 367.527 72.9819 371.696 62.9123C375.865 52.8427 382.924 44.2364 391.982 38.1817C401.04 32.127 411.688 28.896 422.581 28.8973C429.821 28.8638 436.996 30.2658 443.691 33.0225C450.386 35.7791 456.47 39.8356 461.59 44.9578C466.709 50.0801 470.764 56.1665 473.52 62.8655C476.276 69.5646 477.678 76.7436 477.645 83.9879Z" fill="#FFB0B1"/>
<path d="M485.594 161.179L470.576 196.24L457.329 219.513H414.926L402.558 187.695L407.571 154.698H439.955L460.864 153.519L467.927 151.161L472.48 153.745L485.594 161.179Z" fill="#575A89"/>
<path opacity="0.1" d="M480.421 114.441C480.421 114.441 489.787 116.439 481.399 123.319C473.012 130.2 444.075 152.08 444.075 152.08C444.075 152.08 454.24 161.139 452.136 171.749L485.813 152.966L491.804 122.913C491.804 122.913 492.476 113.881 480.421 114.441Z" fill="black"/>
<path opacity="0.1" d="M450.699 152.08L429.278 155.617C429.278 155.617 433.698 171.969 431.488 176.612C431.421 176.756 431.365 176.905 431.321 177.058L422.581 200.697L429.131 219.26L451.804 188.321L444.075 176.612C444.075 176.612 452.243 165.781 457.103 162.025C461.962 158.268 450.699 152.08 450.699 152.08Z" fill="black"/>
<path d="M450.699 151.167L429.278 154.698C429.278 154.698 433.698 171.05 431.488 175.692C431.421 175.836 431.365 175.986 431.321 176.138L422.581 199.777L429.131 218.341L451.804 187.382L444.075 175.672C444.075 175.672 452.243 164.842 457.103 161.085C461.962 157.329 450.699 151.167 450.699 151.167Z" fill="#DCE6F2"/>
<path d="M481.319 112.675C481.319 112.675 490.685 114.674 482.291 121.554C473.897 128.435 444.075 152.08 444.075 152.08C444.075 152.08 455.119 159.373 453.022 169.977L486.698 151.201L492.689 121.148C492.689 121.148 493.355 112.116 481.319 112.675Z" fill="#575A89"/>
<path opacity="0.1" d="M426.609 142.875C426.609 142.875 428.653 146.698 437.672 153.592C437.672 153.592 422.655 161.585 428.4 172.821L405.427 166.827L401.893 155.777L426.609 142.875Z" fill="black"/>
<path d="M425.722 141.996C425.722 141.996 427.766 145.819 436.786 152.713C436.786 152.713 421.768 160.666 427.513 171.936L404.547 165.941L401.013 154.898L425.722 141.996Z" fill="#575A89"/>
<path opacity="0.1" d="M485.594 161.179L470.576 196.241L457.356 219.513H414.926L402.558 187.695L407.564 154.698H416.57C416.424 162.398 419.233 171.443 419.053 174.806C418.747 180.335 427.294 210.161 427.294 210.161C427.294 210.161 445.181 181.214 452.244 178.636C456.684 177.018 466.09 163.55 472.473 153.745L485.594 161.179Z" fill="black"/>
<path d="M544.751 345.686L543.227 347.604C543.227 347.604 554.27 403.068 551.215 415.663C550.695 417.934 550.399 420.249 550.329 422.577V422.677C549.79 435.492 553.658 452.124 553.658 452.124C553.658 452.124 556.746 501.147 554.989 521.308H348.219C347.007 491.495 345.703 452.87 346.888 448.587C348.885 441.52 352.879 415.883 352.879 415.883L353.318 403.734C353.318 403.734 353.318 391.991 353.677 378.91C353.83 373.028 354.057 366.854 354.383 361.379C354.802 354.492 355.388 348.69 356.194 345.839C356.69 343.679 356.975 341.475 357.046 339.259C357.046 339.052 357.046 338.839 357.086 338.626C357.086 337.96 357.152 337.24 357.179 336.501C357.179 336.295 357.179 336.088 357.179 335.835C357.305 331.546 357.259 326.457 357.119 321.181C357.119 320.895 357.119 320.602 357.119 320.309C357.006 316.352 356.839 312.316 356.653 308.48C356.074 296.49 355.322 286.353 355.322 286.353L329.926 202.162L336.769 185.297L355.761 173.654L390.875 152.44C408.003 138.352 419.279 140.044 423.579 141.589C423.997 141.732 424.406 141.899 424.804 142.089C424.937 142.156 425.044 142.209 425.144 142.269C425.28 142.334 425.412 142.409 425.536 142.495C424.359 143.062 423.336 143.905 422.554 144.953C421.674 146.145 421.046 147.505 420.71 148.949C420.485 149.845 420.327 150.755 420.238 151.674C420.151 152.639 420.118 153.639 420.118 154.644C420.165 156.85 420.354 159.05 420.684 161.232C420.684 161.272 420.684 161.325 420.684 161.378C420.903 162.937 421.176 164.462 421.442 165.894C421.439 165.919 421.439 165.943 421.442 165.968C421.749 167.639 422.055 169.185 422.261 170.517C422.301 170.757 422.334 170.976 422.368 171.183C422.515 172.063 422.584 172.955 422.574 173.847C422.649 176.002 422.939 178.144 423.439 180.241C423.613 181.121 423.812 182.06 424.032 183.039C424.332 184.371 424.658 185.823 425.01 187.302C425.204 188.114 425.41 188.954 425.623 189.786C425.703 190.119 425.789 190.452 425.869 190.792L426.002 191.318C427.42 196.96 428.958 202.575 429.903 205.972C430.462 207.97 430.815 209.202 430.815 209.202C430.815 209.202 440.84 192.983 448.841 183.752C448.961 183.618 449.068 183.492 449.181 183.372C449.973 182.459 450.752 181.627 451.497 180.894C453.128 179.269 454.593 178.11 455.771 177.684C456.022 177.591 456.265 177.478 456.497 177.344C459.772 175.486 465.057 168.738 470.003 161.671C470.489 161.005 470.962 160.279 471.441 159.593C472.539 158.008 473.604 156.416 474.61 154.891C475.382 153.725 476.121 152.593 476.82 151.514C480.148 146.332 482.491 142.469 482.491 142.469L487.111 142.262L487.916 142.222H488.455L509.431 141.25C509.431 141.25 510.336 141.403 511.827 141.703C511.907 141.703 511.987 141.703 512.073 141.756C519.516 143.235 540.191 147.917 541.456 154.411C543 162.364 576.35 172.975 576.35 172.975C576.79 178.303 584.958 181.813 584.958 181.813C584.958 181.813 597.326 214.517 594.017 227.332C590.749 239.988 602.525 271.293 602.837 272.172L600.581 275.023L544.751 345.686Z" fill="#FDFEFF"/>
<path opacity="0.1" d="M480.415 112.116C480.415 112.116 500.831 106.322 505.47 118.251C510.11 130.18 520.488 178.357 520.488 178.357C520.488 178.357 493.542 183.439 486.479 178.357C482.336 175.341 477.208 173.999 472.12 174.6L456.883 184.984L452.383 183.652C452.383 183.652 476.76 147.391 482.059 135.069C487.358 122.747 489.148 117.238 480.415 112.116Z" fill="black"/>
<path d="M479.529 109.452C479.529 109.452 499.959 103.657 504.618 115.587C509.278 127.516 519.636 175.693 519.636 175.693C519.636 175.693 492.696 180.775 485.627 175.693C481.486 172.676 476.361 171.335 471.275 171.936L456.024 182.32L451.524 180.988C451.524 180.988 475.901 144.727 481.2 132.405C486.499 120.083 488.263 114.587 479.529 109.452Z" fill="#FDFEFF"/>
<path opacity="0.1" d="M342.487 301.646C342.487 301.646 357.724 305.403 360.6 314.022C363.476 322.64 349.337 322.86 349.337 322.86C349.337 322.86 340.723 307.614 342.487 301.646Z" fill="black"/>
<path opacity="0.1" d="M399.243 365.282C399.243 365.282 361.926 441.74 370.539 449.034C379.153 456.327 399.243 365.282 399.243 365.282Z" fill="black"/>
<path opacity="0.1" d="M450.698 308.939C450.698 308.939 480.514 383.206 474.549 394.676C468.585 406.146 487.357 394.676 487.357 394.676L450.698 308.939Z" fill="black"/>
<path d="M492.217 382.3C492.217 382.3 391.514 387.162 420.89 418.541C450.266 449.919 510.549 419.873 510.549 419.873L492.217 382.3Z" fill="#FFB0B1"/>
<path opacity="0.1" d="M477.645 83.9876C477.654 91.2146 476.236 98.3721 473.471 105.049C472.546 105.155 471.621 105.222 470.729 105.262C469.397 102.338 470.11 98.9609 470.136 95.7437C470.163 92.5266 468.978 88.7434 465.883 87.8775C459.712 86.139 455.451 97.682 449.367 95.5972C444.708 94.012 445.926 86.9383 443.243 82.8553C441.12 79.6249 436.866 78.7124 433.558 76.6875C426.522 72.3647 426.735 65.4509 423.466 58.9101C420.045 52.0563 412.815 54.0811 406.538 58.1242C401.772 61.2014 397.658 65.3244 392.559 67.7755C388.146 69.9069 383.186 70.6796 378.294 70.7928C375.282 70.9096 372.268 70.591 369.347 69.847C372.783 56.9212 380.801 45.6872 391.904 38.2398C403.008 30.7925 416.439 27.6404 429.694 29.3712C442.949 31.102 455.122 37.5976 463.943 47.6467C472.765 57.6959 477.632 70.6124 477.638 83.9876H477.645Z" fill="black"/>
<path d="M406.559 56.3593C401.786 59.4366 397.679 63.5529 392.58 66.0173C388.166 68.1421 383.207 68.9147 378.314 69.0279C372.323 69.1612 365.873 68.1088 361.779 63.7793C358.018 59.7829 357.119 53.6351 358.71 48.3931C360.301 43.1512 364.115 38.8017 368.595 35.6512C373.075 32.5007 378.274 30.3227 381.243 25.8134C382.814 23.4289 383.573 20.6181 384.878 18.0803C389.051 9.96097 398.437 5.56491 407.51 5.01874C416.584 4.47256 425.577 7.1768 434.217 10.1075C442.858 13.0382 451.564 16.262 460.684 16.8681C464.745 17.1212 468.965 16.8681 472.733 18.4067C477.799 20.4649 481.12 25.3871 483.383 30.396C485.92 36.0442 487.497 42.212 487.231 48.3798C486.672 61.548 477.978 74.4697 481.799 87.0851C482.811 90.4487 484.708 93.899 483.696 97.2626C482.219 102.172 475.888 103.291 470.769 103.524C469.438 100.6 470.15 97.216 470.177 94.0055C470.203 90.7951 469.018 87.0051 465.93 86.1393C459.752 84.4141 455.492 95.9371 449.421 93.859C444.795 92.2671 445.993 85.2001 443.304 81.1171C441.18 77.88 436.92 76.9741 433.618 74.9493C426.582 70.6265 426.795 63.7127 423.526 57.1719C420.078 50.2848 412.842 52.3096 406.559 56.3593Z" fill="#575A89"/>
<path d="M308.911 309.818L303.832 311.59C303.832 311.59 305.829 341.643 299.173 350.262C292.516 358.881 321.033 380.309 321.033 380.309C321.033 380.309 360.121 380.089 361.226 376.978C362.331 373.868 359.229 321.295 359.229 321.295C359.229 321.295 338.248 313.116 340.012 300.081C340.012 300.081 333.608 330.793 324.115 329.468C314.623 328.142 303.846 320.209 308.911 309.818Z" fill="#FDFEFF"/>
<path opacity="0.1" d="M325.853 338.766C333.253 338.766 339.253 333.276 339.253 326.504C339.253 319.731 333.253 314.241 325.853 314.241C318.452 314.241 312.453 319.731 312.453 326.504C312.453 333.276 318.452 338.766 325.853 338.766Z" fill="black"/>
<path d="M340.504 310.705C340.504 310.705 337.841 229.391 314.663 247.508C291.484 265.626 291.258 287.293 295.671 293.694C300.085 300.095 314.237 332.139 314.237 332.139C316.45 333.423 318.937 334.164 321.492 334.3C324.046 334.437 326.597 333.967 328.936 332.927C331.274 331.887 333.332 330.308 334.943 328.319C336.553 326.329 337.67 323.986 338.201 321.482L340.504 310.705Z" fill="#FFB0B1"/>
<path opacity="0.1" d="M485.094 104.736C484.985 104.379 484.778 104.06 484.494 103.817C483.349 102.771 480.886 102.405 477.172 102.725L477.325 104.483C482.278 104.057 483.256 105.043 483.383 105.209V105.376L483.536 105.595C484.153 106.426 484.591 107.376 484.82 108.385C485.049 109.395 485.065 110.441 484.867 111.457C483.782 116.885 477.119 121.208 477.052 121.255L476.892 121.348L476.793 121.501C473.917 125.771 457.655 137.82 453.401 140.937L453.028 140.511C451.124 142.163 434.39 156.823 433.484 162.438C432.898 165.961 428.931 167.327 427.493 167.706C425.975 166.554 421.049 162.631 418.487 158.235C416.084 154.098 425.756 146.026 426.608 142.875L425.276 141.51C425.137 142.016 412.715 153.632 416.17 159.567C418.939 164.329 423.998 168.406 425.769 169.751C425.203 174.893 421.682 205.086 416.27 212.24C409.547 221.132 403.895 265.945 404.521 281.591C405.073 295.492 401.446 321.748 389.33 333.025C387.233 335.062 384.703 336.6 381.928 337.523C379.154 338.445 376.207 338.729 373.308 338.353H373.161H373.015C372.842 338.353 355.268 340.151 340.504 327.696C328.422 317.525 321.579 300.927 320.154 278.347H319.861L319.741 271.773C323.017 271.261 325.967 269.499 327.972 266.857C329.977 264.214 330.88 260.897 330.491 257.603C330.103 254.308 328.453 251.292 325.89 249.189C323.326 247.086 320.047 246.059 316.742 246.324C313.437 246.589 310.363 248.125 308.167 250.61C305.97 253.095 304.822 256.335 304.963 259.65C305.104 262.964 306.523 266.095 308.923 268.384C311.322 270.674 314.515 271.943 317.831 271.926H317.977L318.097 278.46L317.511 278.5C318.976 301.813 326.165 319.057 338.813 329.708C348.426 337.678 360.705 341.699 373.168 340.957C374.052 341.054 374.941 341.103 375.831 341.104C381.543 341.133 387.04 338.922 391.141 334.943C403.902 323.053 407.783 295.831 407.177 281.458C406.511 264.879 412.442 221.678 418.393 213.812C424.225 206.092 427.759 176.012 428.378 170.184C430.489 169.591 435.262 167.72 436.074 162.857C436.659 159.34 447.836 148.504 454.712 142.502L454.506 142.262C458.207 139.558 469.717 131.033 475.421 125.557C477.192 123.859 478.949 122.161 480.787 120.542C482.997 118.584 485.806 115.473 486.545 111.796C486.797 110.583 486.798 109.33 486.548 108.116C486.299 106.902 485.804 105.752 485.094 104.736Z" fill="black"/>
<path d="M425.543 169.331C425.263 169.138 418.633 164.389 415.312 158.674C411.863 152.739 424.285 141.13 424.418 140.623L425.749 141.989C424.904 145.133 415.232 153.212 417.635 157.342C420.664 162.557 427.041 167.119 427.107 167.166L425.543 169.331Z" fill="#353146"/>
<path d="M452.536 142.229L451.498 140.797C451.711 140.644 472.619 125.511 475.914 120.615L476.021 120.469L476.174 120.369C476.241 120.322 482.904 116.006 483.989 110.571C484.189 109.556 484.174 108.511 483.945 107.502C483.715 106.494 483.277 105.545 482.658 104.716L482.504 104.49V104.33C482.371 104.157 481.393 103.178 476.44 103.604L476.287 101.839C480.008 101.519 482.465 101.886 483.609 102.931C483.894 103.177 484.104 103.498 484.215 103.857C484.935 104.87 485.44 106.019 485.699 107.235C485.957 108.45 485.964 109.706 485.72 110.924C484.981 114.607 482.178 117.718 479.962 119.67C478.131 121.288 476.367 123 474.603 124.685C467.913 131.099 453.268 141.703 452.536 142.229Z" fill="#E8F5FF"/>
<path d="M318.883 269.454L317.119 269.486L317.316 280.215L319.079 280.183L318.883 269.454Z" fill="#E8F5FF"/>
<path d="M316.972 271.08C324.086 271.08 329.853 265.31 329.853 258.192C329.853 251.074 324.086 245.303 316.972 245.303C309.858 245.303 304.091 251.074 304.091 258.192C304.091 265.31 309.858 271.08 316.972 271.08Z" fill="#587EEC"/>
<path d="M316.972 268.895C322.88 268.895 327.67 264.103 327.67 258.192C327.67 252.28 322.88 247.488 316.972 247.488C311.064 247.488 306.275 252.28 306.275 258.192C306.275 264.103 311.064 268.895 316.972 268.895Z" fill="#E8F5FF"/>
<path d="M374.992 340.244C374.102 340.246 373.213 340.199 372.329 340.104C359.867 340.839 347.591 336.819 337.974 328.855C325.326 318.197 318.15 300.973 316.672 277.641L319.335 277.474C320.76 300.054 327.603 316.659 339.691 326.823C354.456 339.245 372.023 337.48 372.196 337.48H372.342H372.489C375.389 337.854 378.336 337.57 381.111 336.647C383.887 335.724 386.418 334.188 388.518 332.152C400.627 320.875 404.255 294.619 403.702 280.718C403.036 265.059 408.688 220.245 415.418 211.36C421.309 203.574 424.963 168.479 425.003 168.126L425.103 167.126L426.088 166.953C426.148 166.953 431.9 165.861 432.619 161.558C433.551 155.95 450.259 141.29 452.156 139.631L453.893 141.629C446.99 147.624 435.814 158.468 435.255 161.991C434.443 166.867 429.67 168.732 427.566 169.318C426.901 175.153 423.392 205.226 417.581 212.945C411.63 220.812 405.699 264.013 406.365 280.591C406.937 294.965 403.096 322.194 390.335 334.077C386.226 338.065 380.716 340.28 374.992 340.244Z" fill="#353146"/>
<g opacity="0.1">
<path opacity="0.1" d="M483.316 68.2418C484.408 64.2054 485.726 60.1424 486.645 56.0527C485.546 60.1624 484.222 64.2054 483.316 68.2418Z" fill="black"/>
<path opacity="0.1" d="M472.18 99.9601C470.849 97.036 471.561 93.6524 471.587 90.4419C471.614 87.2315 470.429 83.4749 467.34 82.5757C461.163 80.8505 456.903 92.3802 450.832 90.2954C446.172 88.7035 447.404 81.6365 444.714 77.5535C442.591 74.3164 438.337 73.4106 435.036 71.3857C427.993 67.0629 428.206 60.1491 424.944 53.6083C421.516 46.7478 414.293 48.7727 408.009 52.8224C403.237 55.8996 399.129 60.0226 394.03 62.4804C389.617 64.6051 384.658 65.3778 379.765 65.491C373.807 65.6309 367.324 64.5718 363.23 60.2424C360.075 56.912 358.936 52.0297 359.589 47.4539C359.475 47.7669 359.376 48.08 359.276 48.393C357.678 53.635 358.61 59.7961 362.344 63.7792C366.438 68.1086 372.922 69.161 378.88 69.0278C383.779 68.9146 388.732 68.142 393.152 66.0172C398.264 63.5527 402.371 59.4364 407.131 56.3592C413.415 52.3095 420.644 50.2847 424.065 57.1452C427.327 63.686 427.121 70.5998 434.157 74.9225C437.485 76.9207 441.712 77.8532 443.842 81.0903C446.505 85.1867 445.327 92.2403 449.96 93.8322C456.024 95.9104 460.284 84.3874 466.462 86.1125C469.551 86.9784 470.742 90.775 470.709 93.9788C470.675 97.1826 469.983 100.573 471.301 103.497C476.42 103.264 482.751 102.165 484.235 97.2358C484.44 96.5285 484.534 95.7939 484.515 95.0578C482.351 98.7944 476.786 99.7536 472.18 99.9601Z" fill="black"/>
</g>
<path opacity="0.1" d="M592.486 264.079L600.215 272.259C600.215 272.259 606.399 317.332 609.487 321.548C612.576 325.764 619.872 342.536 613.022 355.131C613.022 355.131 610.812 361.985 612.137 364.856C613.461 367.726 602.205 382.094 602.205 382.094C602.205 382.094 587.407 395.348 584.312 397.34C581.216 399.331 564.881 415.237 559.363 415.457C553.844 415.677 552.04 422.531 552.04 422.531L520.9 423.636C520.9 423.636 503.699 422.737 499.958 425.168C499.958 425.168 501.955 398.872 482.737 381.634L507.247 372.795C507.247 372.795 516.527 368.799 519.396 364.623C521.201 362.062 523.761 360.131 526.718 359.101C526.718 359.101 533.561 354.239 533.781 351.588C534.001 348.937 542.148 345.686 542.148 345.686L537.535 306.288L539.965 240.88C539.965 240.88 547.693 186.076 564.036 189.173C580.378 192.271 592.486 264.079 592.486 264.079Z" fill="black"/>
<path d="M595.149 264.079L602.878 272.259C602.878 272.259 609.062 317.332 612.15 321.548C615.239 325.764 622.535 342.536 615.685 355.131C615.685 355.131 613.482 361.985 614.807 364.856C616.131 367.726 604.868 382.094 604.868 382.094C604.868 382.094 590.07 395.348 586.975 397.34C583.879 399.331 567.544 415.237 562.026 415.457C556.507 415.677 554.703 422.531 554.703 422.531L523.563 423.636C523.563 423.636 506.349 422.737 502.621 425.168C502.621 425.168 504.618 398.872 485.4 381.634L509.91 372.795C509.91 372.795 519.19 368.799 522.059 364.623C523.864 362.062 526.424 360.131 529.381 359.101C529.381 359.101 536.224 354.239 536.444 351.588C536.664 348.937 544.811 345.686 544.811 345.686L540.198 306.288L542.628 240.88C542.628 240.88 550.356 186.076 566.699 189.173C583.041 192.271 595.149 264.079 595.149 264.079Z" fill="#FDFEFF"/>
<path opacity="0.1" d="M566.418 330.154C566.418 330.154 589.164 324.159 595.129 331.486C601.093 338.813 566.418 330.154 566.418 330.154Z" fill="black"/>
<path opacity="0.1" d="M561.12 340.205C568.849 345.62 592.699 345.84 592.699 345.84L561.12 340.205Z" fill="black"/>
<path opacity="0.1" d="M572.823 367.274C573.488 367.494 589.218 384.292 595.822 379.21C602.425 374.128 572.823 367.274 572.823 367.274Z" fill="black"/>
<path opacity="0.1" d="M360.98 226.294C360.98 226.294 365.6 258.119 363.323 271.08C361.047 284.042 369.354 300.101 369.354 300.101L360.98 226.294Z" fill="black"/>
<path d="M258.707 239.235C253.381 243.412 249.494 253.296 246.678 264.16C241.765 283.109 240.161 305.083 240.161 305.083C240.161 305.083 197.758 295.358 200.847 290.942C202.79 288.165 200.181 267.237 198.004 252.064C196.706 243.099 195.548 236.138 195.548 236.138C195.548 236.138 273.285 227.739 258.707 239.235Z" fill="#FFB0B1"/>
<path opacity="0.1" d="M258.707 238.35C253.381 242.533 249.494 252.41 246.678 263.274C238.23 265.841 229.244 266.072 220.675 263.944C212.106 261.816 204.272 257.407 198.004 251.185C196.706 242.213 195.548 235.252 195.548 235.252C195.548 235.252 273.285 226.86 258.707 238.35Z" fill="black"/>
<path d="M281.499 214.544C281.503 226.129 277.411 237.342 269.948 246.199C262.484 255.056 252.13 260.985 240.717 262.937C229.305 264.889 217.57 262.739 207.59 256.866C197.609 250.993 190.027 241.777 186.185 230.848C182.343 219.92 182.489 207.984 186.596 197.152C190.704 186.321 198.508 177.292 208.629 171.665C218.749 166.038 230.533 164.175 241.895 166.405C253.256 168.635 263.463 174.816 270.708 183.852C277.69 192.556 281.497 203.383 281.499 214.544Z" fill="#FFB0B1"/>
<path opacity="0.1" d="M320.161 521.308H306.182L305.003 496.604L303.772 471.034C303.772 471.034 306.947 470.561 312.006 469.855L314.05 469.582H314.216C315.321 474.77 316.413 480.099 317.465 485.421C319.215 494.869 320.127 504.453 320.187 514.062C320.187 514.728 320.187 515.394 320.187 516.02C320.227 517.798 320.187 519.577 320.161 521.308Z" fill="black"/>
<path d="M317.478 521.309H142.167C142.926 519.584 143.432 518.538 143.432 518.538C143.432 518.538 157.458 457.14 164.587 431.163C164.589 431.141 164.589 431.119 164.587 431.097C165.478 427.568 166.553 424.089 167.809 420.673C167.89 420.441 167.995 420.217 168.122 420.007C171.65 414.265 176.07 408.077 169.886 399.239C163.702 390.4 165.892 351.508 165.892 351.508C165.892 351.508 173.401 318.358 181.349 300.681C182.555 297.942 184.267 295.457 186.395 293.354C187.086 292.677 187.825 292.049 188.605 291.475C189.197 291.03 189.815 290.618 190.455 290.243L190.582 290.163C193.92 288.269 197.628 287.117 201.452 286.786C204.168 286.502 206.91 286.578 209.606 287.013C222.494 288.904 232.812 292.068 241.013 295.672C263.239 305.443 269.969 318.538 270.102 318.811L270.156 318.924C271.048 321.009 284.095 351.488 288.794 365.709C290.013 369.412 290.678 372.016 290.412 372.729C289.081 376.259 300.57 420.453 300.57 420.453C300.57 420.453 305.895 441.767 311.221 466.751C311.454 467.79 311.674 468.83 311.887 469.882C312.838 474.418 313.784 479.04 314.696 483.656C316.463 493.169 317.374 502.821 317.418 512.497C317.516 515.512 317.536 518.449 317.478 521.309Z" fill="#EB5569"/>
<path opacity="0.1" d="M200.408 271.586C200.408 271.586 188.312 266.924 188.459 273.997C188.605 281.071 191.408 284.455 190.522 285.487C189.637 286.52 190.962 292.707 190.962 292.707C190.962 292.707 207.304 292.707 214.813 296.091C222.321 299.475 250 306.255 253.535 308.32C257.069 310.385 270.176 319.643 270.176 319.643L271.355 302.112C271.355 302.112 257.808 290.916 235.582 285.174C213.355 279.433 200.408 271.586 200.408 271.586Z" fill="black"/>
<path d="M200.408 270.7C200.408 270.7 188.312 266.038 188.459 273.111C188.605 280.185 191.408 283.568 190.522 284.601C189.637 285.633 190.962 291.821 190.962 291.821C190.962 291.821 207.304 291.821 214.813 295.211C222.321 298.602 250 305.376 253.535 307.434C257.069 309.492 270.176 318.757 270.176 318.757L271.368 301.279C271.368 301.279 257.822 290.083 235.595 284.341C213.368 278.6 200.408 270.7 200.408 270.7Z" fill="#EB5569"/>
<path opacity="0.1" d="M236.919 312.889C236.919 312.889 260.031 337.927 258.853 344.86C257.675 351.794 236.919 312.889 236.919 312.889Z" fill="black"/>
<path opacity="0.1" d="M199.375 403.334C199.375 403.334 182.434 418.954 177.441 419.84C172.449 420.726 181.269 423.67 187.007 421.318C192.745 418.967 204.98 412.779 204.98 412.779L199.375 403.334Z" fill="black"/>
<path d="M324.362 521.309H284.854C279.329 516.513 274.103 512.071 270.775 509.4C265.45 505.124 261.609 498.829 259.159 493.767C258.607 492.615 258.127 491.536 257.721 490.557C256.994 488.87 256.354 487.147 255.804 485.395L285.06 468.01C286.677 469.386 288.196 470.873 289.607 472.46L289.96 472.866C291.584 474.784 293.015 476.962 293.142 478.747C293.288 480.825 299.066 488.865 304.971 496.585C310.962 504.438 317.099 511.944 317.505 512.45C317.505 512.45 318.517 513.829 320.168 515.947C321.333 517.479 322.771 519.318 324.362 521.309Z" fill="#FFB0B1"/>
<path opacity="0.1" d="M270.708 183.852C269.304 187.023 268.046 190.313 267.859 193.843C267.334 204.034 268.186 226.82 256.909 231.936C251.324 234.453 245.346 228.925 239.222 228.792C234.816 228.698 230.775 231.496 228.086 234.993C225.396 238.49 223.726 242.639 221.775 246.596C220 250.187 217.955 253.638 215.658 256.92C214.971 257.924 214.215 258.879 213.394 259.777C206.518 256.874 200.395 252.439 195.492 246.809C190.589 241.18 187.034 234.504 185.1 227.292C183.165 220.08 182.902 212.521 184.329 205.191C185.756 197.862 188.837 190.955 193.336 184.997C197.835 179.039 203.634 174.187 210.291 170.811C216.948 167.435 224.287 165.624 231.749 165.517C239.211 165.409 246.6 167.007 253.351 170.189C260.103 173.371 266.039 178.053 270.708 183.879V183.852Z" fill="black"/>
<path d="M266.974 192.044C266.441 202.235 267.3 225.021 256.017 230.13C250.432 232.648 244.454 227.126 238.33 226.993C233.924 226.893 229.89 229.697 227.194 233.187C224.498 236.677 222.84 240.834 220.883 244.797C219.107 248.388 217.062 251.839 214.766 255.121C213.394 257.066 211.877 259.017 209.766 260.11C206.092 262.028 201.639 260.949 197.698 259.717C192.585 258.105 187.549 256.289 182.587 254.268C182.701 253.519 182.759 252.762 182.76 252.004C182.614 252.283 182.454 252.543 182.294 252.823L181.981 253.369C181.416 254.368 180.863 255.367 180.357 256.393C180.164 256.786 179.978 257.192 179.811 257.599C179.142 259.111 178.721 260.721 178.566 262.368C178.227 266.81 180.417 271.027 182.361 275.023C189.836 290.482 194.456 308.56 188.831 324.778C186.395 331.832 182.174 338.1 179.092 344.914C173.705 356.982 172.119 370.406 174.546 383.399C176.083 391.472 179.166 399.465 178.407 407.651C177.075 421.738 164.934 432.222 152.772 439.429C146.202 443.305 138.16 446.755 131.184 443.692C135.631 438.496 136.776 431.309 137.734 424.529C140.357 406.034 142.986 387.531 145.622 369.019C146.674 361.652 147.724 354.285 148.771 346.918C150.728 333.077 152.712 319.083 151.487 305.156C150.595 294.892 148.079 283.995 152.525 274.703C154.875 269.781 159.062 265.705 160.367 260.403C161.439 256.093 160.44 251.511 161.146 247.121C161.532 245.124 162.186 243.189 163.09 241.366C164.24 238.894 165.743 236.601 167.55 234.559C165.766 234.04 164.101 233.327 163.09 231.835C165.952 229.97 166.385 225.767 165.087 222.61C163.789 219.453 161.192 217.048 158.856 214.557C156.519 212.066 154.27 209.162 153.977 205.765C153.411 199.298 159.868 194.289 161.006 187.908C162.158 181.414 157.605 175.099 157.971 168.525C158.397 160.579 165.692 154.804 172.895 151.454C183.764 146.419 195.77 144.351 207.696 145.459C217.402 146.378 226.794 149.382 236.473 150.548C242.311 151.214 248.229 151.281 254.027 152.306C259.825 153.332 265.636 155.497 269.717 159.753C280.474 170.976 267.586 180.215 266.974 192.044Z" fill="#575A89"/>
<path opacity="0.1" d="M257.974 493.774C254.579 492.302 248.402 493.181 237.798 489.95C227.194 486.72 225.15 472.12 225.15 472.12V472.073C225.024 471.74 224.038 469.569 217.368 461.962C209.999 453.563 194.07 411.141 194.07 411.141C194.07 411.141 179.944 395.961 180.39 390.366C180.836 384.771 177.881 369.885 178.174 353.233C178.467 336.581 209.973 325.538 209.973 325.538C270.635 314.781 256.35 384.758 254.732 390.06C253.115 395.362 261.509 409.682 261.509 409.682C260.324 415.917 266.368 425.568 266.368 425.568C266.368 425.568 267.833 434.107 268.132 437.351C268.149 437.501 268.182 437.648 268.232 437.79C269.204 440.848 277.126 443.619 280.347 445.304C283.736 447.075 294.633 462.542 294.633 462.542C296.982 473.898 261.356 495.266 257.974 493.774Z" fill="black"/>
<path d="M259.739 491.109C256.35 489.631 250.166 490.517 239.569 487.28C228.971 484.042 226.921 469.456 226.921 469.456V469.409C226.801 469.069 225.809 466.904 219.139 459.298C211.771 450.899 195.841 408.47 195.841 408.47C195.841 408.47 181.716 393.297 182.155 387.702C182.594 382.107 179.652 367.221 179.945 350.582C180.238 333.944 211.724 322.907 211.724 322.907C272.386 312.15 258.101 382.127 256.484 387.429C254.866 392.731 263.26 407.052 263.26 407.052C262.075 413.286 268.119 422.937 268.119 422.937C268.119 422.937 269.584 431.476 269.89 434.72C269.901 434.87 269.933 435.018 269.983 435.16C270.955 438.217 278.877 440.988 282.105 442.673C285.487 444.438 296.39 459.911 296.39 459.911C298.754 471.247 263.127 492.615 259.739 491.109Z" fill="#EB5569"/>
<path opacity="0.1" d="M212.922 359.441C212.922 359.441 239.422 387.416 246.338 387.416C253.255 387.416 212.922 359.441 212.922 359.441Z" fill="black"/>
<path d="M259.738 491.109C256.35 489.63 250.166 490.516 239.568 487.279C228.971 484.042 226.92 469.455 226.92 469.455V469.409C233.943 464.746 251.73 451.578 258.739 446.762C263.672 443.385 267.699 438.423 270.056 435.133C271.028 438.19 278.949 440.961 282.178 442.646C285.559 444.411 296.463 459.884 296.463 459.884C298.753 471.247 263.126 492.614 259.738 491.109Z" fill="#FF748E"/>
<g opacity="0.1">
<path opacity="0.1" d="M163.129 231.908C163.163 231.962 163.209 232.008 163.249 232.061C163.449 231.808 163.655 231.555 163.868 231.315C163.641 231.536 163.394 231.735 163.129 231.908Z" fill="black"/>
<path opacity="0.1" d="M178.573 262.441C178.853 258.744 180.83 255.487 182.68 252.237C181.469 251.771 180.257 251.298 179.059 250.805C179.173 250.058 179.231 249.303 179.232 248.547C177.362 251.877 175.325 255.154 175.038 258.904C174.699 263.354 176.889 267.563 178.833 271.56C186.315 287.012 190.928 305.089 185.303 321.315C182.86 328.362 178.646 334.636 175.564 341.45C170.179 353.517 168.595 366.939 171.024 379.929C172.549 388.008 175.637 395.995 174.879 404.181C173.547 418.268 161.412 428.752 149.244 435.952C144.271 438.896 138.46 441.594 132.902 441.4C132.387 442.229 131.813 443.019 131.184 443.765C138.167 446.849 146.202 443.379 152.772 439.489C164.947 432.295 177.109 421.838 178.44 407.724C179.199 399.538 176.11 391.552 174.579 383.472C172.149 370.484 173.728 357.063 179.106 344.994C182.168 338.186 186.428 331.905 188.844 324.858C194.469 308.633 189.85 290.556 182.374 275.103C180.437 271.08 178.234 266.89 178.573 262.441Z" fill="black"/>
<path opacity="0.1" d="M269.704 159.834C269.049 159.161 268.346 158.538 267.6 157.969C275.668 168.439 264.019 177.338 263.44 188.608C262.92 198.799 263.772 221.591 252.489 226.693C246.911 229.218 240.927 223.689 234.809 223.556C230.396 223.463 226.362 226.267 223.666 229.757C220.97 233.248 219.312 237.404 217.362 241.36C215.583 244.951 213.535 248.402 211.238 251.684C209.906 253.636 208.349 255.581 206.232 256.68C202.571 258.591 198.117 257.519 194.17 256.28C190.331 255.072 186.528 253.74 182.76 252.284C182.753 252.978 182.695 253.67 182.587 254.355C187.553 256.38 192.592 258.196 197.705 259.804C201.646 261.043 206.099 262.115 209.767 260.203C211.877 259.104 213.408 257.153 214.773 255.201C217.072 251.923 219.117 248.474 220.89 244.884C222.847 240.927 224.498 236.764 227.201 233.274C229.903 229.784 233.93 226.987 238.337 227.08C244.461 227.213 250.446 232.741 256.024 230.217C267.307 225.115 266.448 202.322 266.974 192.131C267.587 180.282 280.474 171.05 269.704 159.834Z" fill="black"/>
</g>
<path opacity="0.1" d="M181.988 253.376C181.422 254.375 180.87 255.374 180.364 256.4C180.171 256.793 179.984 257.199 179.818 257.605C176.33 254.088 167.836 245.729 163.096 243.138C164.249 240.667 165.751 238.374 167.556 236.331C167.556 236.331 178.853 242.306 181.988 253.376Z" fill="black"/>
<path d="M182.301 252.83C179.685 240.98 167.556 234.566 167.556 234.566C165.749 236.608 164.247 238.901 163.096 241.373C168.095 244.111 177.308 253.289 180.364 256.4L182.301 252.83Z" fill="#EB5569"/>
<defs>
<linearGradient id="paint0_linear_726_281" x1="485.959" y1="63.5397" x2="485.959" y2="51.2974" gradientUnits="userSpaceOnUse">
<stop stop-color="#808080" stop-opacity="0.25"/>
<stop offset="0.54" stop-color="#808080" stop-opacity="0.12"/>
<stop offset="1" stop-color="#808080" stop-opacity="0.1"/>
</linearGradient>
<linearGradient id="paint1_linear_726_281" x1="305391" y1="438609" x2="305391" y2="30580.7" gradientUnits="userSpaceOnUse">
<stop stop-color="#808080" stop-opacity="0.25"/>
<stop offset="0.54" stop-color="#808080" stop-opacity="0.12"/>
<stop offset="1" stop-color="#808080" stop-opacity="0.1"/>
</linearGradient>
</defs>
</svg>
