<svg width="589" height="567" viewBox="0 0 589 567" fill="none" xmlns="http://www.w3.org/2000/svg">
<path d="M589 433.642H0V433.925H589V433.642Z" fill="#EBEBEB"/>
<path d="M91.884 444.438H61.7979V444.721H91.884V444.438Z" fill="#EBEBEB"/>
<path d="M310.992 441.364H181.482V441.648H310.992V441.364Z" fill="#EBEBEB"/>
<path d="M200.26 448.134H114.655V448.418H200.26V448.134Z" fill="#EBEBEB"/>
<path d="M529.994 453.067H416.611V453.351H529.994V453.067Z" fill="#EBEBEB"/>
<path d="M406.115 453.067H398.659V453.351H406.115V453.067Z" fill="#EBEBEB"/>
<path d="M436.908 448.282H354.837V448.565H436.908V448.282Z" fill="#EBEBEB"/>
<path d="M279.186 383.065H51.7258C49.9439 383.062 48.2361 382.379 46.9772 381.165C45.7183 379.951 45.0112 378.306 45.0112 376.59V68.7886C45.0267 67.083 45.7406 65.4523 46.9979 64.2505C48.2551 63.0488 49.9541 62.373 51.7258 62.3701H279.186C280.97 62.3701 282.681 63.0523 283.942 64.2666C285.204 65.481 285.912 67.1279 285.912 68.8453V376.59C285.912 378.307 285.204 379.954 283.942 381.169C282.681 382.383 280.97 383.065 279.186 383.065ZM51.7258 62.5969C50.022 62.5999 48.3891 63.2536 47.1854 64.4144C45.9818 65.5752 45.3057 67.1484 45.3057 68.7886V376.59C45.3057 378.23 45.9818 379.803 47.1854 380.964C48.3891 382.125 50.022 382.779 51.7258 382.782H279.186C280.891 382.779 282.525 382.126 283.73 380.965C284.936 379.805 285.615 378.231 285.618 376.59V68.7886C285.615 67.1474 284.936 65.5742 283.73 64.4137C282.525 63.2532 280.891 62.5999 279.186 62.5969H51.7258Z" fill="#EBEBEB"/>
<path d="M533.999 383.065H306.527C304.744 383.062 303.035 382.379 301.774 381.165C300.514 379.952 299.804 378.307 299.801 376.59V68.7886C299.819 67.082 300.536 65.4513 301.795 64.2498C303.054 63.0484 304.754 62.373 306.527 62.3701H533.999C535.769 62.376 537.465 63.0531 538.719 64.2545C539.974 65.456 540.686 67.085 540.702 68.7886V376.59C540.702 378.304 539.996 379.947 538.74 381.161C537.484 382.374 535.779 383.059 533.999 383.065ZM306.527 62.5969C304.822 62.5999 303.188 63.2532 301.983 64.4137C300.777 65.5742 300.098 67.1474 300.095 68.7886V376.59C300.098 378.231 300.777 379.805 301.983 380.965C303.188 382.126 304.822 382.779 306.527 382.782H533.999C535.704 382.779 537.338 382.126 538.544 380.965C539.749 379.805 540.428 378.231 540.431 376.59V68.7886C540.428 67.1474 539.749 65.5742 538.544 64.4137C537.338 63.2532 535.704 62.5999 533.999 62.5969H306.527Z" fill="#EBEBEB"/>
<path d="M148.734 221.618L457.618 221.618V88.4407L148.734 88.4407V221.618Z" fill="#E6E6E6"/>
<path d="M142.22 221.618L454.579 221.618V88.4407L142.22 88.4407V221.618Z" fill="#F0F0F0"/>
<path d="M148.734 226.12L457.618 226.12V221.606L148.734 221.606V226.12Z" fill="#E6E6E6"/>
<path d="M131.382 226.12L443.741 226.12V221.606L131.382 221.606V226.12Z" fill="#F0F0F0"/>
<path d="M445.473 212.852V97.2065L151.338 97.2065V212.852H445.473Z" fill="#FAFAFA"/>
<path d="M366.016 212.852L312.571 97.2065H257.864L311.322 212.852H366.016Z" fill="white"/>
<path d="M441.255 193.517C441.427 193.517 441.592 193.451 441.714 193.334C441.835 193.217 441.903 193.059 441.903 192.893V102.91C441.903 102.744 441.835 102.584 441.714 102.465C441.593 102.347 441.428 102.278 441.255 102.275C441.169 102.275 441.084 102.292 441.005 102.324C440.925 102.356 440.853 102.403 440.793 102.462C440.733 102.521 440.685 102.591 440.653 102.668C440.622 102.745 440.606 102.828 440.608 102.91V192.893C440.606 192.976 440.622 193.057 440.654 193.134C440.686 193.21 440.733 193.28 440.794 193.338C440.854 193.396 440.926 193.442 441.006 193.473C441.085 193.503 441.17 193.519 441.255 193.517Z" fill="#F0F0F0"/>
<path d="M290.754 212.852L237.296 97.2065H218.377L271.823 212.852H290.754Z" fill="white"/>
<path d="M152.492 212.841V97.1953H151.338V212.841H152.492Z" fill="#E6E6E6"/>
<g opacity="0.5">
<path d="M140.064 109.238H448.959L449.796 100.608H140.9L140.064 109.238Z" fill="#E6E6E6"/>
<path d="M140.064 123.504H448.959L449.796 114.863H140.9L140.064 123.504Z" fill="#E6E6E6"/>
<path d="M140.064 137.758H448.959L449.796 129.128H140.9L140.064 137.758Z" fill="#E6E6E6"/>
<path d="M140.064 152.024H448.959L449.796 143.383H140.9L140.064 152.024Z" fill="#E6E6E6"/>
<path d="M140.064 166.278H448.959L449.796 157.637H140.9L140.064 166.278Z" fill="#E6E6E6"/>
<path d="M140.064 180.533H448.959L449.796 171.903H140.9L140.064 180.533Z" fill="#E6E6E6"/>
</g>
<path d="M465.616 428.142H496.126V311.544H465.616V428.142Z" fill="#F0F0F0"/>
<path d="M346.297 433.642H490.26V428.142H346.297V433.642Z" fill="#F0F0F0"/>
<path d="M465.616 311.544H340.442V428.142H465.616V311.544Z" fill="#F5F5F5"/>
<path d="M453.601 384.551H352.434C352.37 384.551 352.306 384.538 352.247 384.514C352.187 384.49 352.134 384.455 352.089 384.411C352.044 384.366 352.008 384.314 351.985 384.256C351.961 384.198 351.95 384.137 351.951 384.075V355.6C351.95 355.538 351.961 355.476 351.985 355.418C352.008 355.361 352.044 355.308 352.089 355.264C352.134 355.219 352.187 355.184 352.247 355.16C352.306 355.136 352.37 355.124 352.434 355.124H391.638C391.731 355.124 391.822 355.149 391.901 355.196C391.98 355.244 392.043 355.311 392.083 355.392C392.124 355.472 392.14 355.562 392.13 355.651C392.12 355.74 392.084 355.824 392.027 355.895C391.822 356.143 391.71 356.451 391.709 356.768C391.713 356.967 391.759 357.163 391.843 357.345C391.926 357.527 392.047 357.692 392.197 357.829C392.347 357.966 392.524 358.073 392.717 358.144C392.91 358.215 393.116 358.248 393.323 358.242H412.724C412.931 358.248 413.137 358.215 413.33 358.144C413.524 358.073 413.7 357.966 413.85 357.829C414 357.692 414.121 357.527 414.204 357.345C414.288 357.163 414.334 356.967 414.338 356.768C414.337 356.451 414.225 356.143 414.02 355.895C413.963 355.824 413.927 355.74 413.917 355.651C413.907 355.562 413.923 355.472 413.964 355.392C414.004 355.311 414.067 355.244 414.146 355.196C414.225 355.149 414.316 355.124 414.409 355.124H453.601C453.732 355.124 453.858 355.174 453.951 355.263C454.044 355.352 454.096 355.473 454.096 355.6V384.075C454.096 384.201 454.044 384.322 453.951 384.411C453.858 384.501 453.732 384.551 453.601 384.551ZM352.929 383.598H453.059V356.076H415.222C415.292 356.3 415.328 356.533 415.328 356.768C415.315 357.422 415.034 358.044 414.547 358.499C414.059 358.953 413.403 359.204 412.724 359.195H393.323C392.644 359.204 391.988 358.953 391.5 358.499C391.013 358.044 390.732 357.422 390.719 356.768C390.719 356.533 390.755 356.3 390.825 356.076H352.929V383.598Z" fill="white"/>
<path d="M453.601 418.219H352.434C352.37 418.219 352.306 418.207 352.247 418.183C352.187 418.159 352.134 418.123 352.089 418.079C352.044 418.035 352.008 417.982 351.985 417.924C351.961 417.867 351.95 417.805 351.951 417.743V389.268C351.95 389.206 351.961 389.145 351.985 389.087C352.008 389.029 352.044 388.977 352.089 388.932C352.134 388.888 352.187 388.853 352.247 388.828C352.306 388.804 352.37 388.792 352.434 388.792H391.65C391.743 388.794 391.834 388.821 391.913 388.869C391.991 388.917 392.055 388.984 392.098 389.064C392.136 389.147 392.15 389.239 392.138 389.329C392.125 389.419 392.087 389.504 392.027 389.574C391.817 389.816 391.704 390.122 391.709 390.436C391.713 390.636 391.759 390.833 391.842 391.015C391.926 391.198 392.046 391.363 392.196 391.501C392.346 391.639 392.523 391.747 392.716 391.819C392.909 391.891 393.115 391.926 393.323 391.922H412.724C412.932 391.926 413.138 391.891 413.331 391.819C413.524 391.747 413.701 391.639 413.851 391.501C414.001 391.363 414.121 391.198 414.205 391.015C414.288 390.833 414.334 390.636 414.338 390.436C414.337 390.123 414.225 389.819 414.02 389.574C413.957 389.506 413.917 389.42 413.905 389.33C413.892 389.239 413.908 389.146 413.949 389.064C413.992 388.984 414.056 388.917 414.134 388.869C414.213 388.821 414.304 388.794 414.397 388.792H453.601C453.732 388.792 453.858 388.842 453.951 388.931C454.044 389.021 454.096 389.142 454.096 389.268V417.743C454.096 417.869 454.044 417.99 453.951 418.08C453.858 418.169 453.732 418.219 453.601 418.219ZM352.929 417.312H453.059V389.745H415.222C415.292 389.969 415.328 390.202 415.328 390.436C415.323 390.761 415.252 391.082 415.119 391.38C414.985 391.678 414.792 391.948 414.551 392.174C414.309 392.401 414.023 392.579 413.71 392.699C413.396 392.819 413.062 392.879 412.724 392.874H393.323C392.985 392.879 392.651 392.819 392.337 392.699C392.024 392.579 391.738 392.401 391.496 392.174C391.255 391.948 391.062 391.678 390.928 391.38C390.795 391.082 390.724 390.761 390.719 390.436C390.719 390.202 390.755 389.969 390.825 389.745H352.929V417.312Z" fill="white"/>
<path d="M453.601 350.882H352.434C352.37 350.882 352.306 350.87 352.247 350.846C352.187 350.822 352.134 350.787 352.089 350.742C352.044 350.698 352.008 350.645 351.985 350.588C351.961 350.53 351.95 350.468 351.951 350.406V321.931C351.95 321.869 351.961 321.808 351.985 321.75C352.008 321.692 352.044 321.64 352.089 321.595C352.134 321.551 352.187 321.516 352.247 321.492C352.306 321.467 352.37 321.455 352.434 321.455H391.638C391.731 321.458 391.822 321.484 391.901 321.532C391.98 321.58 392.043 321.647 392.086 321.727C392.135 321.804 392.161 321.892 392.161 321.982C392.161 322.072 392.135 322.161 392.086 322.238C391.876 322.479 391.763 322.785 391.768 323.099C391.772 323.298 391.818 323.495 391.902 323.677C391.985 323.859 392.106 324.023 392.256 324.16C392.406 324.297 392.582 324.404 392.776 324.475C392.969 324.546 393.175 324.58 393.382 324.574H412.783C412.99 324.58 413.196 324.546 413.389 324.475C413.582 324.404 413.759 324.297 413.909 324.16C414.059 324.023 414.18 323.859 414.263 323.677C414.347 323.495 414.393 323.298 414.397 323.099C414.402 322.785 414.289 322.479 414.079 322.238C414.03 322.161 414.004 322.072 414.004 321.982C414.004 321.892 414.03 321.804 414.079 321.727C414.121 321.647 414.185 321.58 414.264 321.532C414.343 321.484 414.434 321.458 414.527 321.455H453.719C453.784 321.455 453.848 321.467 453.908 321.491C453.968 321.515 454.023 321.55 454.069 321.595C454.115 321.639 454.151 321.691 454.176 321.749C454.201 321.807 454.213 321.869 454.213 321.931V350.406C454.218 350.48 454.205 350.554 454.173 350.622C454.142 350.69 454.095 350.75 454.035 350.796C453.975 350.843 453.904 350.875 453.829 350.89C453.753 350.905 453.675 350.902 453.601 350.882ZM352.929 349.93H453.059V322.408H415.222C415.292 322.632 415.328 322.865 415.328 323.099C415.315 323.753 415.034 324.375 414.547 324.83C414.059 325.285 413.403 325.535 412.724 325.526H393.323C392.644 325.535 391.988 325.285 391.5 324.83C391.013 324.375 390.732 323.753 390.719 323.099C390.719 322.865 390.755 322.632 390.825 322.408H352.929V349.93Z" fill="white"/>
<path d="M336.378 311.544H465.616V301.973H336.378V311.544Z" fill="#F0F0F0"/>
<path d="M500.379 301.973H465.604V311.544H500.379V301.973Z" fill="#E6E6E6"/>
<path d="M57.4746 433.63H106.397L106.397 275.46H57.4746L57.4746 433.63Z" fill="#F5F5F5"/>
<path d="M57.4864 433.63H65.5557L65.5557 275.46H57.4864L57.4864 433.63Z" fill="#F0F0F0"/>
<path d="M284.593 280.688H98.8579V320.265H284.593V280.688Z" fill="#E6E6E6"/>
<path d="M284.593 332.115H98.8579V341.255H284.593V332.115Z" fill="#E6E6E6"/>
<path d="M273.744 275.471H57.4863V289.215H273.744V275.471Z" fill="#F0F0F0"/>
<path d="M273.744 433.63H322.654V275.46H273.744V433.63Z" fill="#F5F5F5"/>
<path d="M273.732 433.63H281.801V275.46H273.732V433.63Z" fill="#F0F0F0"/>
<path d="M294.5 484.853C420.643 484.853 522.903 479.106 522.903 472.016C522.903 464.926 420.643 459.179 294.5 459.179C168.357 459.179 66.0977 464.926 66.0977 472.016C66.0977 479.106 168.357 484.853 294.5 484.853Z" fill="#F5F5F5"/>
<path d="M220.286 171.234C218.178 173.163 215.674 174.646 212.935 175.588C212.787 172.699 212.268 169.839 211.392 167.072C211.392 167.072 211.628 173.252 209.802 176.654C207.207 177.447 204.563 178.083 201.886 178.56C201.72 177.79 201.5 177.032 201.226 176.292C201.143 177.132 200.965 177.961 200.696 178.764C191.778 180.329 179.492 182.88 168.383 181.032C161.61 172.64 168.701 166.437 169.396 161.482C170.303 154.995 163.989 153.475 164.755 148.214C165.521 142.952 171.635 146.15 174.709 140.196C178.785 132.258 187.738 127.552 195.56 129.038C205.914 131.022 202.345 145.957 210.344 150.754C218.342 155.551 222.312 163.829 220.286 171.234Z" fill="#263238"/>
<path d="M220.11 173.196H220.015C219.979 173.184 219.946 173.166 219.918 173.142C219.889 173.118 219.866 173.089 219.85 173.056C219.833 173.023 219.824 172.988 219.822 172.951C219.82 172.915 219.826 172.879 219.839 172.844C222.018 166.743 223.043 158.896 211.463 152.285C207.187 149.835 205.997 145.424 204.831 141.16C203.264 135.388 201.803 129.945 192.768 130.07C192.695 130.065 192.626 130.034 192.574 129.984C192.522 129.934 192.491 129.868 192.485 129.798C192.482 129.761 192.487 129.723 192.5 129.688C192.513 129.653 192.533 129.621 192.56 129.594C192.587 129.567 192.619 129.546 192.655 129.532C192.691 129.519 192.73 129.512 192.768 129.514C202.192 129.389 203.841 135.298 205.396 141.013C206.515 145.175 207.693 149.473 211.758 151.809C223.832 158.703 222.454 167.22 220.38 173.026C220.357 173.076 220.32 173.12 220.271 173.15C220.223 173.18 220.167 173.196 220.11 173.196Z" fill="#263238"/>
<path d="M207.328 246.441C207.328 246.441 206.857 301.894 203.252 347.446C195.442 392.534 188.598 454.428 188.598 454.428H181.129C181.129 454.428 173.602 372.292 181.907 345.87C176.983 311.986 178.514 247.359 178.514 247.359L207.328 246.441Z" fill="#B55B52"/>
<path d="M217.188 197.554C217.188 198.076 217.188 198.847 217.188 199.504L217.282 201.58C217.365 202.974 217.494 204.369 217.659 205.741C217.964 208.481 218.46 211.197 219.144 213.872C219.8 216.425 220.715 218.909 221.877 221.289C222.946 223.485 224.396 225.491 226.164 227.219L226.6 227.639C226.4 227.443 226.14 227.312 225.858 227.265C225.717 227.265 225.858 227.333 226.223 227.321C227.197 227.222 228.149 226.985 229.051 226.618C231.457 225.678 233.774 224.54 235.977 223.216C238.333 221.867 240.619 220.37 242.916 218.828C245.213 217.286 247.522 215.675 249.748 214.088C250.285 213.703 250.951 213.522 251.619 213.58C252.286 213.639 252.907 213.932 253.364 214.404C253.82 214.875 254.08 215.493 254.093 216.138C254.107 216.782 253.872 217.409 253.435 217.898C251.48 220.098 249.442 222.082 247.333 224.078C245.225 226.074 242.998 227.945 240.63 229.748C238.182 231.65 235.546 233.317 232.761 234.727C231.08 235.558 229.283 236.15 227.425 236.484C226.129 236.709 224.8 236.686 223.514 236.416C221.82 236.055 220.284 235.195 219.12 233.955L219.568 234.386C216.732 232.034 214.368 229.201 212.594 226.029C210.913 223.056 209.597 219.905 208.671 216.639C207.757 213.498 207.092 210.295 206.68 207.057C206.48 205.458 206.339 203.848 206.244 202.237C206.244 201.432 206.162 200.627 206.15 199.811C206.138 198.994 206.15 198.234 206.15 197.259C206.238 195.904 206.866 194.634 207.904 193.715C208.941 192.795 210.308 192.298 211.718 192.325C213.128 192.353 214.472 192.904 215.469 193.864C216.467 194.824 217.04 196.117 217.07 197.475L217.188 197.554Z" fill="#B55B52"/>
<path d="M261.21 214.02L260.915 209.654C260.891 209.309 260.792 208.974 260.624 208.668C260.456 208.363 260.224 208.095 259.942 207.881C259.66 207.667 259.335 207.513 258.987 207.428C258.639 207.342 258.277 207.328 257.923 207.386C255.663 207.753 253.592 208.83 252.033 210.448L247.086 215.551L246.19 220.314C250.172 222.196 255.744 218.34 255.744 218.34L259.808 216.413C260.261 216.192 260.637 215.847 260.886 215.421C261.136 214.995 261.248 214.507 261.21 214.02Z" fill="#B55B52"/>
<path d="M213.607 189.537C221.417 195.581 220.227 202.249 221.959 207.17C218.342 213.067 204.042 215.845 204.042 215.845C204.042 215.845 205.184 183.016 213.607 189.537Z" fill="#407BFF"/>
<path d="M217.07 196.182C218.248 211.661 208.482 223.398 207.646 239.716L167.052 238.764C168.23 222.888 167.735 224.453 161.94 193.71C161.779 192.861 161.801 191.99 162.004 191.15C162.207 190.31 162.587 189.519 163.12 188.826C163.654 188.133 164.329 187.553 165.104 187.121C165.88 186.689 166.739 186.415 167.629 186.316C170.645 185.987 174.379 185.67 178.302 185.602C184.876 185.324 191.462 185.503 198.01 186.135C202.239 186.622 206.751 187.405 210.191 188.063C214.231 188.8 216.752 192.213 217.07 196.182Z" fill="#407BFF"/>
<path d="M199.165 201.659C199.33 203.258 198.493 204.551 197.292 204.551C196.09 204.551 194.936 203.27 194.818 201.671C194.7 200.072 195.489 198.768 196.691 198.768C197.892 198.768 199 200.06 199.165 201.659Z" fill="white"/>
<path d="M196.985 194.435C199.718 195.105 202.64 196.908 203.806 201.512C211.958 189.763 198.034 186.101 198.034 186.101L196.985 194.435Z" fill="white"/>
<path d="M192.191 195.048C191.187 194.923 190.168 194.989 189.191 195.244C188.214 195.499 187.3 195.938 186.499 196.534C185.699 197.13 185.029 197.873 184.528 198.72C184.027 199.566 183.705 200.5 183.58 201.466C174.639 190.263 178.326 185.522 178.326 185.522L192.191 195.048Z" fill="white"/>
<path d="M180.906 164.26C181.966 170.395 182.885 181.61 178.326 185.568C178.326 185.568 186.36 193.948 195.513 196.159C196.85 194.866 197.793 193.244 198.237 191.47C198.682 189.696 198.611 187.839 198.034 186.101C190.966 184.286 191.343 179.24 192.709 174.534L180.906 164.26Z" fill="#B55B52"/>
<path opacity="0.2" d="M185.712 168.456L192.709 174.522C192.364 175.633 192.127 176.772 192.003 177.924C189.305 177.471 185.677 174.522 185.476 171.79C185.34 170.674 185.42 169.543 185.712 168.456Z" fill="black"/>
<path d="M173.425 157.433C177.572 166.834 179.127 170.894 185.983 174.103C196.29 178.934 207.375 171.971 206.232 161.572C205.196 152.206 198.587 138.416 187.384 137.917C184.922 137.802 182.47 138.295 180.261 139.348C178.052 140.401 176.158 141.979 174.76 143.934C173.362 145.888 172.506 148.154 172.272 150.517C172.039 152.879 172.435 155.26 173.425 157.433Z" fill="#B55B52"/>
<path d="M172.165 149.937C185.429 149.835 203.971 143.451 198.517 136.772C195.725 123.481 172.354 137.316 172.165 149.937Z" fill="#263238"/>
<path d="M174.168 147.737C183.05 152.523 180.694 161.788 175.063 163.613C169.114 156.741 167.63 146.535 174.168 147.737Z" fill="#263238"/>
<path d="M173.166 166.528C173.857 167.259 174.692 167.851 175.622 168.269C176.552 168.688 177.559 168.924 178.585 168.966C181.306 169.056 182.025 166.573 180.729 164.43C179.551 162.502 176.759 160.132 174.285 161.028C173.76 161.247 173.297 161.587 172.938 162.016C172.579 162.446 172.334 162.953 172.224 163.495C172.114 164.036 172.142 164.595 172.306 165.123C172.47 165.651 172.765 166.133 173.166 166.528Z" fill="#B55B52"/>
<path d="M196.467 247.779C196.467 247.779 188.904 304.479 176.7 349.272C160.043 383.394 140.429 409.748 120.321 437.724L113.253 434.095C127.047 403.953 141.808 368.255 155.779 344.758C165.886 259.232 164.767 247.813 164.767 247.813L196.467 247.779Z" fill="#B55B52"/>
<path d="M125.222 460.404C124.774 458.578 120.957 453.77 120.957 453.77C120.957 453.77 119.779 447.25 123.243 435.229C123.284 435.089 123.284 434.94 123.242 434.8C123.201 434.66 123.119 434.534 123.007 434.436L116.08 428.403C115.882 428.242 115.627 428.161 115.369 428.176C115.11 428.191 114.867 428.3 114.69 428.482C114.101 429.072 112.193 432.338 111.51 433.336C110.826 434.333 109.813 435.785 109.154 436.738C106.798 440.321 101.768 448.52 101.768 448.52L102.675 448.985C104.34 446.555 106.154 444.223 108.105 441.999C110.155 439.901 110.061 443.598 109.283 446.762C108.506 449.926 110.603 454.859 116.351 458.102C123.184 461.765 125.693 462.275 125.222 460.404Z" fill="#263238"/>
<path d="M207.67 239.682C216.269 265.855 209.731 292.424 205.644 342.593C186.796 345.325 169.915 342.593 150.513 336.923C162.976 279.338 147.604 264.982 167.076 238.729L207.67 239.682Z" fill="#407BFF"/>
<path d="M166.381 235.872C166.148 236.888 165.991 237.919 165.91 238.957C165.87 239.156 165.907 239.362 166.013 239.537C166.119 239.712 166.287 239.844 166.487 239.909C170.857 240.556 196.443 244.139 207.87 241.417C208.033 241.354 208.169 241.241 208.259 241.095C208.348 240.95 208.385 240.78 208.365 240.612C208.365 239.671 208.365 238.197 208.365 237.278C208.365 236.802 208.07 236.405 207.705 236.405C203.712 236.405 182.637 236.496 166.97 235.362C166.824 235.364 166.684 235.416 166.575 235.51C166.467 235.604 166.398 235.733 166.381 235.872Z" fill="#263238"/>
<path d="M187.126 235.475C189.093 234.976 200.637 235.305 201.686 235.77C202.734 236.235 202.228 242.37 201.297 242.755C199.448 243.549 188.928 243.345 187.031 242.937C185.135 242.528 185.783 235.872 187.126 235.475Z" fill="white"/>
<path opacity="0.2" d="M187.243 303.073L188.833 277.784L197.904 265.775L187.243 303.073Z" fill="black"/>
<path d="M169.514 200.718C167.948 202.578 166.228 204.63 164.685 206.66C163.141 208.69 161.551 210.754 160.138 212.863C157.299 216.801 155.013 221.083 153.341 225.598C153.199 226.12 153.034 226.63 152.94 227.118L152.858 227.435C152.858 227.435 152.858 227.492 152.858 227.571C152.973 228.316 153.228 229.035 153.611 229.692C154.798 231.721 156.208 233.622 157.817 235.362C161.337 239.207 165.077 242.86 169.02 246.305L169.09 246.373C169.575 246.811 169.877 247.404 169.939 248.042C170.001 248.679 169.818 249.316 169.425 249.832C169.032 250.348 168.456 250.709 167.807 250.844C167.157 250.98 166.478 250.882 165.898 250.569C160.87 247.881 156.155 244.684 151.833 241.032C149.478 239.064 147.388 236.82 145.613 234.353C144.479 232.78 143.678 231.007 143.257 229.136C143.136 228.527 143.073 227.908 143.068 227.288C143.068 226.97 143.068 226.619 143.068 226.267C143.068 225.916 143.127 225.836 143.163 225.609C143.269 224.782 143.445 224.011 143.61 223.228C144.349 220.319 145.399 217.492 146.744 214.791C148.004 212.226 149.42 209.735 150.985 207.329C152.516 204.948 154.094 202.623 155.814 200.412C157.534 198.201 159.242 196.057 161.257 193.869C162.212 192.868 163.533 192.261 164.943 192.177C166.353 192.093 167.742 192.537 168.818 193.417C169.895 194.297 170.577 195.544 170.72 196.896C170.862 198.249 170.456 199.602 169.585 200.673L169.514 200.718Z" fill="#B55B52"/>
<path d="M168.136 186.225C160.444 186.668 157.923 190.875 155.272 195.399C157.628 201.852 167.406 212.217 167.406 212.217C167.406 212.217 182.107 185.432 168.136 186.225Z" fill="#407BFF"/>
<path d="M252.339 208.044C239.252 199.732 221.853 204.426 213.465 218.511C200.366 210.198 182.967 214.893 174.591 228.977C166.216 243.062 170.044 261.228 183.132 269.541L230.546 299.626L260.868 248.596C269.267 234.511 265.439 216.356 252.339 208.044Z" fill="#407BFF"/>
<path opacity="0.9" d="M252.339 208.044C239.252 199.732 221.853 204.426 213.465 218.511C200.366 210.198 182.967 214.893 174.591 228.977C166.216 243.062 170.044 261.228 183.132 269.541L230.546 299.626L260.868 248.596C269.267 234.511 265.439 216.356 252.339 208.044Z" fill="white"/>
<path opacity="0.2" d="M186.041 264.698C183.45 263.011 181.232 260.845 179.517 258.326C177.802 255.807 176.625 252.985 176.052 250.024C174.752 243.819 175.84 237.37 179.115 231.88C182.175 226.521 187.318 222.549 193.416 220.835C196.302 220.036 199.335 219.852 202.302 220.294C205.27 220.737 208.103 221.796 210.603 223.398L215.103 226.255L217.977 221.413C221.042 216.054 226.189 212.082 232.29 210.368C235.174 209.569 238.205 209.385 241.171 209.828C244.137 210.27 246.967 211.329 249.465 212.931C260.067 219.656 263.165 234.398 256.392 245.817L228.956 291.993L186.041 264.698Z" fill="#407BFF"/>
<path d="M231.418 270.13L218.048 273.725L209.437 232.867L222.807 229.272L231.418 270.13Z" fill="#407BFF"/>
<path d="M202.321 263.746L199.376 249.798L238.533 239.251L241.466 253.2L202.321 263.746Z" fill="#407BFF"/>
<path d="M165.662 244.49L175.817 244.728L170.48 252.587C170.48 252.587 164.426 251.147 162.871 247.03L165.662 244.49Z" fill="#B55B52"/>
<path d="M180.022 250.399L178.102 254.538C177.996 254.782 177.835 255.001 177.63 255.178C177.425 255.355 177.182 255.486 176.919 255.562C176.655 255.638 176.377 255.657 176.105 255.617C175.833 255.577 175.574 255.479 175.346 255.331L170.48 252.587L175.817 244.729L179.421 247.926C179.766 248.234 180.008 248.633 180.115 249.074C180.222 249.514 180.19 249.976 180.022 250.399Z" fill="#B55B52"/>
<path d="M205.879 470.009C204.454 468.603 199.023 466.754 199.023 466.754C199.023 466.754 193.946 460.188 189.917 448.032C189.869 447.887 189.783 447.757 189.668 447.654C189.552 447.551 189.411 447.478 189.258 447.442L179.999 445.31C179.873 445.273 179.741 445.262 179.61 445.278C179.48 445.294 179.355 445.337 179.243 445.404C179.132 445.47 179.036 445.559 178.963 445.664C178.89 445.77 178.842 445.889 178.821 446.013C178.667 446.796 178.821 451.264 178.821 452.466C178.821 453.668 178.821 455.392 178.821 456.537C178.903 460.767 179.386 470.281 179.386 470.281H180.411C180.415 467.396 180.6 464.515 180.964 461.651C181.471 458.862 183.521 462.162 184.663 465.314C185.806 468.467 190.412 471.823 197.103 471.982C204.972 472.163 207.328 471.472 205.879 470.009Z" fill="#263238"/>
<path d="M390.354 445.027L408.377 445.186L407.694 465.666L392.639 465.541L390.354 445.027Z" fill="#FFC3BD"/>
<path opacity="0.2" d="M390.366 445.027L408.389 445.197L408 456.662L391.638 456.526L390.366 445.027Z" fill="black"/>
<path d="M409.485 363.492C415.775 336.56 426.189 308.119 415.222 283.954L365.18 288.161C365.18 288.161 370.14 345.484 371.471 369.707C372.861 394.893 389.847 452.999 389.847 452.999H410.462C410.462 452.999 413.643 391.377 409.485 363.492Z" fill="#263238"/>
<path d="M410.58 471.994H405.868L404.69 470.463L402.723 472.016H376.147C375.886 470.248 376.13 468.444 376.854 466.8C376.854 466.8 386.078 465.36 389.647 463.001C389.95 462.8 390.292 462.66 390.652 462.59C391.013 462.52 391.384 462.521 391.744 462.593C394.96 463.182 403.465 464.509 408.071 462.785C408.185 462.753 408.304 462.745 408.421 462.763C408.538 462.78 408.65 462.823 408.748 462.887C408.846 462.951 408.928 463.035 408.988 463.133C409.048 463.231 409.085 463.341 409.096 463.454C409.36 466.334 409.857 469.188 410.58 471.994Z" fill="#263238"/>
<path d="M468.066 433.142L485.43 428.459L492.121 447.907L477.62 451.842L468.066 433.142Z" fill="#FFC3BD"/>
<path opacity="0.2" d="M468.078 433.154L485.442 428.459L489.188 439.357L473.426 443.621L468.078 433.154Z" fill="black"/>
<path d="M465.816 358.582C464.803 332.296 463.095 292.98 452.858 281.742L396.821 285.405C396.821 285.405 417.754 341.334 425.823 364.966C434.222 389.54 470.481 440.774 470.481 440.774L489.211 435.592C489.211 435.592 475.912 387.828 465.816 358.582Z" fill="#263238"/>
<path d="M313.902 247.915L315.445 255.07C314.267 262.657 304.348 259.425 304.348 259.425L298.965 259.72C298.01 259.714 297.088 259.381 296.365 258.781C295.641 258.18 295.164 257.351 295.019 256.442L293.899 251.453C293.601 250.439 293.726 249.354 294.248 248.428C294.77 247.502 295.646 246.809 296.691 246.497L301.285 245.511C302.621 245.227 304.008 245.262 305.326 245.613L313.902 247.915Z" fill="#FFC3BD"/>
<path d="M285.653 262.328C281.508 262.321 277.485 260.976 274.226 258.51C270.968 256.043 268.662 252.596 267.677 248.72C267.566 248.281 267.641 247.818 267.885 247.432C268.129 247.046 268.522 246.769 268.978 246.662C269.435 246.555 269.916 246.627 270.317 246.862C270.718 247.097 271.006 247.476 271.116 247.915C272.054 251.637 274.489 254.848 277.885 256.842C281.282 258.835 285.362 259.449 289.228 258.546C293.094 257.644 296.43 255.3 298.501 252.03C300.572 248.761 301.209 244.833 300.272 241.111L251.42 46.596C251.311 46.1569 251.387 45.694 251.633 45.3091C251.878 44.9241 252.272 44.6488 252.728 44.5435C253.184 44.4382 253.665 44.5117 254.065 44.7478C254.465 44.9838 254.751 45.3631 254.86 45.8022L303.7 240.283C304.276 242.561 304.379 244.926 304.005 247.242C303.63 249.559 302.784 251.781 301.516 253.782C300.248 255.784 298.582 257.525 296.614 258.906C294.646 260.286 292.414 261.28 290.047 261.829C288.608 262.163 287.133 262.33 285.653 262.328Z" fill="#263238"/>
<path d="M126.776 133.676C126.234 128.992 134.822 123.175 146.461 120.465C158.512 117.664 169.208 119.24 170.409 123.991C169.231 119.24 181.271 112.368 197.339 108.626C213.406 104.883 227.354 105.7 228.532 110.451C227.354 105.7 243.599 97.8526 264.838 92.9084C286.077 87.9642 304.301 87.7941 305.491 92.5455C304.313 87.7941 316.34 80.922 332.408 77.1798C348.476 73.4376 362.435 74.2541 363.625 79.0056C362.447 74.2541 371.235 68.1418 383.25 65.3976C394.889 62.6873 405.326 64.0708 407.058 68.4934C399.224 39.9052 330.888 31.2528 253.847 49.2154C176.806 67.1779 120.156 104.804 126.776 133.676Z" fill="#407BFF"/>
<path opacity="0.2" d="M170.409 123.992C169.231 119.24 181.271 112.368 197.338 108.626C213.406 104.884 227.354 105.7 228.532 110.452C227.354 105.7 243.598 97.8529 264.838 92.9086C286.077 87.9644 304.301 87.7943 305.491 92.5457C304.313 87.7943 316.34 80.9222 332.408 77.18C348.476 73.4378 362.435 74.2543 363.625 79.0058C356.368 50.0888 307.222 36.7076 253.847 49.1362C200.472 61.5649 163.141 95.0632 170.409 123.992Z" fill="black"/>
<path d="M228.532 110.451C227.354 105.7 243.599 97.8527 264.838 92.9084C286.077 87.9642 304.301 87.7941 305.491 92.5456C298.258 63.6172 275.122 44.2258 253.883 49.136C232.643 54.0463 221.299 81.5231 228.532 110.451Z" fill="#407BFF"/>
<path d="M315.704 248.743C312.488 243.277 306.645 243.594 302.039 242.472C301.262 242.279 300.025 243.98 300.979 245.046C301.506 245.745 302.174 246.335 302.943 246.782C303.712 247.228 304.566 247.52 305.455 247.643C305.679 249.593 308.271 254.696 313.996 254.14C315.233 252.603 315.84 250.683 315.704 248.743Z" fill="#FFC3BD"/>
<path d="M397.634 203.825C395.184 207.363 392.663 210.787 390.154 214.246C387.645 217.705 385.076 221.118 382.473 224.52C377.278 231.324 371.965 238.072 366.37 244.796L364.014 247.665L361.811 248.584C360.633 249.071 359.455 249.582 358.359 250.001L355.132 251.135C353.058 251.793 350.997 252.439 348.983 252.995C344.954 254.129 340.96 255.104 337.002 256.011C333.044 256.919 329.063 257.712 325.105 258.438C321.146 259.164 317.188 259.844 313.112 260.4L308.294 242.596L330.017 234.409C333.61 233.071 337.085 231.642 340.56 230.247C342.28 229.544 343.905 228.818 345.519 228.104L347.757 226.97L349.666 225.949L345.072 229.737C349.725 222.933 354.366 215.913 359.031 208.939L366.099 198.461C368.455 194.991 370.811 191.464 373.167 188.051L397.634 203.825Z" fill="#407BFF"/>
<g opacity="0.6">
<path d="M397.634 203.825C395.184 207.363 392.663 210.787 390.154 214.246C387.645 217.705 385.076 221.118 382.473 224.52C377.278 231.324 371.965 238.072 366.37 244.796L364.014 247.665L361.811 248.584C360.633 249.071 359.455 249.582 358.359 250.001L355.132 251.135C353.058 251.793 350.997 252.439 348.983 252.995C344.954 254.129 340.96 255.104 337.002 256.011C333.044 256.919 329.063 257.712 325.105 258.438C321.146 259.164 317.188 259.844 313.112 260.4L308.294 242.596L330.017 234.409C333.61 233.071 337.085 231.642 340.56 230.247C342.28 229.544 343.905 228.818 345.519 228.104L347.757 226.97L349.666 225.949L345.072 229.737C349.725 222.933 354.366 215.913 359.031 208.939L366.099 198.461C368.455 194.991 370.811 191.464 373.167 188.051L397.634 203.825Z" fill="white"/>
</g>
<path d="M385.772 178.639C402.24 175.669 418.999 174.467 435.742 175.055C438.037 175.181 440.281 175.757 442.337 176.747C444.392 177.737 446.216 179.12 447.697 180.813C449.178 182.505 450.285 184.47 450.95 186.588C451.614 188.706 451.823 190.933 451.563 193.131C447.346 231.415 455.438 276.412 455.332 283.919C455.332 283.919 382.296 312.87 362.753 290.939C353.329 245.307 366.9 205.571 373.238 188.958C374.232 186.347 375.907 184.027 378.102 182.22C380.297 180.412 382.938 179.179 385.772 178.639Z" fill="#407BFF"/>
<path d="M452.187 181.916C449.042 178.038 443.446 172.935 424.681 173.864C408.401 187.586 397.057 206.478 397.057 206.478C397.057 206.478 386.714 192.405 396.527 176.427C385.724 176.711 378.656 179.931 376.112 181.632C373.567 183.333 361.092 206.195 358.336 242.483C355.579 278.771 361.646 346.629 364.002 364.014C399.142 377.622 457.253 362.313 469.622 350.406C468.055 322.815 457.264 281.424 455.297 263.847C453.33 246.27 457.288 189.57 452.187 181.916Z" fill="#407BFF"/>
<path opacity="0.7" d="M452.187 181.916C449.042 178.038 443.446 172.935 424.681 173.864C408.401 187.586 397.057 206.478 397.057 206.478C397.057 206.478 386.714 192.405 396.527 176.427C385.724 176.711 378.656 179.931 376.112 181.632C373.567 183.333 361.092 206.195 358.336 242.483C355.579 278.771 361.646 346.629 364.002 364.014C399.142 377.622 457.253 362.313 469.622 350.406C468.055 322.815 457.264 281.424 455.297 263.847C453.33 246.27 457.288 189.57 452.187 181.916Z" fill="white"/>
<path d="M393.888 180.725C394.79 178.595 396.413 176.821 398.494 175.69C399.113 173.597 398.963 171.362 398.07 169.362L421.948 159.689C420.687 167.684 419.721 174.001 423.126 177.539C418.555 180.793 410.168 186.667 400.496 187.246C390.825 187.824 392.627 184.138 393.888 180.725Z" fill="#FFC3BD"/>
<path opacity="0.2" d="M398.329 170.1L416.682 167.446C411.476 173.887 402.935 176.881 398.73 174.817C399.016 173.238 398.878 171.614 398.329 170.1Z" fill="black"/>
<path d="M399.896 187.269L403.583 183.708L409.19 185.829C409.19 185.829 406.056 189.231 399.896 187.269Z" fill="#407BFF"/>
<path opacity="0.3" d="M399.896 187.269L403.583 183.708L409.19 185.829C409.19 185.829 406.056 189.231 399.896 187.269Z" fill="black"/>
<path d="M397.658 156.129C392.84 155.392 390.59 148.69 393.747 144.97C396.904 141.251 389.412 139.822 391.897 136.238C394.383 132.655 401.51 129.06 405.856 132.36C410.203 135.66 400.332 145.424 402.464 151.207C400.951 152.927 399.347 154.569 397.658 156.129Z" fill="#263238"/>
<path d="M425.599 147.204C423.762 158.465 422.266 166.074 414.997 170.236C400.508 178.503 392.969 171.585 391.272 160.03C389.741 149.608 392.992 132.95 404.961 129.593C407.605 128.853 410.401 128.771 413.088 129.352C415.775 129.934 418.265 131.161 420.325 132.92C422.386 134.678 423.951 136.91 424.873 139.408C425.795 141.906 426.045 144.588 425.599 147.204Z" fill="#FFC3BD"/>
<path d="M420.381 159.134C415.846 157.422 415.127 150.391 419.073 147.431C423.02 144.471 415.999 141.5 419.238 138.507C422.478 135.513 431.996 132.587 433.728 137.633C436.449 145.571 425.399 149.246 426.177 155.335C424.315 156.697 422.38 157.965 420.381 159.134Z" fill="#263238"/>
<path d="M421.535 138.03C410.191 141.795 412.889 134.129 406.575 135.195C400.261 136.261 393.97 137.305 392.686 131.793C391.638 127.348 394.701 123.288 400.779 123.685C397.634 125.704 398.423 127.711 401.521 126.702C404.619 125.692 412.441 118.401 416.529 124.207C420.617 130.013 427.649 125.556 430.936 129.344C434.223 133.131 428.957 139.482 421.535 138.03Z" fill="#263238"/>
<path d="M393.958 168.217C394.289 167.671 394.736 167.199 395.27 166.831C395.804 166.464 396.413 166.21 397.057 166.085C398.646 166.612 400.103 167.454 401.333 168.558C401.922 171.302 395.443 174.069 394.5 174.443C394.171 171.994 393.958 168.217 393.958 168.217Z" fill="#263238"/>
<path opacity="0.2" d="M409.944 147.998C410.615 147.763 411.328 147.658 412.042 147.689C412.755 147.72 413.456 147.887 414.102 148.179C412.717 148.376 411.305 148.314 409.944 147.998Z" fill="black"/>
<path opacity="0.2" d="M409.944 148.951C410.591 148.867 411.249 148.919 411.873 149.103C412.497 149.287 413.073 149.599 413.56 150.017C412.29 149.914 411.056 149.551 409.944 148.951Z" fill="black"/>
<path opacity="0.2" d="M393.723 146.683C393.723 146.683 392.757 145.549 392.039 146.184C392.512 146.554 393.116 146.733 393.723 146.683Z" fill="black"/>
<path opacity="0.2" d="M393.546 147.567C393.546 147.567 392.757 146.569 392.25 147.567C392.443 147.689 392.668 147.754 392.898 147.754C393.129 147.754 393.354 147.689 393.546 147.567Z" fill="black"/>
<path opacity="0.2" d="M397.257 137.962C400.698 137.35 404.21 137.198 407.694 137.509C401.91 138.03 397.257 137.962 397.257 137.962Z" fill="black"/>
<path opacity="0.2" d="M395.914 139.482C395.914 139.482 403.889 139.21 407.883 140.729C403.865 140.622 399.862 140.205 395.914 139.482Z" fill="black"/>
<path d="M430.088 158.862C429.267 160.033 428.214 161.037 426.989 161.815C425.764 162.594 424.391 163.131 422.949 163.398C419.074 164.089 417.448 160.676 418.779 157.319C419.957 154.303 423.491 150.311 427.225 151.128C430.96 151.944 432.079 155.925 430.088 158.862Z" fill="#FFC3BD"/>
<path d="M405.538 158.533C407.046 159.599 411.334 158.907 411.628 157.399C414.397 159.213 412.135 162.037 408.094 162.899C404.054 163.761 398.812 162.185 397.657 160.778L397.799 156.118C400.861 155.562 402.876 156.673 405.538 158.533Z" fill="#263238"/>
<path d="M392.027 157.365C390.389 158.408 389.329 157.739 389.388 156.231C386.82 157.728 387.032 160.087 390.036 161.368C393.04 162.65 396.515 162.06 397.705 160.801L397.987 156.197C395.678 155.358 394.5 155.8 392.027 157.365Z" fill="#263238"/>
<path d="M475.04 273.214L482.108 270.561C490.083 270.493 488.41 280.381 488.41 280.381L489.588 285.45C489.74 286.355 489.552 287.283 489.058 288.066C488.563 288.85 487.795 289.438 486.891 289.726L481.955 291.619C480.967 292.068 479.836 292.128 478.804 291.784C477.771 291.441 476.919 290.722 476.43 289.782L474.651 285.586C474.137 284.365 473.942 283.041 474.086 281.731L475.04 273.214Z" fill="#FFC3BD"/>
<path d="M450.703 180.396L452.246 181.53L453.636 182.664C454.543 183.39 455.415 184.127 456.286 184.864C458.03 186.35 459.738 187.847 461.411 189.4C464.756 192.474 467.972 195.728 471.082 199.13C472.653 200.831 474.172 202.585 475.641 204.392C477.109 206.199 478.539 208.089 479.929 210.062C482.827 214.112 485.342 218.405 487.444 222.887L488.493 225.155L488.622 226.834C488.94 230.78 489.188 234.772 489.447 238.707L490.236 250.58C490.684 258.518 491.132 266.456 491.414 274.394L470.717 276.605C469.162 268.826 467.784 261.024 466.382 253.233L464.403 241.542C463.743 237.641 463.083 233.74 462.483 229.839L463.661 233.785C461.986 230.9 460.055 228.161 457.888 225.598C455.603 222.887 453.082 220.211 450.396 217.592C447.71 214.972 444.848 212.443 441.903 209.994C440.434 208.754 438.938 207.548 437.415 206.376L435.153 204.653L434.034 203.825L433.056 203.122L450.703 180.396Z" fill="#407BFF"/>
<g opacity="0.7">
<path d="M450.703 180.396L452.246 181.53L453.636 182.664C454.543 183.39 455.415 184.127 456.286 184.864C458.03 186.35 459.738 187.847 461.411 189.4C464.756 192.474 467.972 195.728 471.082 199.13C472.653 200.831 474.172 202.585 475.641 204.392C477.109 206.199 478.539 208.089 479.929 210.062C482.827 214.112 485.342 218.405 487.444 222.887L488.493 225.155L488.622 226.834C488.94 230.78 489.188 234.772 489.447 238.707L490.236 250.58C490.684 258.518 491.132 266.456 491.414 274.394L470.717 276.605C469.162 268.826 467.784 261.024 466.382 253.233L464.403 241.542C463.743 237.641 463.083 233.74 462.483 229.839L463.661 233.785C461.986 230.9 460.055 228.161 457.888 225.598C455.603 222.887 453.082 220.211 450.396 217.592C447.71 214.972 444.848 212.443 441.903 209.994C440.434 208.754 438.938 207.548 437.415 206.376L435.153 204.653L434.034 203.825L433.056 203.122L450.703 180.396Z" fill="white"/>
</g>
<path d="M420.935 172.583C420.935 172.583 413.867 182.347 403.583 183.73C407.739 185.38 411.449 187.921 414.432 191.158C414.432 191.158 425.034 183.22 426.483 175.441C425.458 172.64 420.935 172.583 420.935 172.583Z" fill="#407BFF"/>
<path opacity="0.3" d="M403.335 365.34C403.199 365.343 403.066 365.298 402.961 365.215C402.855 365.132 402.783 365.016 402.758 364.887C386.502 287.695 396.138 208.622 396.232 207.828C396.241 207.753 396.266 207.681 396.304 207.616C396.342 207.551 396.393 207.493 396.455 207.447C396.516 207.4 396.586 207.366 396.661 207.346C396.736 207.326 396.814 207.32 396.892 207.329C396.969 207.338 397.044 207.361 397.112 207.398C397.18 207.435 397.239 207.484 397.288 207.543C397.336 207.602 397.371 207.669 397.392 207.742C397.413 207.814 397.419 207.889 397.41 207.964C397.316 208.758 387.703 287.65 403.924 364.66C403.953 364.807 403.92 364.959 403.835 365.084C403.749 365.208 403.617 365.296 403.465 365.329L403.335 365.34Z" fill="#407BFF"/>
<path d="M420.711 227.537H402.982C402.677 227.545 402.375 227.488 402.096 227.369C401.817 227.25 401.569 227.073 401.371 226.85C401.172 226.627 401.027 226.365 400.948 226.081C400.868 225.798 400.854 225.501 400.909 225.212L402.087 217.422C402.217 216.796 402.564 216.23 403.071 215.818C403.578 215.406 404.216 215.172 404.879 215.154H422.549C422.848 215.147 423.145 215.204 423.418 215.319C423.692 215.435 423.937 215.607 424.134 215.823C424.332 216.039 424.478 216.294 424.562 216.57C424.646 216.847 424.667 217.137 424.622 217.422L423.444 225.212C423.328 225.84 422.995 226.411 422.499 226.833C422.002 227.255 421.372 227.503 420.711 227.537Z" fill="white"/>
<path d="M414.432 217.002H412.512C412.434 217.005 412.357 216.991 412.285 216.961C412.214 216.931 412.15 216.886 412.1 216.83C412.049 216.773 412.012 216.706 411.991 216.634C411.971 216.562 411.968 216.486 411.982 216.412L412.7 211.785C412.728 211.623 412.814 211.475 412.943 211.367C413.072 211.26 413.236 211.199 413.407 211.196H415.327C415.405 211.193 415.483 211.207 415.554 211.236C415.625 211.266 415.689 211.311 415.74 211.368C415.791 211.424 415.828 211.491 415.848 211.564C415.868 211.636 415.872 211.712 415.857 211.785L415.139 216.412C415.111 216.574 415.026 216.722 414.896 216.83C414.767 216.938 414.603 216.999 414.432 217.002Z" fill="#407BFF"/>
<path d="M399.896 187.269L395.007 183.765L389.412 185.908C389.412 185.908 394.206 190.262 399.896 187.269Z" fill="#407BFF"/>
<path opacity="0.3" d="M399.896 187.269L395.007 183.765L389.412 185.908C389.412 185.908 394.206 190.262 399.896 187.269Z" fill="black"/>
<path d="M398.494 175.691C398.494 175.691 394.96 180.521 394.96 183.765C391.426 185.33 386.078 189.673 386.078 189.673C386.078 189.673 386.773 182.869 393.852 176.938C395.234 176.081 396.851 175.647 398.494 175.691Z" fill="#407BFF"/>
<path d="M497.717 449.529L494.477 451.661L492.71 450.969L491.909 453.362L472.378 466.21C471.204 464.809 470.436 463.135 470.151 461.357C470.151 461.357 475.641 457.002 475.888 452.715C475.894 452.555 475.947 452.4 476.041 452.268C476.135 452.135 476.266 452.031 476.418 451.967C478.645 451.083 487.362 447.431 490.554 443.133C490.633 443.026 490.737 442.938 490.858 442.877C490.979 442.816 491.113 442.785 491.249 442.785C491.386 442.785 491.52 442.816 491.641 442.877C491.762 442.938 491.866 443.026 491.944 443.133C493.698 445.403 495.627 447.541 497.717 449.529Z" fill="#263238"/>
</svg>
