<svg width="638" height="573" viewBox="0 0 638 573" fill="none" xmlns="http://www.w3.org/2000/svg">
<g clip-path="url(#clip0_753_183)">
<path d="M324.055 573.343C501.402 573.343 645.171 565.041 645.171 554.801C645.171 544.56 501.402 536.259 324.055 536.259C146.709 536.259 2.94043 544.56 2.94043 554.801C2.94043 565.041 146.709 573.343 324.055 573.343Z" fill="#F5F5F5"/>
<path d="M474.286 440.107C503.263 440.107 526.754 416.874 526.754 388.215C526.754 359.556 503.263 336.323 474.286 336.323C445.309 336.323 421.819 359.556 421.819 388.215C421.819 416.874 445.309 440.107 474.286 440.107Z" fill="white"/>
<path d="M474.286 440.747C463.781 440.75 453.51 437.672 444.773 431.902C436.037 426.132 429.227 417.929 425.204 408.33C421.181 398.732 420.127 388.169 422.175 377.978C424.222 367.787 429.28 358.425 436.707 351.077C444.134 343.729 453.598 338.724 463.902 336.696C474.205 334.668 484.885 335.707 494.591 339.683C504.298 343.658 512.594 350.391 518.431 359.03C524.268 367.669 527.383 377.826 527.383 388.216C527.37 402.141 521.772 415.493 511.818 425.341C501.864 435.189 488.366 440.73 474.286 440.747ZM474.286 336.98C464.036 336.98 454.016 339.986 445.494 345.618C436.972 351.251 430.329 359.257 426.408 368.623C422.486 377.989 421.461 388.295 423.462 398.238C425.463 408.18 430.4 417.313 437.649 424.48C444.898 431.647 454.133 436.527 464.187 438.503C474.24 440.479 484.66 439.461 494.129 435.58C503.598 431.698 511.69 425.126 517.382 416.695C523.075 408.265 526.111 398.354 526.108 388.216C526.095 374.629 520.63 361.601 510.914 351.995C501.198 342.389 488.025 336.988 474.286 336.98Z" fill="#407BFF"/>
<path d="M482.733 358.798H465.84V417.635H482.733V358.798Z" fill="#407BFF"/>
<path d="M504.031 396.588V379.88H444.542V396.588H504.031Z" fill="#407BFF"/>
<path d="M404.975 497.406H232.12C229.304 497.436 226.512 496.887 223.921 495.793C221.331 494.699 218.999 493.084 217.074 491.051C215.148 489.017 213.672 486.61 212.738 483.982C211.805 481.353 211.434 478.562 211.65 475.784L239.59 66.2839C240.078 60.4357 242.747 54.9757 247.078 50.9648C251.408 46.9539 257.092 44.6784 263.025 44.5804H435.912C438.736 44.5485 441.536 45.0996 444.133 46.1986C446.729 47.2975 449.065 48.9201 450.992 50.9627C452.918 53.0053 454.393 55.4229 455.321 58.061C456.249 60.6991 456.611 63.4998 456.383 66.2839L428.393 475.784C427.89 481.616 425.216 487.056 420.89 491.05C416.563 495.045 410.893 497.309 404.975 497.406Z" fill="#263238"/>
<path d="M443.299 211.346H438.944C438.155 211.355 437.373 211.202 436.648 210.895C435.923 210.588 435.27 210.135 434.732 209.565C434.195 208.994 433.783 208.319 433.524 207.582C433.266 206.845 433.165 206.063 433.23 205.285L438.579 127.005C438.704 125.368 439.445 123.837 440.657 122.715C441.868 121.592 443.461 120.961 445.121 120.945H449.477C450.266 120.935 451.048 121.089 451.773 121.396C452.498 121.702 453.15 122.155 453.688 122.726C454.226 123.296 454.638 123.972 454.896 124.709C455.155 125.446 455.255 126.228 455.191 127.005L449.841 205.285C449.717 206.922 448.976 208.454 447.764 209.576C446.553 210.698 444.959 211.33 443.299 211.346Z" fill="#263238"/>
<path d="M237.073 159.125H232.734C232.092 159.134 231.455 159.01 230.864 158.763C230.273 158.515 229.74 158.148 229.299 157.687C228.859 157.225 228.52 156.677 228.304 156.079C228.089 155.481 228.001 154.845 228.047 154.211L229.985 125.939C230.107 124.612 230.721 123.376 231.708 122.469C232.696 121.562 233.987 121.048 235.334 121.025H239.69C240.33 121.022 240.964 121.149 241.552 121.398C242.14 121.648 242.67 122.015 243.108 122.476C243.546 122.937 243.884 123.482 244.099 124.078C244.315 124.674 244.404 125.308 244.36 125.939L242.423 154.211C242.304 155.54 241.691 156.778 240.703 157.685C239.715 158.593 238.422 159.106 237.073 159.125Z" fill="#407BFF"/>
<path d="M233.628 209.61H229.272C228.631 209.616 227.996 209.491 227.407 209.242C226.818 208.993 226.287 208.626 225.848 208.165C225.409 207.703 225.072 207.156 224.858 206.559C224.643 205.962 224.556 205.328 224.602 204.696L226.539 176.424C226.662 175.097 227.275 173.861 228.263 172.954C229.25 172.047 230.542 171.533 231.889 171.51H236.278C236.918 171.506 237.552 171.633 238.14 171.883C238.728 172.132 239.258 172.499 239.696 172.96C240.134 173.421 240.472 173.967 240.687 174.563C240.903 175.159 240.991 175.792 240.948 176.424L239.01 204.696C238.891 206.03 238.274 207.272 237.279 208.181C236.284 209.089 234.982 209.599 233.628 209.61Z" fill="#407BFF"/>
<path d="M401.315 497.405H228.46C225.644 497.436 222.852 496.887 220.261 495.793C217.671 494.699 215.339 493.084 213.413 491.051C211.488 489.017 210.012 486.61 209.078 483.981C208.144 481.353 207.774 478.561 207.99 475.784L235.946 66.2838C236.451 60.4334 239.139 54.978 243.485 50.9787C247.832 46.9794 253.528 44.7221 259.464 44.6458H432.252C435.07 44.6147 437.864 45.1641 440.456 46.2591C443.047 47.3541 445.38 48.9707 447.306 51.006C449.231 53.0413 450.707 55.4508 451.64 58.0811C452.572 60.7113 452.941 63.5048 452.722 66.2838L424.75 475.784C424.246 481.619 421.57 487.061 417.24 491.055C412.91 495.05 407.235 497.313 401.315 497.405Z" fill="#407BFF"/>
<path opacity="0.3" d="M209.812 471.198L237.106 71.5918H450.851L423.557 471.198H209.812Z" fill="white"/>
<path opacity="0.1" d="M294.194 471.198L370.478 71.5918H418.357L342.074 471.198H294.194Z" fill="white"/>
<path opacity="0.1" d="M258.023 471.198L334.307 71.5918H358.57L282.286 471.198H258.023Z" fill="white"/>
<path d="M324.287 54.6869H365.973C366.321 54.681 366.666 54.7475 366.986 54.882C367.307 55.0165 367.595 55.2161 367.832 55.4679C368.07 55.7196 368.251 56.0178 368.364 56.3432C368.477 56.6686 368.52 57.014 368.49 57.3568C368.433 58.0785 368.106 58.7533 367.573 59.2498C367.041 59.7463 366.34 60.0291 365.609 60.0431H323.923C323.574 60.0467 323.228 59.9781 322.908 59.8417C322.588 59.7053 322.3 59.5042 322.063 59.2512C321.826 58.9982 321.645 58.699 321.531 58.3728C321.418 58.0465 321.375 57.7005 321.405 57.3568C321.463 56.6367 321.79 55.9638 322.323 55.47C322.857 54.9761 323.557 54.6969 324.287 54.6869Z" fill="white"/>
<path d="M315.608 536.799L301.001 538.175L295.734 504.841L310.342 503.449L315.608 536.799Z" fill="#FFB573"/>
<path d="M299.328 531.116L314.631 526.415C314.895 526.324 315.184 526.338 315.437 526.454C315.691 526.57 315.888 526.779 315.989 527.037L320.957 539.044C321.081 539.365 321.136 539.709 321.118 540.053C321.101 540.396 321.011 540.733 320.856 541.041C320.7 541.348 320.481 541.621 320.214 541.841C319.946 542.061 319.636 542.224 319.301 542.32C313.77 543.958 308.503 544.334 301.829 547.234C294.028 550.51 290.765 554.899 282.369 554.899C276.357 554.899 274.999 549.445 277.549 548.691C289.142 545.219 287.619 542.369 296.032 533.409C296.907 532.37 298.044 531.579 299.328 531.116Z" fill="#263238"/>
<path opacity="0.2" d="M295.734 504.841L298.45 522.04L313.074 520.648L310.358 503.449L295.734 504.841Z" fill="black"/>
<path d="M306.301 83.6464C287.139 81.4187 268.077 82.9093 248.948 86.5784C245.76 87.1904 242.853 88.7903 240.646 91.1464C238.44 93.5025 237.049 96.4922 236.676 99.6824C234.606 117.799 232.237 158.405 241.479 218.978L319.782 212.426C319.931 201.435 312.032 151.361 318.557 99.4039C318.824 97.5698 318.717 95.7014 318.242 93.9089C317.767 92.1164 316.933 90.4361 315.791 88.9673C314.649 87.4986 313.22 86.271 311.591 85.3571C309.961 84.4432 308.162 83.8616 306.301 83.6464Z" fill="white"/>
<path d="M260.707 99.1741L263.505 104.711C263.636 104.99 263.844 105.227 264.104 105.395C264.365 105.563 264.668 105.655 264.979 105.661L268.01 105.824C268.551 105.848 269.083 105.686 269.517 105.366L274.734 101.516L268.292 96.8809L260.707 99.1741Z" fill="#263238"/>
<path d="M268.11 104.237C267.005 103.731 265.754 103.632 264.582 103.959C262.114 112.558 259.415 137.243 259.133 148.185C266.619 169.757 269.07 171.936 269.07 171.936L272.863 145.973C272.863 145.973 268.607 119.421 268.11 104.237Z" fill="#263238"/>
<path d="M289.723 46.2998C287.934 56.9796 286.41 76.4881 294.161 83.3841C288.48 89.2809 281.044 96.1114 268.292 96.8812C255.539 97.6511 257.51 88.9206 260.74 84.2523C272.648 81.1073 272.068 72.3276 269.733 64.1212L289.723 46.2998Z" fill="#FFB573"/>
<path d="M297.407 82.4511C296.504 82.0658 295.567 81.7642 294.608 81.5502C294.373 81.4888 294.125 81.5052 293.9 81.5969C293.676 81.6886 293.488 81.8506 293.366 82.0579C292.14 84.1218 288.397 93.3438 268.292 96.8818C271.604 98.8147 275.993 104.81 277.881 107.693C283.909 104.597 299.593 95.3421 298.103 83.3683C298.072 83.1705 297.993 82.9833 297.871 82.8232C297.75 82.6632 297.59 82.5353 297.407 82.4511Z" fill="#F5F5F5"/>
<path d="M260.856 84.7438C260.898 84.5574 260.893 84.3635 260.84 84.1797C260.788 83.9959 260.689 83.8281 260.555 83.6914C260.42 83.5547 260.252 83.4535 260.068 83.397C259.883 83.3405 259.687 83.3305 259.498 83.3679C258.802 83.5015 258.116 83.6822 257.444 83.9084C257.289 83.9684 257.144 84.0513 257.014 84.1541C255.474 85.5628 247.077 97.553 254.944 107.25C256.6 104.613 262.314 98.6341 268.292 96.8814C262.628 94.3589 259.846 89.6578 260.856 84.7438Z" fill="#F5F5F5"/>
<path opacity="0.2" d="M281.574 53.5732L269.749 64.122C270.319 66.0273 270.718 67.9786 270.941 69.9532C275.512 69.1834 281.657 64.0564 281.988 59.3062C282.212 57.3864 282.072 55.4421 281.574 53.5732Z" fill="black"/>
<path d="M265.774 14.0159C255.572 17.9635 254.909 26.2517 255.837 35.3099C256.764 44.368 266.735 38.3729 268.954 32.7055C271.173 27.038 279.901 8.54496 265.774 14.0159Z" fill="#263238"/>
<path d="M298.318 32.0825C295.486 46.3495 294.542 54.8179 286.295 61.3863C273.857 71.2143 257.013 62.7295 255.523 48.0202C254.181 34.7688 259.034 13.6222 273.89 9.49449C277.13 8.55108 280.562 8.46005 283.849 9.2304C287.135 10.0008 290.161 11.6058 292.628 13.887C295.095 16.1682 296.918 19.0465 297.916 22.2376C298.914 25.4287 299.052 28.8221 298.318 32.0825Z" fill="#FFB573"/>
<path d="M297.722 43.8921C285.582 44.531 288.15 37.7169 290.352 33.8021C292.555 29.8872 288.067 23.4171 290.998 20.0592C285.765 22.1231 280.25 20.4196 273.244 15.6039C267.812 11.8529 261.005 26.8406 254.38 19.3221C248.12 12.2296 253.933 1.53346 268.971 -0.186441C284.009 -1.90634 286.742 8.60962 296.613 7.67596C306.483 6.7423 303.055 14.7849 301.117 16.4229C309.398 16.9634 313.92 24.7931 297.722 43.8921Z" fill="#263238"/>
<path d="M299.212 17.4229C301.112 16.3925 302.698 14.8789 303.808 13.0387C304.917 11.1985 305.509 9.09851 305.522 6.95605C308.802 12.6399 308.454 19.0936 299.212 17.4229Z" fill="#263238"/>
<path d="M301.25 48.2661C298.982 51.1564 295.657 53.0504 291.992 53.5404C287.172 54.1629 285.566 49.7239 287.586 45.5797C289.425 41.8451 294.211 37.0294 298.65 38.3234C303.088 39.6174 304.032 44.6625 301.25 48.2661Z" fill="#FFB573"/>
<path d="M296.463 358.455C297.043 315.687 302.574 213.819 302.574 213.819L241.528 218.913C241.528 218.913 253.668 323.893 260.988 367.529C268.606 412.885 291.975 519.143 291.975 519.143L316.817 517.046C316.817 517.046 307.742 391.526 296.463 358.455Z" fill="#263238"/>
<path d="M290.484 519.813L319.948 517.34L318.788 507.938L288.083 509.969L290.484 519.813Z" fill="#407BFF"/>
<path opacity="0.4" d="M254.496 32.1807C254.247 34.048 256.152 35.6041 258.785 35.9317C261.419 36.2593 263.853 34.8342 264.085 32.9669" fill="#407BFF"/>
<path opacity="0.4" d="M270.147 33.918C269.782 35.7689 271.621 37.4397 274.204 37.9311C276.788 38.4225 279.322 37.1121 279.67 35.2775" fill="#407BFF"/>
<path d="M275.231 38.4371C274.933 38.4534 274.635 38.4534 274.337 38.4371C273.064 38.2866 271.868 37.7551 270.908 36.9138C270.49 36.56 270.163 36.112 269.956 35.6076C269.748 35.1032 269.666 34.5569 269.716 34.0145C268.875 33.6526 267.98 33.4311 267.066 33.3593C266.147 33.1325 265.186 33.1325 264.267 33.3593C264.035 35.3577 261.518 36.7336 258.702 36.3896C257.429 36.252 256.231 35.7253 255.274 34.8827C254.858 34.5271 254.532 34.0789 254.325 33.5749C254.118 33.0709 254.034 32.5255 254.082 31.9834L254.877 32.0817C254.843 32.5005 254.911 32.9212 255.076 33.3087C255.24 33.6962 255.495 34.0393 255.821 34.3094C256.655 35.0356 257.697 35.4878 258.802 35.6034C261.187 35.9146 263.307 34.8171 263.522 33.1791C263.638 32.2619 265.559 32.3274 267.149 32.5239C268.739 32.7205 270.627 33.1628 270.461 34.0637C270.426 34.4826 270.494 34.9038 270.658 35.2915C270.823 35.6792 271.079 36.0221 271.405 36.2913C272.25 37.0079 273.288 37.4642 274.392 37.6039C275.495 37.7436 276.616 37.5607 277.616 37.0776C278.002 36.9 278.339 36.6331 278.598 36.2995C278.857 35.9659 279.032 35.5755 279.106 35.1611V34.768L299.544 37.3724L299.444 38.1587L279.769 35.6525C279.626 36.1085 279.391 36.5309 279.077 36.8941C278.764 37.2574 278.38 37.5538 277.947 37.7655C277.11 38.2037 276.178 38.4341 275.231 38.4371Z" fill="#263238"/>
<path d="M347.324 351.558C334.654 287.152 331.806 236.783 319.782 212.328L260.64 218.88C260.64 218.88 295.867 314.851 313.075 355.817C330.945 398.405 366.221 471.165 366.221 471.165H395.767C395.767 471.165 368.192 380.895 347.324 351.558Z" fill="#263238"/>
<path d="M159.862 107.742L153.469 103.746C152.431 103.085 151.194 102.8 149.968 102.94C148.742 103.081 147.603 103.637 146.745 104.516L142.406 109.036C141.939 109.524 141.577 110.102 141.345 110.733C141.112 111.365 141.013 112.037 141.053 112.708C141.094 113.379 141.273 114.034 141.579 114.634C141.886 115.234 142.314 115.765 142.837 116.195L145.934 118.815C148.627 121.073 151.77 122.747 155.158 123.729L164.516 126.465L170.66 119.913C172.532 113.082 159.862 107.742 159.862 107.742Z" fill="#FFB573"/>
<path d="M254.496 104.679C252.177 110.281 249.908 115.49 247.441 120.813C244.973 126.137 242.472 131.395 239.706 136.62C236.94 141.845 233.992 147.037 230.647 152.246C228.991 154.834 227.152 157.422 225.066 160.027C222.822 162.899 220.268 165.519 217.447 167.84C215.585 169.345 213.53 170.601 211.336 171.575C210.64 171.837 209.994 172.099 209.233 172.328L208.073 172.639C207.49 172.781 206.898 172.885 206.301 172.951C204.282 173.176 202.239 173.031 200.273 172.525C197.815 171.844 195.479 170.789 193.35 169.396C191.755 168.412 190.233 167.317 188.795 166.12C184.016 161.993 179.61 157.46 175.629 152.574C171.77 147.988 168.126 143.385 164.632 138.684C161.137 133.983 157.775 129.363 154.331 124.433L172.648 112.738C178.428 121.967 184.824 130.804 191.793 139.191C194.997 143.077 198.526 146.687 202.343 149.986C203.082 150.584 203.863 151.132 204.678 151.624C205.291 152.033 205.904 152.197 205.473 152.05C204.891 151.891 204.281 151.858 203.684 151.952C203.444 151.973 203.205 152.017 202.972 152.083H202.84C202.757 152.083 202.757 152.083 202.74 152.083C203.117 151.839 203.477 151.571 203.817 151.28C205.329 149.923 206.699 148.419 207.908 146.792C209.315 144.924 210.723 142.828 212.065 140.649C214.807 136.12 217.306 131.45 219.551 126.661C221.869 121.747 224.105 116.833 226.175 111.722C228.245 106.612 230.216 101.419 231.889 96.4561L254.496 104.679Z" fill="#407BFF"/>
<g opacity="0.6">
<path d="M254.496 104.679C252.177 110.281 249.908 115.49 247.441 120.813C244.973 126.137 242.472 131.395 239.706 136.62C236.94 141.845 233.992 147.037 230.647 152.246C228.991 154.834 227.152 157.422 225.066 160.027C222.822 162.899 220.268 165.519 217.447 167.84C215.585 169.345 213.53 170.601 211.336 171.575C210.64 171.837 209.994 172.099 209.233 172.328L208.073 172.639C207.49 172.781 206.898 172.885 206.301 172.951C204.282 173.176 202.239 173.031 200.273 172.525C197.815 171.844 195.479 170.789 193.35 169.396C191.755 168.412 190.233 167.317 188.795 166.12C184.016 161.993 179.61 157.46 175.629 152.574C171.77 147.988 168.126 143.385 164.632 138.684C161.137 133.983 157.775 129.363 154.331 124.433L172.648 112.738C178.428 121.967 184.824 130.804 191.793 139.191C194.997 143.077 198.526 146.687 202.343 149.986C203.082 150.584 203.863 151.132 204.678 151.624C205.291 152.033 205.904 152.197 205.473 152.05C204.891 151.891 204.281 151.858 203.684 151.952C203.444 151.973 203.205 152.017 202.972 152.083H202.84C202.757 152.083 202.757 152.083 202.74 152.083C203.117 151.839 203.477 151.571 203.817 151.28C205.329 149.923 206.699 148.419 207.908 146.792C209.315 144.924 210.723 142.828 212.065 140.649C214.807 136.12 217.306 131.45 219.551 126.661C221.869 121.747 224.105 116.833 226.175 111.722C228.245 106.612 230.216 101.419 231.889 96.4561L254.496 104.679Z" fill="white"/>
</g>
<path d="M297.854 79.5351C291.644 91.0011 269.534 134.687 266.851 161.648C257.063 137.078 259.199 82.7292 259.199 82.7292C252.224 83.4017 245.381 85.0564 238.878 87.6432C236.783 88.4948 234.966 89.9036 233.63 91.7134C232.294 93.5232 231.491 95.6635 231.31 97.8971C229.403 126.019 230.302 154.258 233.993 182.205C240.866 235.112 247.242 317.389 247.242 317.389C247.242 317.389 301.978 315.129 344.211 306.316C339.06 265.874 321.438 198.094 321.273 179.945C321.074 156.587 321.621 110.919 322.366 91.8529C322.491 89.161 321.638 86.5137 319.961 84.3897C318.284 82.2657 315.895 80.8052 313.224 80.2722C308.158 79.3437 302.988 79.0957 297.854 79.5351Z" fill="#407BFF"/>
<path opacity="0.7" d="M297.854 79.5352C291.643 91.0012 269.533 134.687 266.85 161.648C257.063 137.078 259.199 82.7293 259.199 82.7293C252.223 83.4018 245.38 85.0565 238.878 87.6433C236.782 88.4949 234.966 89.9037 233.63 91.7135C232.294 93.5234 231.491 95.6636 231.309 97.8972C229.403 126.019 230.301 154.258 233.992 182.205C240.865 235.112 247.241 317.389 247.241 317.389C247.241 317.389 301.978 315.129 344.21 306.316C339.06 265.874 321.438 198.094 321.272 179.945C321.074 156.587 321.62 110.903 322.365 91.8366C322.522 89.2266 321.742 86.6457 320.164 84.5483C318.586 82.4508 316.31 80.9715 313.737 80.3706C308.508 79.3571 303.162 79.0759 297.854 79.5352Z" fill="white"/>
<path d="M284.953 308.61C275.446 256.734 267.911 180.616 267.298 171.46H268.143C268.755 180.616 276.307 256.636 285.797 308.511L284.953 308.61Z" fill="white"/>
<path d="M280.216 216.325H229.736C228.717 216.28 227.74 215.909 226.951 215.268C226.163 214.627 225.606 213.751 225.364 212.771L208.487 135.179C208.364 134.755 208.344 134.309 208.429 133.876C208.514 133.443 208.701 133.036 208.976 132.689C209.251 132.342 209.605 132.065 210.01 131.88C210.414 131.694 210.857 131.607 211.303 131.624H261.766C262.789 131.666 263.769 132.036 264.561 132.677C265.352 133.318 265.912 134.196 266.155 135.179L283.032 212.771C283.155 213.194 283.175 213.641 283.09 214.074C283.005 214.506 282.818 214.913 282.543 215.26C282.268 215.607 281.914 215.885 281.509 216.07C281.105 216.255 280.661 216.342 280.216 216.325Z" fill="white"/>
<path d="M278.643 216.98H227.302C226.264 216.933 225.269 216.554 224.466 215.902C223.664 215.25 223.095 214.358 222.847 213.36L205.672 134.458C205.549 134.026 205.531 133.571 205.62 133.13C205.708 132.689 205.901 132.276 206.182 131.923C206.463 131.57 206.824 131.288 207.236 131.099C207.649 130.911 208.1 130.821 208.554 130.838H259.895C260.933 130.886 261.928 131.264 262.73 131.916C263.533 132.569 264.101 133.46 264.35 134.458L281.508 213.36C281.635 213.792 281.655 214.246 281.569 214.687C281.483 215.128 281.292 215.542 281.012 215.896C280.733 216.249 280.372 216.532 279.96 216.72C279.548 216.909 279.097 216.998 278.643 216.98Z" fill="#407BFF"/>
<path d="M284.522 172.46L271.753 171.985C270.218 171.933 268.689 172.201 267.265 172.771L260.64 175.392C260.019 175.635 259.453 176 258.978 176.465C258.502 176.93 258.126 177.485 257.873 178.096C257.619 178.708 257.493 179.364 257.502 180.025C257.511 180.686 257.654 181.339 257.924 181.944L260.574 187.611C261.109 188.711 262.01 189.594 263.126 190.113C264.242 190.632 265.505 190.755 266.702 190.462L274.006 188.66C274.006 188.66 287.719 187.579 288.216 180.47L284.522 172.46Z" fill="#FFB573"/>
<path d="M319.782 86.5625C322.945 91.4765 325.843 95.9646 328.692 100.78C331.54 105.596 334.339 110.363 336.973 115.342C339.606 120.322 342.107 125.465 344.376 130.969C345.554 133.851 346.561 136.799 347.39 139.798C348.458 143.452 348.949 147.248 348.847 151.051V151.689C348.853 151.799 348.853 151.908 348.847 152.017C348.847 152.607 348.682 153.196 348.566 153.786C348.45 154.376 348.301 154.834 348.135 155.424C347.97 156.014 347.788 156.325 347.605 156.784C346.972 158.201 346.16 159.533 345.187 160.748C343.834 162.42 342.295 163.936 340.6 165.268C337.995 167.298 335.225 169.111 332.319 170.69C327.206 173.455 321.943 175.938 316.552 178.127C311.335 180.322 306.135 182.32 300.901 184.204C295.668 186.087 290.517 187.906 285.068 189.707L278.758 169.069C283.727 167.725 288.795 166.071 293.747 164.4C298.699 162.729 303.684 160.862 308.387 158.913C313.003 157.027 317.504 154.878 321.868 152.476C323.71 151.466 325.466 150.31 327.119 149.019C327.553 148.694 327.942 148.314 328.278 147.889C328.135 148.048 328.023 148.231 327.947 148.43C327.947 148.577 327.864 148.675 327.781 148.856C327.716 149.048 327.666 149.245 327.632 149.445C327.562 149.697 327.518 149.955 327.499 150.215C327.499 150.313 327.499 150.33 327.499 150.297V150.182C327.384 148.628 327.078 147.094 326.589 145.612C325.926 143.468 325.141 141.362 324.237 139.306C322.212 134.772 319.923 130.359 317.38 126.087C314.797 121.698 312.047 117.308 309.099 112.983C306.151 108.659 303.137 104.351 300.106 100.42L319.782 86.5625Z" fill="#407BFF"/>
<g opacity="0.7">
<path d="M319.782 86.5625C322.945 91.4765 325.843 95.9646 328.692 100.78C331.54 105.596 334.339 110.363 336.973 115.342C339.606 120.322 342.107 125.465 344.376 130.969C345.554 133.851 346.561 136.799 347.39 139.798C348.458 143.452 348.949 147.248 348.847 151.051V151.689C348.853 151.799 348.853 151.908 348.847 152.017C348.847 152.607 348.682 153.196 348.566 153.786C348.45 154.376 348.301 154.834 348.135 155.424C347.97 156.014 347.788 156.325 347.605 156.784C346.972 158.201 346.16 159.533 345.187 160.748C343.834 162.42 342.295 163.936 340.6 165.268C337.995 167.298 335.225 169.111 332.319 170.69C327.206 173.455 321.943 175.938 316.552 178.127C311.335 180.322 306.135 182.32 300.901 184.204C295.668 186.087 290.517 187.906 285.068 189.707L278.758 169.069C283.727 167.725 288.795 166.071 293.747 164.4C298.699 162.729 303.684 160.862 308.387 158.913C313.003 157.027 317.504 154.878 321.868 152.476C323.71 151.466 325.466 150.31 327.119 149.019C327.553 148.694 327.942 148.314 328.278 147.889C328.135 148.048 328.023 148.231 327.947 148.43C327.947 148.577 327.864 148.675 327.781 148.856C327.716 149.048 327.666 149.245 327.632 149.445C327.562 149.697 327.518 149.955 327.499 150.215C327.499 150.313 327.499 150.33 327.499 150.297V150.182C327.384 148.628 327.078 147.094 326.589 145.612C325.926 143.468 325.141 141.362 324.237 139.306C322.212 134.772 319.923 130.359 317.38 126.087C314.797 121.698 312.047 117.308 309.099 112.983C306.151 108.659 303.137 104.351 300.106 100.42L319.782 86.5625Z" fill="white"/>
</g>
<path d="M303.022 143.401C302.911 143.4 302.803 143.37 302.707 143.316C302.612 143.261 302.532 143.183 302.475 143.09C302.427 143.018 302.393 142.938 302.377 142.853C302.36 142.768 302.362 142.681 302.38 142.597C302.399 142.513 302.434 142.434 302.485 142.363C302.535 142.293 302.6 142.234 302.674 142.189L305.257 140.551C307.669 139.047 309.562 136.854 310.686 134.262C311.809 131.671 312.111 128.803 311.551 126.038L306.351 99.9939C305.97 98.0465 304.936 96.2831 303.417 94.9888C301.897 93.6946 299.98 92.9452 297.977 92.8618C295.973 92.7785 294 93.366 292.376 94.5295C290.751 95.693 289.572 97.3643 289.027 99.2731L281.657 124.81C280.852 127.509 280.896 130.387 281.784 133.061C282.671 135.735 284.36 138.078 286.626 139.781L289.077 141.615C289.215 141.722 289.304 141.879 289.326 142.05C289.348 142.222 289.3 142.396 289.193 142.533C289.141 142.6 289.076 142.656 289.002 142.698C288.928 142.74 288.846 142.767 288.761 142.778C288.677 142.789 288.591 142.783 288.508 142.76C288.426 142.738 288.349 142.699 288.282 142.647L285.963 140.829C283.472 138.974 281.611 136.414 280.626 133.489C279.641 130.563 279.579 127.41 280.448 124.449L287.835 98.9128C288.469 96.7322 289.825 94.8256 291.686 93.4989C293.547 92.1721 295.805 91.5022 298.097 91.5967C300.389 91.6911 302.583 92.5445 304.326 94.0197C306.069 95.495 307.26 97.5066 307.709 99.7318L312.909 125.792C313.523 128.813 313.194 131.946 311.967 134.778C310.74 137.61 308.671 140.006 306.036 141.648L303.436 143.286C303.378 143.332 303.312 143.366 303.241 143.385C303.169 143.405 303.095 143.41 303.022 143.401Z" fill="#263238"/>
<path d="M306.996 100.534L288.397 99.7645C288.31 99.7603 288.225 99.7392 288.146 99.7023C288.067 99.6654 287.997 99.6136 287.938 99.5497C287.88 99.4858 287.835 99.4111 287.805 99.3299C287.776 99.2487 287.763 99.1626 287.768 99.0766C287.784 98.9057 287.865 98.7471 287.994 98.6319C288.122 98.5167 288.29 98.4533 288.464 98.4541L307.046 99.224C307.133 99.2282 307.218 99.2493 307.297 99.2862C307.376 99.323 307.446 99.3749 307.505 99.4388C307.563 99.5027 307.608 99.5774 307.638 99.6586C307.667 99.7398 307.68 99.8259 307.675 99.9119C307.673 99.9973 307.654 100.081 307.618 100.159C307.583 100.237 307.532 100.307 307.469 100.365C307.405 100.423 307.331 100.468 307.25 100.497C307.169 100.526 307.082 100.539 306.996 100.534Z" fill="#263238"/>
<path d="M297.954 92.9011C297.783 92.8972 297.619 92.8291 297.496 92.7106C297.373 92.5921 297.3 92.4319 297.292 92.2623C297.292 88.9863 296.265 83.3025 293.168 82.0576C293.082 82.0291 293.003 81.9836 292.936 81.9239C292.869 81.8641 292.815 81.7914 292.777 81.7101C292.739 81.6289 292.719 81.5408 292.716 81.4514C292.714 81.362 292.731 81.2732 292.765 81.1903C292.799 81.1074 292.85 81.0323 292.914 80.9696C292.978 80.9068 293.055 80.8578 293.139 80.8255C293.224 80.7932 293.314 80.7783 293.404 80.7817C293.495 80.7852 293.583 80.8069 293.665 80.8455C298.252 82.7128 298.633 91.2631 298.633 92.3115C298.634 92.484 298.567 92.6501 298.446 92.7751C298.326 92.9002 298.162 92.9746 297.987 92.9831L297.954 92.9011Z" fill="#263238"/>
<path d="M241.064 115.162H240.932C240.761 115.127 240.611 115.026 240.515 114.882C240.419 114.738 240.384 114.562 240.418 114.392C242.604 103.631 251.647 86.6447 259.613 81.6324C259.686 81.5877 259.767 81.5578 259.851 81.5443C259.936 81.5308 260.022 81.5341 260.105 81.5539C260.189 81.5737 260.267 81.6097 260.336 81.6597C260.405 81.7097 260.463 81.7729 260.508 81.8454C260.556 81.9156 260.589 81.9948 260.605 82.0781C260.621 82.1615 260.62 82.2472 260.601 82.3301C260.583 82.4129 260.547 82.4911 260.497 82.5599C260.447 82.6286 260.383 82.6865 260.309 82.7299C252.608 87.5456 243.83 104.024 241.71 114.622C241.683 114.772 241.604 114.909 241.486 115.007C241.368 115.106 241.219 115.161 241.064 115.162Z" fill="#263238"/>
<path d="M246.497 116.848C245.47 119.453 243.185 121.025 241.528 120.354C239.872 119.682 239.226 117.078 240.253 114.408C241.28 111.738 243.566 110.231 245.222 110.919C246.878 111.607 247.54 114.244 246.497 116.848Z" fill="white"/>
<path d="M290.219 142.221C290.219 143.433 289.457 144.4 288.646 144.367C287.834 144.334 287.205 143.318 287.255 142.09C287.304 140.861 288.017 139.895 288.828 139.944C289.64 139.993 290.269 140.992 290.219 142.221Z" fill="white"/>
<path d="M304.495 142.811C304.495 144.023 303.75 144.989 302.922 144.957C302.094 144.924 301.498 143.908 301.547 142.68C301.597 141.451 302.293 140.501 303.203 140.534C304.114 140.567 304.545 141.631 304.495 142.811Z" fill="white"/>
<path d="M585.349 120.093L583.693 119.995C583.969 116.507 583.508 113.001 582.341 109.699C581.174 106.397 579.326 103.371 576.914 100.813C574.502 98.2547 571.578 96.2203 568.329 94.8387C565.08 93.4572 561.576 92.7586 558.039 92.7874V91.1494C561.803 91.1178 565.532 91.8601 568.99 93.3292C572.448 94.7983 575.559 96.9622 578.127 99.6836C580.695 102.405 582.663 105.624 583.906 109.138C585.149 112.651 585.641 116.382 585.349 120.093Z" fill="#407BFF"/>
<path d="M586.223 126.961L585.263 140.523L586.919 140.638L587.879 127.075L586.223 126.961Z" fill="#407BFF"/>
<path d="M558.039 96.882H443.763C437.522 96.9834 431.543 99.3772 426.988 103.598C422.433 107.818 419.628 113.563 419.119 119.716L418.076 134.933C417.838 137.861 418.221 140.805 419.198 143.579C420.175 146.353 421.726 148.895 423.752 151.043C425.777 153.192 428.233 154.899 430.963 156.056C433.692 157.214 436.636 157.796 439.606 157.766H553.882L576.041 171.28L579.552 119.716C579.792 116.789 579.412 113.844 578.436 111.07C577.461 108.297 575.912 105.754 573.888 103.606C571.863 101.457 569.408 99.7497 566.68 98.592C563.951 97.4343 561.008 96.8519 558.039 96.882Z" fill="#407BFF"/>
<path d="M552.242 118.684H446.396V122.484H552.242V118.684Z" fill="white"/>
<path d="M551.315 132.165H472.73V135.965H551.315V132.165Z" fill="white"/>
<path d="M386.128 178.291H502.922C505.958 178.259 508.968 178.853 511.76 180.035C514.551 181.218 517.062 182.963 519.133 185.16C521.205 187.356 522.79 189.955 523.788 192.792C524.787 195.628 525.176 198.639 524.932 201.633L523.872 217.194C523.347 223.481 520.479 229.351 515.824 233.665C511.169 237.978 505.06 240.427 498.682 240.535H381.872L357.328 254.376L360.938 201.633C361.459 195.344 364.326 189.472 368.982 185.158C373.638 180.844 379.75 178.396 386.128 178.291Z" fill="white"/>
<path opacity="0.15" d="M386.128 178.291H502.922C505.958 178.259 508.968 178.853 511.76 180.035C514.551 181.218 517.062 182.963 519.133 185.16C521.205 187.356 522.79 189.955 523.788 192.792C524.787 195.628 525.176 198.639 524.932 201.633L523.872 217.194C523.347 223.481 520.479 229.351 515.824 233.665C511.169 237.978 505.06 240.427 498.682 240.535H381.872L357.328 254.376L360.938 201.633C361.459 195.344 364.326 189.472 368.982 185.158C373.638 180.844 379.75 178.396 386.128 178.291Z" fill="#407BFF"/>
<path opacity="0.5" d="M496.993 200.584H388.746V204.482H496.993V200.584Z" fill="#407BFF"/>
<path opacity="0.5" d="M430.58 214.359H387.801V218.258H430.58V214.359Z" fill="#407BFF"/>
<path opacity="0.5" d="M468.391 214.359H441.064V218.258H468.391V214.359Z" fill="#407BFF"/>
</g>
<defs>
<clipPath id="clip0_753_183">
<rect width="638" height="573" fill="white"/>
</clipPath>
</defs>
</svg>
